<svg xmlns="http://www.w3.org/2000/svg" xmlns:xlink="http://www.w3.org/1999/xlink" viewBox="0 0 68.08 65"><defs><style>.cls-1{fill:none;}.cls-2{clip-path:url(#clip-path);}.cls-3{fill:red;}.cls-4{fill:#fefcfc;}</style><clipPath id="clip-path" transform="translate(1.54)"><circle class="cls-1" cx="32.5" cy="32.5" r="32.5"/></clipPath></defs><title>avatar</title><g id="Layer_2" data-name="Layer 2"><g id="OBJECTS_" data-name="OBJECTS
"><g class="cls-2"><circle class="cls-3" cx="34.04" cy="32.5" r="32.5"/><path class="cls-4" d="M37.77,21.39c-1.09,2-2.13,3.92-3.16,5.8-.21-.06-.14-.2-.14-.31s0-.44,0-.67A1.38,1.38,0,0,0,33.9,25a3.24,3.24,0,0,0-5.1,1.8,3,3,0,0,0,.37,2.29,11.65,11.65,0,0,0,1,1.47,30.27,30.27,0,0,0,4.41,4.21,1.57,1.57,0,0,0,.25.14,1.36,1.36,0,0,0,.49-.83c.18-.6.32-1.2.47-1.8,0-.1,0-.2.06-.3.12-.56.12-.56.67-.4l3.44,1c.37.11.38.13.33.53a12.12,12.12,0,0,1-.7,2.66,17,17,0,0,1-1.55,3.07,1.89,1.89,0,0,0,.41.6l2.77,3.41a1.7,1.7,0,0,1,.41.59c0,.15-.15.12-.24.12H36.49a.92.92,0,0,1-.76-.35c-.28-.32-.59-.61-.88-.91a3.76,3.76,0,0,0-1.18.41,15.59,15.59,0,0,1-6.67.86,12.08,12.08,0,0,1-4.59-1.41A5.2,5.2,0,0,1,20.07,37a7.11,7.11,0,0,1,1-2.46,13.29,13.29,0,0,1,3-3.26c.29-.23.6-.44.9-.66a.2.2,0,0,0,0-.32c-.14-.18-.28-.35-.41-.53A8,8,0,0,1,23,25.26a5.27,5.27,0,0,1,.13-1.48c.18-.7.33-1.4.48-2.1a.32.32,0,0,1,.36-.29H37.77ZM28.19,33.91c-.35.24-.64.43-.92.64s-.47.37-.69.57a4.45,4.45,0,0,0-.78.89,2,2,0,0,0,.16,2.6,3.26,3.26,0,0,0,2.45,1.23A6.7,6.7,0,0,0,31.83,39c.13-.06.28-.11.29-.33Z" transform="translate(1.54)"/><path class="cls-4" d="M47.27,27.47H37.9c-.1-.2,0-.32.07-.45.93-1.72,1.87-3.44,2.79-5.18a.67.67,0,0,1,.76-.43,1.61,1.61,0,0,0,.22,0l15.35,0H66.4a.13.13,0,0,1,.12.06s0,.11,0,.13l-1.15,1.17a.43.43,0,0,1-.34.11H59.37c-.27,0-.55,0-.73.24s-.41.25-.34.45.38.13.58.13h4.77a1,1,0,0,1,.65.08s0,.06,0,.08a4,4,0,0,1-1,1,2.75,2.75,0,0,1-1.25.07c-1.59,0-3.18,0-4.76,0a.88.88,0,0,0-.79.33c-.08.11-.28.19-.23.34s.29.12.44.12h5.56a.19.19,0,0,1,0,.29c-.4.4-.81.8-1.2,1.22a.91.91,0,0,1-.73.29H54.38c-.93,0-.74-.08-1,.78C52.22,33.1,51,38,49.82,42.83c-.2.79-.07.7-.86.7H44.12a3.39,3.39,0,0,1-.45,0,.17.17,0,0,1-.17-.19c0-.23.09-.44.14-.66.65-2.65,1.29-5.3,2-8l1.65-6.65A.91.91,0,0,0,47.27,27.47Z" transform="translate(1.54)"/><path class="cls-4" d="M-1.52,43.5a.36.36,0,0,1,.08-.35c.62-1.22,1.26-2.42,1.87-3.64a.67.67,0,0,1,.69-.43c2.53,0,5.06,0,7.6,0h.89c.43,0,.44,0,.54-.45.26-1.14.51-2.28.76-3.42q1.5-6.64,3-13.29c0-.12.07-.24.11-.36a.24.24,0,0,1,.22-.16h5.52a3.25,3.25,0,0,1,.44,0,.15.15,0,0,1,.13.16,2.38,2.38,0,0,1-.06.37L17,36.56c-.47,2.09-.95,4.17-1.42,6.25,0,.12,0,.24-.08.36-.1.34-.11.36-.45.36H-.87A1.79,1.79,0,0,1-1.52,43.5Z" transform="translate(1.54)"/></g></g></g></svg>