<svg xmlns="http://www.w3.org/2000/svg" xmlns:xlink="http://www.w3.org/1999/xlink" viewBox="0 0 768 290.47"><defs><style>.cls-1,.cls-19{fill:none;}.cls-2{fill:#f0f2f7;}.cls-3{fill:#f2a441;}.cls-4{fill:#bc5555;}.cls-5{fill:#26244a;}.cls-6{fill:#fff;}.cls-13,.cls-7{fill:#b8c1ea;}.cls-7{opacity:0.33;}.cls-8{fill:#dadef1;}.cls-9{fill:#9eabdb;}.cls-10{fill:#87b74e;}.cls-11{fill:#ffb25f;}.cls-12{fill:#ff8b0d;}.cls-14{fill:#e04141;}.cls-15{fill:#f5f5f5;}.cls-16{fill:#ff725e;}.cls-17{fill:#ed796a;}.cls-18{fill:#f4b298;}.cls-19{stroke:#26244a;stroke-linecap:round;stroke-linejoin:round;}.cls-20{fill:#25184c;}.cls-21{fill:#ef6856;}.cls-22{clip-path:url(#clip-path);}</style><clipPath id="clip-path"><rect id="SVGID" class="cls-1" x="292.9" y="194.36" width="93.39" height="59.35"/></clipPath></defs><title>banner_training</title><g id="Layer_2" data-name="Layer 2"><g id="OBJECTS_" data-name="OBJECTS
"><rect class="cls-1" width="768" height="250"/><polygon class="cls-2" points="403.37 160.27 415.5 167.2 459.71 141.53 447.57 134.61 403.37 160.27"/><path class="cls-2" d="M399.86,156.51l-2.19,13.81,22.46-.68S400,156.78,399.86,156.51Z"/><path class="cls-3" d="M475.42,88.94,465.37,95a2.13,2.13,0,0,0-1,1.82v11a2.14,2.14,0,0,0,1.07,1.85l10,5.79a2.11,2.11,0,0,0,2.12,0l10.29-5.86a2.13,2.13,0,0,0,1.08-1.85v-11a2.12,2.12,0,0,0-1.06-1.85l-10.28-6A2.14,2.14,0,0,0,475.42,88.94Z"/><polygon class="cls-4" points="476.26 88.65 464.65 95.73 476.33 102.52 488.41 95.63 476.26 88.65"/><polygon class="cls-3" points="464.78 95.85 461.53 91.36 474.17 99.03 476.33 102.52 464.78 95.85"/><path class="cls-5" d="M476.8,115.76V88.94a.38.38,0,0,0-.75,0v26.82a.38.38,0,0,0,.75,0Z"/><path class="cls-6" d="M485.26,109.69l2.3-1.32a.51.51,0,0,0,.26-.44v-1a.32.32,0,0,0-.47-.27L485.11,108a.67.67,0,0,0-.32.57v.87A.31.31,0,0,0,485.26,109.69Z"/><path class="cls-6" d="M465.42,98.71c0,.64,0,1.69,0,2.26a.7.7,0,0,0,.34.59l2.73,1.66A.3.3,0,0,0,469,103l.05-2.26a.69.69,0,0,0-.35-.61l-2.78-1.64A.3.3,0,0,0,465.42,98.71Z"/><polygon class="cls-3" points="465.42 95.73 461.5 91.25 473.85 83.31 476.26 88.94 465.42 95.73"/><path class="cls-3" d="M487.82,95.54c.06-.17,3.48-5.46,3.48-5.46l-12.89-7.23-2.15,6.09Z"/><polygon class="cls-3" points="476.42 102.41 478.41 98.83 491.05 91.34 488.06 95.93 476.42 102.41"/><path class="cls-5" d="M464.59,96.17l10.5,5.9a5.59,5.59,0,0,0,1.19.67c.42.09.78-.23,1.15-.44l6.12-3.42,5.05-2.82a.37.37,0,0,0-.37-.65l-10.35,5.78c-.38.22-1.3.51-1.56.88.12-.17.4.21.17-.07s-.53-.3-.72-.41l-6-3.35L465,95.52c-.42-.23-.8.41-.38.65Z"/><path class="cls-5" d="M461.31,91.57l6.2,3.67,4.28,2.54c.71.41,1.49.79,2.16,1.27-.22-.15-.11-.15-.08,0a2.11,2.11,0,0,0,.18.33l.65,1.18,1,1.86c.23.42.88,0,.64-.38l-.84-1.54a14.12,14.12,0,0,0-1-1.87,5.52,5.52,0,0,0-1.69-1.09l-8.65-5.13-2.46-1.46a.38.38,0,0,0-.38.65Z"/><path class="cls-5" d="M490.91,91l-6.32,3.74-4.35,2.58a12.62,12.62,0,0,0-2,1.17,5.7,5.7,0,0,0-1,1.67l-1.06,1.92c-.23.43.42.81.65.38a31.89,31.89,0,0,0,1.86-3.39c.07-.17-.2.11,0,0a2.79,2.79,0,0,0,.33-.19l1.31-.77,8.58-5.09,2.36-1.4a.37.37,0,0,0-.38-.64Z"/><path class="cls-5" d="M467.27,94.86l9.18-5.6h-.38l9.74,5.4c.42.23.8-.42.38-.65l-9.74-5.39a.37.37,0,0,0-.38,0l-9.18,5.59c-.41.25,0,.9.38.65Z"/><path class="cls-7" d="M482,52.62l15.74,9.21a5.92,5.92,0,0,0,5.95,0l16.13-9.28a2.84,2.84,0,0,0,.05-4.89L502.71,37.35a2.85,2.85,0,0,0-2.89,0L482,47.72A2.83,2.83,0,0,0,482,52.62Z"/><path class="cls-4" d="M476.62,32.62l18.66,10.92a7.53,7.53,0,0,0,7.57,0l18.64-10.73c2.3-1.51,2.28-6.73,1.59-8.25l-21.89-9.54a2.87,2.87,0,0,0-2.95,0L476.86,26.54c-.14-1-1-1.29-1-1.22C475.41,27.53,474.72,31.18,476.62,32.62Z"/><path class="cls-8" d="M477.54,27.35,495.9,38.1a6.91,6.91,0,0,0,6.94,0l18.81-10.83a3.3,3.3,0,0,0,.06-5.69l-20-12.06a3.31,3.31,0,0,0-3.37,0L477.55,21.64A3.31,3.31,0,0,0,477.54,27.35Z"/><path class="cls-3" d="M586.21,137.67l-8.14,4.92a1.71,1.71,0,0,0-.83,1.48V153a1.74,1.74,0,0,0,.86,1.5l8.13,4.69a1.76,1.76,0,0,0,1.72,0l8.33-4.75a1.72,1.72,0,0,0,.88-1.5V144a1.73,1.73,0,0,0-.87-1.5L588,137.65A1.71,1.71,0,0,0,586.21,137.67Z"/><polygon class="cls-6" points="590.64 150.3 590.53 146.94 580.69 141 583.35 139.42 593.29 145.32 593.29 148.79 590.64 150.3"/><path class="cls-5" d="M577.41,143.58l8.55,4.83a3.52,3.52,0,0,0,1,.53c.33,0,.71-.28,1-.43l5-2.77,4-2.25c.43-.23.05-.88-.37-.65l-8.32,4.64c-.2.11-1.26.51-1.34.74s.36.17.23,0-.42-.24-.54-.31l-4.83-2.72-4-2.23c-.42-.24-.8.41-.38.64Z"/><path class="cls-5" d="M587.4,159.39V148.58a.38.38,0,0,0-.75,0v10.81a.38.38,0,0,0,.75,0Z"/><path class="cls-6" d="M594.18,154.47l1.87-1.07a.42.42,0,0,0,.2-.36v-.8a.25.25,0,0,0-.38-.22l-1.81,1.07a.52.52,0,0,0-.26.45v.71A.25.25,0,0,0,594.18,154.47Z"/><path class="cls-6" d="M578.11,145.58c0,.51,0,1.37,0,1.83a.58.58,0,0,0,.28.47l2.21,1.35A.25.25,0,0,0,581,149l0-1.83a.58.58,0,0,0-.28-.5l-2.25-1.32A.25.25,0,0,0,578.11,145.58Z"/><path class="cls-3" d="M498.11,8.88,490,13.8a1.75,1.75,0,0,0-.84,1.48v8.91a1.73,1.73,0,0,0,.87,1.5l8.12,4.68a1.73,1.73,0,0,0,1.72,0l8.34-4.75a1.73,1.73,0,0,0,.87-1.5V15.2a1.74,1.74,0,0,0-.86-1.5l-8.32-4.83A1.75,1.75,0,0,0,498.11,8.88Z"/><polygon class="cls-6" points="502.54 21.52 502.43 18.15 492.59 12.22 495.25 10.63 505.19 16.54 505.2 20 502.54 21.52"/><path class="cls-5" d="M489.31,14.8l8.55,4.82a3.87,3.87,0,0,0,1,.54c.33,0,.72-.28,1-.43l5-2.78,4-2.24c.42-.24,0-.88-.38-.65l-8.32,4.63c-.2.12-1.26.52-1.33.75,0,.08.35.17.22,0s-.41-.24-.54-.31l-4.82-2.72-4-2.24c-.42-.23-.8.41-.38.65Z"/><path class="cls-5" d="M499.3,30.6V19.79a.38.38,0,0,0-.75,0V30.6a.38.38,0,0,0,.75,0Z"/><path class="cls-6" d="M506.08,25.69,508,24.62a.41.41,0,0,0,.2-.36v-.81a.25.25,0,0,0-.38-.21L506,24.3a.54.54,0,0,0-.26.46v.71A.26.26,0,0,0,506.08,25.69Z"/><path class="cls-6" d="M490,16.8c0,.51,0,1.36,0,1.82a.55.55,0,0,0,.27.48l2.22,1.35a.25.25,0,0,0,.37-.21l0-1.83a.54.54,0,0,0-.28-.5l-2.25-1.32A.24.24,0,0,0,490,16.8Z"/><path class="cls-3" d="M660.28,161.9l-6.12,3.7a1.31,1.31,0,0,0-.63,1.12v6.69a1.3,1.3,0,0,0,.65,1.13l6.12,3.53a1.29,1.29,0,0,0,1.29,0l6.27-3.57a1.29,1.29,0,0,0,.66-1.13v-6.72a1.33,1.33,0,0,0-.65-1.13l-6.26-3.63A1.32,1.32,0,0,0,660.28,161.9Z"/><polygon class="cls-6" points="663.62 171.4 663.53 168.87 656.13 164.41 658.13 163.22 665.61 167.66 665.61 170.27 663.62 171.4"/><path class="cls-5" d="M653.61,166.43l6.44,3.63a2.74,2.74,0,0,0,.75.41c.28.05.59-.21.82-.33l3.74-2.09,3-1.69c.42-.23,0-.88-.38-.64l-7.3,4.06h.38l-7.1-4c-.42-.23-.8.42-.38.65Z"/><path class="cls-5" d="M661.27,178.24v-8.13a.38.38,0,0,0-.75,0v8.13a.38.38,0,0,0,.75,0Z"/><path class="cls-6" d="M666.28,174.54l1.4-.8a.32.32,0,0,0,.16-.27v-.61a.19.19,0,0,0-.29-.16l-1.36.8a.4.4,0,0,0-.2.34v.54A.19.19,0,0,0,666.28,174.54Z"/><path class="cls-6" d="M654.19,167.86c0,.38,0,1,0,1.37a.42.42,0,0,0,.21.36l1.66,1a.19.19,0,0,0,.28-.16l0-1.37a.44.44,0,0,0-.21-.38l-1.7-1A.18.18,0,0,0,654.19,167.86Z"/><path class="cls-9" d="M414.33,31.45l-9.56,5.78a2,2,0,0,0-1,1.74V49.43a2,2,0,0,0,1,1.76l9.55,5.5a2,2,0,0,0,2,0l9.79-5.58a2,2,0,0,0,1-1.76V38.86a2,2,0,0,0-1-1.75l-9.77-5.68A2,2,0,0,0,414.33,31.45Z"/><polygon class="cls-6" points="419.54 46.29 419.41 42.34 407.85 35.37 410.97 33.5 422.65 40.45 422.66 44.51 419.54 46.29"/><path class="cls-5" d="M404,38.34,414.07,44a4.25,4.25,0,0,0,1.12.62c.37,0,.82-.33,1.12-.5l5.84-3.26,4.74-2.63a.38.38,0,0,0-.38-.65L416.74,43c-.23.13-1.49.61-1.57.87,0,.08.33.19.2,0s-.5-.28-.64-.36l-5.66-3.2-4.67-2.63c-.42-.23-.8.41-.38.65Z"/><path class="cls-5" d="M415.67,57V44.27a.38.38,0,0,0-.75,0V57a.38.38,0,0,0,.75,0Z"/><path class="cls-6" d="M423.7,51.19l2.19-1.26a.47.47,0,0,0,.24-.42v-.94a.3.3,0,0,0-.45-.26l-2.12,1.25a.64.64,0,0,0-.31.54v.83A.3.3,0,0,0,423.7,51.19Z"/><path class="cls-6" d="M404.82,40.75c0,.6,0,1.6,0,2.14a.7.7,0,0,0,.32.56L407.76,45a.29.29,0,0,0,.44-.24l0-2.15a.67.67,0,0,0-.32-.59l-2.65-1.55A.29.29,0,0,0,404.82,40.75Z"/><path class="cls-3" d="M447.52,105,439.38,110a1.71,1.71,0,0,0-.83,1.48v8.9a1.74,1.74,0,0,0,.86,1.5l8.13,4.69a1.76,1.76,0,0,0,1.72,0l8.33-4.75a1.72,1.72,0,0,0,.88-1.5v-8.93a1.74,1.74,0,0,0-.86-1.5L449.29,105A1.73,1.73,0,0,0,447.52,105Z"/><polygon class="cls-6" points="451.95 117.66 451.84 114.3 442 108.36 444.66 106.78 454.6 112.69 454.61 116.15 451.95 117.66"/><path class="cls-5" d="M438.72,110.94l8.55,4.83a3.67,3.67,0,0,0,1,.53c.33,0,.72-.28,1-.43l5-2.77,4-2.25c.42-.23,0-.88-.38-.65l-8.32,4.64c-.2.11-1.26.51-1.33.74s.35.17.22,0-.42-.24-.54-.31l-4.82-2.72-4-2.23c-.42-.24-.8.41-.38.64Z"/><path class="cls-5" d="M448.71,126.75V115.94a.38.38,0,0,0-.75,0v10.81a.38.38,0,0,0,.75,0Z"/><path class="cls-6" d="M455.49,121.83l1.87-1.07a.42.42,0,0,0,.2-.36v-.8a.25.25,0,0,0-.38-.22l-1.81,1.07a.52.52,0,0,0-.26.45v.71A.25.25,0,0,0,455.49,121.83Z"/><path class="cls-6" d="M439.43,112.94c0,.51,0,1.37,0,1.83a.55.55,0,0,0,.27.47l2.21,1.35a.25.25,0,0,0,.38-.21l0-1.83a.58.58,0,0,0-.28-.5l-2.25-1.32A.24.24,0,0,0,439.43,112.94Z"/><polygon class="cls-8" points="612.33 119.28 624.46 126.21 668.67 100.54 656.54 93.62 612.33 119.28"/><path class="cls-8" d="M608.82,115.52l-2.18,13.81,22.46-.68S609,115.79,608.82,115.52Z"/><polygon class="cls-8" points="603.23 234.37 615.36 241.3 659.57 215.63 647.43 208.71 603.23 234.37"/><path class="cls-8" d="M599.72,230.61l-2.18,13.81,22.45-.68S599.9,230.88,599.72,230.61Z"/><path class="cls-10" d="M530.3,190.18a7,7,0,0,0-3.15-6.82c-.83-.47-2-.71-2.65,0a1.69,1.69,0,0,0-.31,1.54,4,4,0,0,0,.8,1.42,13.8,13.8,0,0,0,5.31,3.87"/><path class="cls-10" d="M531.1,189.87a7.65,7.65,0,0,0,5-1.89,1.67,1.67,0,0,0,.74-1.4,1.22,1.22,0,0,0-.8-.89,2.37,2.37,0,0,0-1.24,0,4.55,4.55,0,0,0-3.74,4.21"/><path class="cls-5" d="M527,185.7a12.72,12.72,0,0,1,3.95,7.84c.06.48.81.48.75,0a13.48,13.48,0,0,0-4.17-8.37c-.35-.33-.88.2-.53.53Z"/><path class="cls-5" d="M531,190.36l3.72-2.9a.37.37,0,0,0,0-.53.38.38,0,0,0-.53,0l-3.72,2.9a.37.37,0,1,0,.53.53Z"/><path class="cls-10" d="M636.86,132.64a7,7,0,0,0-3.15-6.82c-.83-.47-2-.71-2.65,0a1.66,1.66,0,0,0-.31,1.54,4,4,0,0,0,.79,1.42,13.83,13.83,0,0,0,5.32,3.87"/><path class="cls-10" d="M637.66,132.33a7.62,7.62,0,0,0,5-1.89,1.69,1.69,0,0,0,.74-1.39,1.21,1.21,0,0,0-.8-.9,2.37,2.37,0,0,0-1.24,0,4.55,4.55,0,0,0-3.74,4.21"/><path class="cls-5" d="M633.52,128.16a12.72,12.72,0,0,1,4,7.84c0,.48.8.48.75,0a13.53,13.53,0,0,0-4.17-8.37c-.35-.33-.88.2-.53.53Z"/><path class="cls-5" d="M637.51,132.82l3.73-2.9a.37.37,0,1,0-.53-.53l-3.73,2.9a.37.37,0,1,0,.53.53Z"/><path class="cls-10" d="M547.45,13.68a7,7,0,0,0-3.15-6.81c-.83-.47-2-.71-2.65,0a1.69,1.69,0,0,0-.31,1.54,4,4,0,0,0,.8,1.42,13.78,13.78,0,0,0,5.31,3.86"/><path class="cls-10" d="M548.25,13.38a7.65,7.65,0,0,0,5-1.89,1.67,1.67,0,0,0,.74-1.4,1.2,1.2,0,0,0-.8-.89,2.37,2.37,0,0,0-1.24,0,4.55,4.55,0,0,0-3.74,4.21"/><path class="cls-5" d="M544.11,9.21a12.72,12.72,0,0,1,3.95,7.84c.06.47.81.48.75,0a13.45,13.45,0,0,0-4.17-8.37c-.35-.33-.88.2-.53.53Z"/><path class="cls-5" d="M548.11,13.87l3.72-2.9a.37.37,0,0,0,0-.53.38.38,0,0,0-.53,0l-3.72,2.9a.38.38,0,0,0,0,.53.39.39,0,0,0,.53,0Z"/><path class="cls-10" d="M468.27,137.15a7,7,0,0,0-3.15-6.82c-.83-.47-2-.71-2.65,0a1.66,1.66,0,0,0-.31,1.54,3.84,3.84,0,0,0,.79,1.42,13.76,13.76,0,0,0,5.32,3.87"/><path class="cls-10" d="M469.06,136.84a7.63,7.63,0,0,0,5.05-1.89,1.68,1.68,0,0,0,.73-1.39,1.17,1.17,0,0,0-.8-.89,2.27,2.27,0,0,0-1.24,0,4.56,4.56,0,0,0-3.74,4.21"/><path class="cls-5" d="M464.93,132.67a12.74,12.74,0,0,1,3.95,7.84c.05.48.8.48.75,0a13.61,13.61,0,0,0-4.17-8.37c-.36-.33-.89.2-.53.53Z"/><path class="cls-5" d="M468.92,137.33l3.73-2.9a.38.38,0,0,0,0-.53.39.39,0,0,0-.53,0l-3.73,2.9a.37.37,0,1,0,.53.53Z"/><circle class="cls-11" cx="476.04" cy="70.4" r="10.76" transform="translate(304.55 520.02) rotate(-77.53)"/><path class="cls-12" d="M483.34,70.4a7.3,7.3,0,1,1-5.95-7.18,7.4,7.4,0,0,1,5.95,7.18.63.63,0,0,0,1.25,0,8.55,8.55,0,1,0-7,8.4,8.67,8.67,0,0,0,7-8.4A.63.63,0,0,0,483.34,70.4Z"/><path class="cls-12" d="M477.59,72.63a2.2,2.2,0,0,1-1.19.61v.23a.44.44,0,0,1-.12.3.41.41,0,0,1-.3.13.36.36,0,0,1-.29-.13.41.41,0,0,1-.12-.3v-.2a2.54,2.54,0,0,1-1.1-.4,1.83,1.83,0,0,1-.67-.75.9.9,0,0,1-.09-.34.44.44,0,0,1,.13-.32.48.48,0,0,1,.32-.13.4.4,0,0,1,.27.09.55.55,0,0,1,.18.24.94.94,0,0,0,.37.49,1.61,1.61,0,0,0,.61.27l0-1.94a3.26,3.26,0,0,1-1.18-.62,1.26,1.26,0,0,1-.43-1,1.42,1.42,0,0,1,.43-1.06,2,2,0,0,1,1.2-.53v-.19a.41.41,0,0,1,.12-.3.37.37,0,0,1,.28-.14.39.39,0,0,1,.3.14.42.42,0,0,1,.13.3v.18a2.18,2.18,0,0,1,1.14.41,1.1,1.1,0,0,1,.41.87.44.44,0,0,1-.13.33.38.38,0,0,1-.3.13.4.4,0,0,1-.28-.1.43.43,0,0,1-.13-.27.55.55,0,0,0-.22-.34,1.19,1.19,0,0,0-.51-.21l0,1.72c1.09.35,1.64.92,1.64,1.71A1.58,1.58,0,0,1,477.59,72.63Zm-2.53-3.42a1.77,1.77,0,0,0,.58.33V68.09a1.08,1.08,0,0,0-.58.25.58.58,0,0,0-.19.45A.58.58,0,0,0,475.06,69.21ZM477,72.07a.76.76,0,0,0,.22-.52.66.66,0,0,0-.18-.44,1.65,1.65,0,0,0-.62-.37V72.4A1.18,1.18,0,0,0,477,72.07Z"/><path class="cls-6" d="M467.06,71.42a8.44,8.44,0,0,1,4-8.53.63.63,0,0,0-.63-1.08,9.71,9.71,0,0,0-4.56,9.94c.13.79,1.33.45,1.2-.33Z"/><path class="cls-6" d="M472.18,62.2l.55-.22a.43.43,0,0,0,.21-.11.37.37,0,0,0,.16-.17.53.53,0,0,0,.08-.24.53.53,0,0,0,0-.25l-.07-.14a.61.61,0,0,0-.22-.23l-.15-.06a.62.62,0,0,0-.33,0l-.55.22a.53.53,0,0,0-.21.11.46.46,0,0,0-.16.18.49.49,0,0,0-.08.23.53.53,0,0,0,0,.25l.07.15a.58.58,0,0,0,.22.22l.15.06a.62.62,0,0,0,.33,0Z"/><path class="cls-6" d="M484,70.77a8.33,8.33,0,0,1-2.83,5.74.63.63,0,0,0,.89.88,9.62,9.62,0,0,0,3.19-6.62c.05-.8-1.2-.8-1.25,0Z"/><path class="cls-13" d="M479.78,113l26.68,15,3.73,2.11a5,5,0,1,0,5.05-8.63l-26.67-15.05-3.74-2.1a5,5,0,0,0-5.05,8.63Z"/><path class="cls-4" d="M500,121.35a3.34,3.34,0,0,1,2.23-4.31.37.37,0,0,0-.2-.72,4.08,4.08,0,0,0-2.76,5.23c.15.45.88.26.73-.2Z"/><path class="cls-4" d="M503.09,123.09a3.34,3.34,0,0,1,2.23-4.31.37.37,0,0,0-.2-.72,4.1,4.1,0,0,0-2.76,5.23c.15.45.88.26.73-.2Z"/><path class="cls-4" d="M506.12,124.82a3.34,3.34,0,0,1,2.23-4.31.37.37,0,0,0-.2-.72A4.09,4.09,0,0,0,505.4,125c.15.45.87.26.72-.2Z"/><path class="cls-4" d="M483,112a3.35,3.35,0,0,1,2.23-4.31.37.37,0,0,0-.2-.72,4.15,4.15,0,0,0-2.4,1.87,4.08,4.08,0,0,0-.35,3.36c.14.46.87.26.72-.2Z"/><path class="cls-4" d="M486.38,113.76a3.35,3.35,0,0,1,2.23-4.31.37.37,0,0,0-.2-.72,4.09,4.09,0,0,0-2.75,5.23c.15.45.87.26.72-.2Z"/><path class="cls-4" d="M489.79,115.69a3.34,3.34,0,0,1,2.23-4.31.37.37,0,0,0-.2-.72,4.18,4.18,0,0,0-2.4,1.86,4.11,4.11,0,0,0-.35,3.37c.14.45.87.26.72-.2Z"/><path class="cls-4" d="M493.19,117.6a3.33,3.33,0,0,1,2.23-4.3.38.38,0,0,0-.2-.73,4.21,4.21,0,0,0-2.41,1.87,4.17,4.17,0,0,0-.35,3.36c.15.46.88.26.73-.2Z"/><path class="cls-4" d="M496.72,119.53a3.39,3.39,0,0,1,.28-2.78,3.35,3.35,0,0,1,2-1.52c.46-.14.26-.87-.2-.73a4.21,4.21,0,0,0-2.41,1.87,4.17,4.17,0,0,0-.35,3.36c.15.46.88.26.72-.2Z"/><path class="cls-4" d="M488.86,148.87l40.33,23.59a16.29,16.29,0,0,0,16.37.06l40.29-23.19c5-3.26,4.23-11,2.73-14.23L542,110.88a6.24,6.24,0,0,0-6.38,0l-46.21,24.89c-.3-2.25-2.4,0-2.43.16C486,140.65,484.75,145.75,488.86,148.87Z"/><path class="cls-13" d="M502.7,151.43l-25.83,16.46-3.62,2.3c-2.2,1.41-3.29,4.52-1.79,6.85a5.08,5.08,0,0,0,6.84,1.79l25.82-16.45,3.62-2.31c2.21-1.41,3.3-4.51,1.8-6.84a5.07,5.07,0,0,0-6.84-1.8Z"/><path class="cls-4" d="M486,165a3.39,3.39,0,0,1,2.76,4.08c-.1.47.63.67.73.2a4.15,4.15,0,0,0-3.29-5c-.47-.08-.67.64-.2.73Z"/><path class="cls-4" d="M502.44,154.4a3.45,3.45,0,0,1,2.2,1.37,3.39,3.39,0,0,1,.56,2.71c-.1.47.63.67.73.2a4.15,4.15,0,0,0-3.29-5c-.47-.09-.67.63-.2.72Z"/><path class="cls-4" d="M499.25,156.52a3.46,3.46,0,0,1,2.2,1.36,3.5,3.5,0,0,1,.56,2.72c-.1.47.62.67.72.2a4.14,4.14,0,0,0-3.28-5c-.47-.09-.68.64-.2.73Z"/><path class="cls-4" d="M495.87,158.6a3.4,3.4,0,0,1,2.76,4.08c-.1.47.62.68.73.2a4.15,4.15,0,0,0-3.29-5c-.47-.09-.67.63-.2.72Z"/><path class="cls-4" d="M492.58,160.85a3.4,3.4,0,0,1,2.76,4.08c-.1.47.62.68.72.2a4.15,4.15,0,0,0-3.28-5c-.48-.09-.68.63-.2.72Z"/><path class="cls-4" d="M489.19,163.06a3.46,3.46,0,0,1,2.2,1.36,3.5,3.5,0,0,1,.56,2.72c-.1.47.62.67.72.2a4.14,4.14,0,0,0-3.28-5c-.47-.08-.68.64-.2.73Z"/><path class="cls-13" d="M586.85,105.58,561,122l-3.62,2.31a5,5,0,1,0,5,8.63l25.83-16.45,3.62-2.31c2.2-1.4,3.3-4.51,1.79-6.84a5.07,5.07,0,0,0-6.84-1.79Z"/><path class="cls-4" d="M570.19,119.13a3.4,3.4,0,0,1,2.76,4.08c-.1.47.62.67.72.2a4.13,4.13,0,0,0-3.28-5c-.47-.09-.68.63-.2.72Z"/><path class="cls-4" d="M586.6,108.54a3.4,3.4,0,0,1,2.76,4.09c-.1.47.62.67.72.2a4.14,4.14,0,0,0-3.28-5c-.47-.09-.68.64-.2.72Z"/><path class="cls-4" d="M583.4,110.66a3.45,3.45,0,0,1,2.2,1.37,3.39,3.39,0,0,1,.56,2.71c-.1.47.63.67.73.2a4.2,4.2,0,0,0-.64-3.29,4.14,4.14,0,0,0-2.65-1.71c-.47-.09-.67.63-.2.72Z"/><path class="cls-4" d="M580,112.75a3.46,3.46,0,0,1,2.2,1.36,3.5,3.5,0,0,1,.56,2.72c-.1.47.62.67.72.2a4.14,4.14,0,0,0-3.28-5c-.48-.09-.68.64-.2.73Z"/><path class="cls-4" d="M576.73,115a3.39,3.39,0,0,1,2.76,4.08c-.1.47.62.67.73.2a4.15,4.15,0,0,0-3.29-5c-.47-.08-.67.64-.2.73Z"/><path class="cls-4" d="M573.34,117.2a3.49,3.49,0,0,1,2.21,1.37,3.43,3.43,0,0,1,.55,2.71c-.1.47.63.67.73.2a4.15,4.15,0,0,0-3.29-5c-.47-.09-.67.63-.2.72Z"/><path class="cls-13" d="M564.24,161.79l27.2,14.06,3.82,2c2.32,1.2,5.53.68,6.84-1.79,1.21-2.29.68-5.56-1.8-6.84l-27.2-14.05-3.82-2c-2.32-1.2-5.53-.68-6.84,1.79-1.21,2.29-.68,5.56,1.8,6.84Z"/><path class="cls-4" d="M584.39,169.41a3.42,3.42,0,0,1,.18-2.8,3.47,3.47,0,0,1,2-1.63c.46-.15.26-.87-.2-.72a4.15,4.15,0,0,0-2.67,5.35c.16.45.89.26.73-.2Z"/><path class="cls-4" d="M587.78,171.1a3.41,3.41,0,0,1,2.15-4.44c.46-.15.26-.87-.2-.72a4.27,4.27,0,0,0-2.41,2,4.22,4.22,0,0,0-.26,3.39c.16.45.89.25.72-.2Z"/><path class="cls-4" d="M591.18,172.78a3.39,3.39,0,0,1,2.15-4.43c.46-.15.26-.88-.2-.73a4.15,4.15,0,0,0-2.67,5.36c.16.45.88.26.72-.2Z"/><path class="cls-4" d="M594.58,174.47a3.49,3.49,0,0,1,.19-2.81,3.44,3.44,0,0,1,2-1.63c.45-.15.26-.87-.2-.72a4.13,4.13,0,0,0-2.67,5.35c.16.46.88.26.72-.19Z"/><path class="cls-4" d="M567,160.55a3.39,3.39,0,0,1,2.14-4.44c.46-.15.27-.87-.2-.72a4.16,4.16,0,0,0-2.67,5.36c.16.45.89.25.73-.2Z"/><path class="cls-4" d="M570.42,162.25a3.49,3.49,0,0,1,.19-2.81,3.44,3.44,0,0,1,2-1.63c.45-.15.26-.87-.2-.72a4.14,4.14,0,0,0-2.67,5.36c.16.45.88.25.72-.2Z"/><path class="cls-4" d="M573.92,164.12a3.41,3.41,0,0,1,2.15-4.44c.46-.15.26-.87-.2-.72a4.14,4.14,0,0,0-2.67,5.36c.16.45.88.25.72-.2Z"/><path class="cls-4" d="M577.53,165.84a3.39,3.39,0,0,1,2.14-4.44c.46-.15.26-.87-.2-.72a4.27,4.27,0,0,0-2.41,2,4.2,4.2,0,0,0-.26,3.38c.16.46.89.26.73-.19Z"/><path class="cls-4" d="M581.13,167.66a3.41,3.41,0,0,1,2.15-4.44c.46-.15.26-.87-.2-.72a4.14,4.14,0,0,0-2.67,5.36c.16.45.88.25.72-.2Z"/><path class="cls-8" d="M490.16,142.32l39.69,23.22a14.93,14.93,0,0,0,15,.06l40.66-23.4a7.15,7.15,0,0,0,.13-12.32l-43.24-26a7.14,7.14,0,0,0-7.28,0L490.17,130A7.14,7.14,0,0,0,490.16,142.32Z"/><ellipse class="cls-13" cx="537.94" cy="136.65" rx="27.19" ry="12.49"/><circle class="cls-14" cx="537.6" cy="114.81" r="30.1" transform="translate(310.23 615.31) rotate(-77.62)"/><path class="cls-15" d="M536.9,84.26a25,25,0,0,0-14.18,6,28.83,28.83,0,0,0-7.45,10.66,35.36,35.36,0,0,0-1.91,18.75,34.91,34.91,0,0,0,7.07,16.9,23,23,0,0,0,17.18,8.74.63.63,0,0,0,0-1.25,21.48,21.48,0,0,1-15.08-7,31.76,31.76,0,0,1-7.59-15.64c-2.06-10.19-.14-21.41,7.33-29a23.52,23.52,0,0,1,14.63-6.86c.79-.08.8-1.33,0-1.25Z"/><path class="cls-15" d="M536.58,84.35C528.75,88.94,524.14,98,523,106.74a73.78,73.78,0,0,0,0,16.34c.47,4.8,1.31,10.1,3.93,14.25,2.49,3.95,6.52,6.5,10.79,8.18.75.29,1.08-.92.33-1.21-3.72-1.47-7.32-3.67-9.65-7-2.68-3.86-3.58-9-4.08-13.54a79.66,79.66,0,0,1-.31-14.73,31.53,31.53,0,0,1,3.66-13.25c2.28-4,5.45-8,9.49-10.35a.63.63,0,0,0-.63-1.08Z"/><path class="cls-15" d="M538.56,144.65a388.07,388.07,0,0,1-1.5-46.75q.15-6.51.46-13c0-.8-1.21-.8-1.25,0a445.1,445.1,0,0,0,0,46.78q.38,6.5,1,13c.08.79,1.33.8,1.25,0Z"/><path class="cls-15" d="M538.38,145.35c7.89-6.24,14-15.08,15.35-25.18a43.91,43.91,0,0,0-.63-14.37,34.46,34.46,0,0,0-5-12.51,24.34,24.34,0,0,0-10.68-8.94c-.74-.31-1.37.77-.63,1.08,7.95,3.37,12.68,10.76,14.67,18.94,2.29,9.42,1.63,19.31-3.23,27.81a43,43,0,0,1-10.78,12.28c-.64.5.25,1.38.88.89Z"/><path class="cls-15" d="M537.15,85.51c4.84,0,9.61,2.44,13.49,5.18a22.81,22.81,0,0,1,9,11.9,37.49,37.49,0,0,1,.89,17.77c-1,5.57-3,11.33-6.76,15.64a25.31,25.31,0,0,1-15.8,8.28c-.79.08-.8,1.34,0,1.25a26.93,26.93,0,0,0,15-6.93c4.48-4.08,7.06-10,8.36-15.82a40.94,40.94,0,0,0,.1-18.49,23.87,23.87,0,0,0-8.52-13.47c-4.36-3.47-10-6.51-15.72-6.56a.63.63,0,0,0,0,1.25Z"/><path class="cls-15" d="M511.42,99.37c2.81,6.6,10.47,9.56,17.06,10.64a43.81,43.81,0,0,0,24.57-3,25.54,25.54,0,0,0,10.23-7.92c.48-.65-.6-1.27-1.07-.63-4.61,6.22-12.5,9.22-19.91,10.34s-15.82.63-22.6-2.89a14.89,14.89,0,0,1-7.2-7.21c-.32-.73-1.4-.1-1.08.64Z"/><path class="cls-15" d="M511.51,130.94c10.78,10.57,28.57,12.58,42.19,6.82a31.09,31.09,0,0,0,10.19-6.82c.57-.57-.32-1.46-.88-.88-10.13,10.3-27.37,12-40.34,6.68a31.67,31.67,0,0,1-10.27-6.68c-.58-.57-1.46.32-.89.88Z"/><path class="cls-15" d="M507.26,115.75a22.24,22.24,0,0,0,7.07,5.51,47.35,47.35,0,0,0,11.1,4.23,49.62,49.62,0,0,0,27.83-.7,40.47,40.47,0,0,0,14.88-9c.58-.55-.31-1.44-.89-.88-13.49,12.86-35,14-51.23,5.86a22.68,22.68,0,0,1-7.87-5.86c-.5-.63-1.38.26-.89.88Z"/><path class="cls-16" d="M552.13,72.64a14.71,14.71,0,1,0-27.39,7.43h0l0,.05c.56.95,1.27,1.63,2,2.63l8.55,11.32a2.65,2.65,0,0,0,4.24,0l8.4-11.13a31.91,31.91,0,0,0,2.14-2.83l0,0h0A14.64,14.64,0,0,0,552.13,72.64ZM537.42,79a6.48,6.48,0,1,1,6.47-6.47A6.48,6.48,0,0,1,537.42,79Z"/><path class="cls-17" d="M525.2,45.94c-.1.13.08-.1,0,0l-.1.11-.18.23-.44.51a14.28,14.28,0,0,1-1.12,1.08,12,12,0,0,1-3.17,2,.62.62,0,0,0-.22.85.63.63,0,0,0,.85.22,13.66,13.66,0,0,0,5.48-4.36.63.63,0,0,0-1.08-.63Z"/><path class="cls-18" d="M565.85,21.52c-.69.63-15.2,10-15.2,10s-13.87-4.42-22,4-8.09,20.19-5.29,24.07,7.13,2.52,7.82-.91-2.2-8.54,2.34-11.31,9.28-3,11.79,3.43c1.49,3.82,16.5-.72,16.5-.72l15.69-7.6C577.46,33,573.11,24.05,565.85,21.52Z"/><path class="cls-18" d="M536.84,68.2c-1.52-.71-1.62-2.29-1.05-3.87A9.14,9.14,0,0,1,539,60.57a13.84,13.84,0,0,0,3.63-3.44,28.67,28.67,0,0,0,2.3-6.35c.42-1.69.4-2.06,1.88-3s3.38-.77,5.08-.41a24.6,24.6,0,0,1,5.53,1.9,1.8,1.8,0,0,0,2.3-.33c8.37-10.52,2.53,2,.49,5.5A19.16,19.16,0,0,1,558.11,57C553,63.12,540.65,70.53,536.84,68.2"/><path class="cls-18" d="M513.09,51.76A9.81,9.81,0,0,0,510.71,55a3.5,3.5,0,0,0,.62,3.74,3.93,3.93,0,0,0,3.44.67c3.46-.7,6-3.62,8.19-6.36l3.17-12.93C521.68,43.86,517.22,47.64,513.09,51.76Z"/><path class="cls-18" d="M533.93,35.59a64.53,64.53,0,0,0-22.24,10.1,4.72,4.72,0,0,0-2,2.25,3.1,3.1,0,0,0,1.5,3.36,5.94,5.94,0,0,0,3.83.58"/><path class="cls-18" d="M542.74,31.19a64.46,64.46,0,0,0-23.92,5,4.75,4.75,0,0,0-2.45,1.76,3.09,3.09,0,0,0,.73,3.6,5.94,5.94,0,0,0,3.61,1.41"/><path class="cls-17" d="M522.93,57.34a20.89,20.89,0,0,1-.28-9.66,27.58,27.58,0,0,1,2.44-6.36,18.44,18.44,0,0,1,10.34-9.23c.75-.28.43-1.49-.33-1.21A19.76,19.76,0,0,0,524,40.69a28.38,28.38,0,0,0-2.66,7.09,22.37,22.37,0,0,0,.38,9.9.62.62,0,0,0,1.2-.34Z"/><path class="cls-17" d="M523.72,41.38a61.63,61.63,0,0,0-12.26,11.38A6.85,6.85,0,0,0,509.73,56a3.48,3.48,0,0,0,.77,2.77c1.59,1.86,4.22,1.77,6.25.79a20.18,20.18,0,0,0,5.43-4.62c.55-.59-.33-1.48-.88-.89a18.91,18.91,0,0,1-5.18,4.43,4.19,4.19,0,0,1-3.92.09,2.48,2.48,0,0,1-.84-3.55,20.77,20.77,0,0,1,2.77-3.51c1-1.09,2-2.14,3.07-3.15a76.34,76.34,0,0,1,7.15-5.89c.64-.47,0-1.56-.63-1.08Z"/><path class="cls-17" d="M527.57,35.68c-4.62,1.9-8.68,4.68-13,7.18-2.36,1.37-6.3,3.39-5.44,6.73.4,1.56,2.37,3.27,4.1,2.78a.63.63,0,0,0-.33-1.21,2.69,2.69,0,0,1-2.14-1,2.44,2.44,0,0,1,.14-3.1,15.65,15.65,0,0,1,3.92-2.87c4.3-2.52,8.41-5.36,13-7.27.73-.3.41-1.51-.33-1.21Z"/><path class="cls-17" d="M516.32,39.51a5.35,5.35,0,0,0,5.13-3.64.63.63,0,0,0-.43-.77.64.64,0,0,0-.77.44,4.1,4.1,0,0,1-1.49,2,5.08,5.08,0,0,1-.59.35l-.15.07c-.18.09.1,0-.09,0l-.31.11a5.32,5.32,0,0,1-.69.16c.09,0,0,0-.06,0h-.55a.63.63,0,0,0-.63.62.64.64,0,0,0,.63.63Z"/><path class="cls-17" d="M527.63,61.21a5.89,5.89,0,0,0-1.93-4.28,3,3,0,0,0-3.8.09.6.6,0,0,0-.16.6c.94,3.07,4.22,5.91,7.55,4.57,2.76-1.11,2.62-4.26,2.59-6.75,0-1.49-.06-3-.17-4.48a.8.8,0,0,1,0-.56,6.65,6.65,0,0,1,.55-1.1,8.56,8.56,0,0,1,7.94-3.76c.81,0,.8-1.21,0-1.25a10,10,0,0,0-7.41,2.46c-1,1-2.39,2.52-2.39,4,0,1.24.14,2.5.16,3.75,0,1.6.35,3.68-.37,5.17a2.7,2.7,0,0,1-1.71,1.44,2.27,2.27,0,0,1-.25.06c.31-.07-.31,0-.37,0a4.29,4.29,0,0,1-1.84-.26,5.82,5.82,0,0,1-3.13-3.67l-.16.61a1.83,1.83,0,0,1,2.56.39,5.25,5.25,0,0,1,1,2.92c.1.78,1.35.79,1.25,0Z"/><path class="cls-17" d="M509.74,49.59a3.93,3.93,0,0,0,3.3-1.31,4,4,0,0,0,.87-3.54.62.62,0,0,0-.76-.43.63.63,0,0,0-.44.77,2.74,2.74,0,0,1-.59,2.37,3.24,3.24,0,0,1-.47.42l-.33.19-.14.07s0,0,0,0l-.09,0a3.52,3.52,0,0,1-.71.18c.12,0-.08,0-.08,0h-.19a2.42,2.42,0,0,1-.38,0,.63.63,0,0,0,0,1.25Z"/><path class="cls-17" d="M511.25,58.55a6.51,6.51,0,0,0,2.57-2.95,3.46,3.46,0,0,0-.57-3.51.62.62,0,0,0-.88,0,.63.63,0,0,0,0,.88,2.27,2.27,0,0,1,.23,2.33,5.31,5.31,0,0,1-2,2.17.64.64,0,0,0-.22.85.62.62,0,0,0,.85.23Z"/><path class="cls-17" d="M536.13,67.64a7.59,7.59,0,0,1,3.1-.71,2,2,0,0,1,1.14.4,1,1,0,0,1,.49.81.63.63,0,0,0,.76.44.65.65,0,0,0,.44-.77,2.75,2.75,0,0,0-2.48-2.1,7.72,7.72,0,0,0-3.78.72.65.65,0,0,0-.44.77.64.64,0,0,0,.77.44Z"/><path class="cls-17" d="M558.84,57.41a17.94,17.94,0,0,0,5-12.6.63.63,0,0,0-1.25,0A16.61,16.61,0,0,1,558,56.52c-.56.58.33,1.47.89.89Z"/><line class="cls-19" x1="446.93" y1="226.86" x2="446.93" y2="237.3"/><polyline class="cls-19" points="445.34 236 447.06 237.29 448.51 236"/><path class="cls-4" d="M622.19,44.78l-.14-7.48a1.77,1.77,0,0,0-.9-1.49L612.52,31a1.75,1.75,0,0,0-1.73,0l-19.9,11.76a1.76,1.76,0,0,0-.86,1.54l.14,7.45a1.77,1.77,0,0,0,.9,1.49l8.76,4.88a1.74,1.74,0,0,0,1.74,0l19.77-11.8A1.77,1.77,0,0,0,622.19,44.78Z"/><path class="cls-20" d="M600.3,48.78h0l-.19.32h0l-.55-.22c0-.21,0,.14,0,.21l0,.71.09,2.29.21,5c0,.39,0,.79,0,1.18s.77.48.75,0q-.16-4.18-.34-8.36a9.07,9.07,0,0,0-.06-1.28.38.38,0,0,0-.74.1c0,.48.71.48.75,0Z"/><path class="cls-14" d="M597.22,47.05h0l-.19.32h0l-.55-.22c0-.21,0,.14,0,.21,0,.23,0,.47,0,.71l.09,2.29c.07,1.68.14,3.36.2,5,0,.39,0,.78.05,1.18s.77.48.75,0q-.17-4.19-.34-8.37A9,9,0,0,0,597.2,47a.38.38,0,0,0-.55-.23.41.41,0,0,0-.18.33c0,.48.71.48.75,0Z"/><path class="cls-14" d="M593.58,45h0l-.19.32h0l-.55-.22c0-.21,0,.14,0,.21l0,.71L593,48.3l.21,5.05c0,.39,0,.79,0,1.18s.77.48.75,0l-.33-8.37a10.81,10.81,0,0,0-.07-1.27.38.38,0,0,0-.55-.22.37.37,0,0,0-.19.32c0,.48.71.48.75,0Z"/><path class="cls-14" d="M603.46,46.94h0l-.19.32h0l-.55-.22c0-.21,0,.14,0,.21l0,.71.09,2.29.21,5c0,.39,0,.79,0,1.18s.77.48.75,0q-.17-4.18-.34-8.37a9,9,0,0,0-.06-1.27.38.38,0,0,0-.74.1c0,.48.71.48.75,0Z"/><path class="cls-14" d="M606.72,45.24h0l-.18.32h0l-.56-.22c0-.21,0,.14,0,.21l0,.71.09,2.29.21,5.05c0,.39,0,.78,0,1.18a.38.38,0,0,0,.75,0c-.12-2.79-.22-5.58-.34-8.37a10.81,10.81,0,0,0-.07-1.27.38.38,0,0,0-.55-.23.42.42,0,0,0-.19.33c0,.48.71.48.75,0Z"/><path class="cls-14" d="M610,43.54h0l-.18.32h0l-.55-.22c0-.21,0,.14,0,.2l0,.71c0,.77.07,1.53.1,2.3.07,1.68.13,3.36.2,5,0,.39,0,.78,0,1.18s.77.48.75,0q-.17-4.19-.34-8.37a8.93,8.93,0,0,0-.07-1.27.38.38,0,0,0-.55-.23.4.4,0,0,0-.19.33c0,.48.71.48.75,0Z"/><path class="cls-14" d="M613.25,41.42h0l-.19.32h0l-.55-.22c0-.21,0,.14,0,.2l0,.72c0,.76.07,1.52.1,2.29.07,1.68.14,3.36.2,5.05,0,.39,0,.78,0,1.18s.77.48.75,0q-.17-4.18-.34-8.37a9,9,0,0,0-.07-1.27.37.37,0,0,0-.55-.23.39.39,0,0,0-.18.33c0,.48.71.48.75,0Z"/><path class="cls-14" d="M616.51,39.28h0l-.19.33h0l-.55-.23c0-.21,0,.14,0,.21l0,.71.09,2.29.21,5c0,.4,0,.79,0,1.18s.77.49.75,0q-.17-4.18-.34-8.36a9.07,9.07,0,0,0-.06-1.28.38.38,0,0,0-.74.1c0,.49.71.48.75,0Z"/><path class="cls-14" d="M619.77,37.58h0l-.18.32h0l-.55-.22c0-.21,0,.14,0,.21l0,.71c0,.76.06,1.53.1,2.29.06,1.68.13,3.37.2,5,0,.39,0,.79,0,1.18s.77.48.75,0q-.17-4.18-.34-8.36a10.86,10.86,0,0,0-.07-1.28.38.38,0,0,0-.55-.22.39.39,0,0,0-.19.32c0,.48.71.48.75,0Z"/><path class="cls-20" d="M621.29,36.13c.13-.35.09-.13-.2,0s-.65.38-1,.56q-1.54.9-3.09,1.77-4.34,2.48-8.67,4.91l-7.15,4a6,6,0,0,0-1.45.81c.15-.18.49.14,0-.19s-1-.55-1.56-.82l-7.75-4.08c-.42-.23-.8.42-.37.64l7.18,3.79a11.22,11.22,0,0,0,2.51,1.33c.44.08.81-.24,1.19-.46q8.07-4.55,16.12-9.11l3.56-2c.38-.22,1.23-.52,1.4-1s-.55-.64-.72-.2Z"/><path class="cls-4" d="M541.64,221.62l-.14-7.48a1.71,1.71,0,0,0-.9-1.48L532,207.84a1.73,1.73,0,0,0-1.73,0l-19.9,11.76a1.74,1.74,0,0,0-.86,1.53l.15,7.45a1.74,1.74,0,0,0,.89,1.49l8.76,4.88a1.72,1.72,0,0,0,1.74,0l19.77-11.81A1.74,1.74,0,0,0,541.64,221.62Z"/><path class="cls-20" d="M519.75,225.63h0l-.19.33h0l-.56-.23c0-.21,0,.14,0,.21l0,.71.09,2.29.21,5c0,.4,0,.79,0,1.18s.77.49.75,0c-.11-2.79-.21-5.57-.33-8.36a11,11,0,0,0-.07-1.28.38.38,0,0,0-.55-.22.4.4,0,0,0-.19.33c0,.48.71.47.75,0Z"/><path class="cls-14" d="M516.67,223.89h0l-.19.32h0l-.55-.22c0-.21,0,.14,0,.21l0,.71.09,2.29.21,5.05c0,.39,0,.79,0,1.18s.77.48.75,0q-.16-4.19-.34-8.37a9,9,0,0,0-.06-1.27.38.38,0,0,0-.55-.22.37.37,0,0,0-.19.32c0,.48.71.48.75,0Z"/><path class="cls-14" d="M513,221.84h0l-.18.33h0l-.55-.23c0-.21,0,.14,0,.21l0,.71c0,.76.07,1.53.1,2.29.07,1.69.13,3.37.2,5.05,0,.4,0,.79,0,1.18s.77.49.75,0c-.11-2.79-.22-5.57-.34-8.36a10.86,10.86,0,0,0-.07-1.28.38.38,0,0,0-.55-.22.4.4,0,0,0-.19.33c0,.48.71.47.75,0Z"/><path class="cls-14" d="M522.91,223.78h0l-.19.33h0l-.56-.23c0-.21,0,.14,0,.21l0,.71.09,2.29.21,5c0,.4,0,.79,0,1.18s.77.49.75,0c-.11-2.79-.21-5.57-.33-8.36a10.86,10.86,0,0,0-.07-1.28.38.38,0,0,0-.55-.22.39.39,0,0,0-.19.32c0,.49.71.48.75,0Z"/><path class="cls-14" d="M526.17,222.08h0l-.18.32h0l-.55-.22c0-.21,0,.14,0,.21l0,.71c0,.76.07,1.53.1,2.29.07,1.68.13,3.37.2,5.05,0,.39,0,.79.05,1.18s.77.48.75,0q-.17-4.19-.34-8.36a9.07,9.07,0,0,0-.07-1.28.37.37,0,0,0-.55-.22.39.39,0,0,0-.19.32c0,.48.71.48.75,0Z"/><path class="cls-14" d="M529.44,220.38h0l-.19.32h0l-.55-.22c0-.21,0,.14,0,.21l0,.71c0,.76.07,1.52.1,2.29.07,1.68.14,3.37.2,5.05,0,.39,0,.79.05,1.18s.77.48.75,0q-.17-4.18-.34-8.37a9,9,0,0,0-.07-1.27.38.38,0,0,0-.55-.23.41.41,0,0,0-.18.33c-.05.48.7.48.75,0Z"/><path class="cls-14" d="M532.7,218.26h0l-.19.32h0l-.55-.22c0-.21,0,.14,0,.21l0,.71.09,2.29.21,5.05c0,.39,0,.79,0,1.18s.77.48.75,0q-.17-4.19-.34-8.37a9,9,0,0,0-.06-1.27.38.38,0,0,0-.74.1c0,.48.71.48.75,0Z"/><path class="cls-14" d="M536,216.13h0l-.18.33h0l-.56-.23c0-.21,0,.14,0,.21l0,.71c0,.77.06,1.53.1,2.29.06,1.69.13,3.37.2,5,0,.4,0,.79.05,1.18a.38.38,0,0,0,.75,0q-.17-4.17-.34-8.36A11,11,0,0,0,536,216a.38.38,0,0,0-.55-.22.4.4,0,0,0-.19.33c0,.48.71.48.75,0Z"/><path class="cls-14" d="M539.22,214.43h0l-.18.33h0l-.55-.23c0-.21,0,.14,0,.21l0,.71c0,.76.07,1.53.1,2.29.07,1.69.13,3.37.2,5.05,0,.4,0,.79,0,1.18s.77.49.75,0c-.11-2.79-.22-5.57-.34-8.36a9.07,9.07,0,0,0-.07-1.28.38.38,0,0,0-.55-.22.42.42,0,0,0-.19.33c0,.48.71.47.75,0Z"/><path class="cls-20" d="M540.74,213c.14-.34.09-.12-.2,0s-.64.38-1,.56l-3.09,1.78-8.66,4.91-7.16,4a5.9,5.9,0,0,0-1.45.82c.16-.19.49.13,0-.2s-1-.55-1.55-.82L509.88,220c-.43-.23-.81.42-.38.65l7.18,3.78a11.07,11.07,0,0,0,2.52,1.33c.43.08.8-.24,1.18-.46,5.38-3,10.76-6,16.13-9.11l3.56-2c.37-.22,1.22-.52,1.39-1s-.54-.64-.72-.2Z"/><path class="cls-3" d="M539.67,210.08l-.15-7.48a1.74,1.74,0,0,0-.89-1.49L530,196.3a1.75,1.75,0,0,0-1.73,0l-19.9,11.76a1.76,1.76,0,0,0-.86,1.53l.14,7.46a1.78,1.78,0,0,0,.9,1.49l8.76,4.88a1.74,1.74,0,0,0,1.74,0l19.77-11.8A1.77,1.77,0,0,0,539.67,210.08Z"/><path class="cls-20" d="M517.78,214.08h0l-.19.32h0l-.55-.22c0-.21,0,.14,0,.21l0,.71.09,2.29.21,5.05c0,.39,0,.79,0,1.18s.77.48.75,0q-.17-4.19-.34-8.37a7.73,7.73,0,0,0-.07-1.27.37.37,0,0,0-.55-.22.38.38,0,0,0-.18.32c0,.48.71.48.75,0Z"/><path class="cls-21" d="M514.7,212.35h0l-.19.32h0l-.55-.22c0-.21,0,.14,0,.2,0,.24,0,.48,0,.72l.09,2.29c.07,1.68.14,3.36.2,5.05,0,.39,0,.78.05,1.18s.77.48.75,0q-.17-4.19-.34-8.37a9,9,0,0,0-.07-1.27.37.37,0,0,0-.55-.23.39.39,0,0,0-.18.33c0,.48.71.48.75,0Z"/><path class="cls-21" d="M511.06,210.29h0l-.19.32h0l-.55-.22c0-.21,0,.14,0,.21l0,.71.09,2.29.21,5.05c0,.39,0,.79,0,1.18s.77.48.75,0l-.33-8.37a10.81,10.81,0,0,0-.07-1.27.38.38,0,0,0-.55-.22.37.37,0,0,0-.19.32c0,.48.71.48.75,0Z"/><path class="cls-21" d="M520.94,212.24h0l-.19.32h0l-.55-.22c0-.21,0,.14,0,.21l0,.71.09,2.29.21,5c0,.39,0,.79,0,1.18s.77.48.75,0q-.17-4.18-.34-8.37a7.73,7.73,0,0,0-.07-1.27.38.38,0,0,0-.55-.23.41.41,0,0,0-.18.33c0,.48.71.48.75,0Z"/><path class="cls-21" d="M524.2,210.54h0l-.19.32h0l-.56-.22c0-.21,0,.14,0,.2l0,.72.09,2.29.21,5.05c0,.39,0,.78.05,1.18a.38.38,0,0,0,.75,0c-.12-2.79-.22-5.58-.34-8.37a10.81,10.81,0,0,0-.07-1.27.38.38,0,0,0-.55-.23.4.4,0,0,0-.19.33c0,.48.71.48.75,0Z"/><path class="cls-21" d="M527.46,208.84h0l-.18.32h0l-.55-.23c0-.21,0,.14,0,.21l0,.71c0,.77.07,1.53.1,2.29.07,1.69.13,3.37.2,5.06,0,.39,0,.78.05,1.18s.77.48.75,0q-.17-4.19-.34-8.37a8.93,8.93,0,0,0-.07-1.27.38.38,0,0,0-.55-.23.4.4,0,0,0-.19.33c0,.48.71.48.75,0Z"/><path class="cls-21" d="M530.73,206.72h0l-.19.32h0l-.55-.22c0-.22,0,.14,0,.2l0,.71c0,.77.07,1.53.1,2.29.07,1.69.14,3.37.2,5.06,0,.39,0,.78,0,1.18s.77.48.75,0q-.17-4.19-.34-8.37a8.93,8.93,0,0,0-.07-1.27.37.37,0,0,0-.55-.23.39.39,0,0,0-.18.33c0,.48.71.48.75,0Z"/><path class="cls-21" d="M534,204.58h0l-.19.32h0l-.55-.22c0-.21,0,.14,0,.21l0,.71.09,2.29.21,5.05c0,.39,0,.79,0,1.18s.77.48.75,0q-.17-4.19-.34-8.36a9.07,9.07,0,0,0-.06-1.28.38.38,0,0,0-.74.1c0,.48.71.48.75,0Z"/><path class="cls-21" d="M537.25,202.88h0l-.18.32h0l-.55-.22c0-.21,0,.14,0,.21l0,.71c0,.76.06,1.52.1,2.29.06,1.68.13,3.37.2,5.05,0,.39,0,.79,0,1.18a.38.38,0,0,0,.75,0q-.17-4.18-.34-8.37a10.81,10.81,0,0,0-.07-1.27.38.38,0,0,0-.55-.22.39.39,0,0,0-.19.32c0,.48.71.48.75,0Z"/><path class="cls-20" d="M538.77,201.43c.13-.35.09-.13-.2,0s-.65.38-1,.56c-1,.6-2.06,1.18-3.09,1.77q-4.34,2.47-8.67,4.91l-7.15,4a5.7,5.7,0,0,0-1.45.81c.15-.19.49.14,0-.19s-1-.55-1.56-.82l-7.75-4.08c-.42-.23-.8.42-.37.64l7.18,3.79a10.78,10.78,0,0,0,2.51,1.32c.44.09.81-.24,1.19-.45q8.07-4.55,16.12-9.11c1.19-.68,2.38-1.36,3.56-2,.38-.21,1.23-.52,1.4-1s-.55-.64-.72-.2Z"/><path class="cls-5" d="M453.29,197.54a2.43,2.43,0,0,0,.95,2.18l1.9,1.09c.62.35.22-.44,1.16-1a7.53,7.53,0,0,0,3.42-5.9c0-1.07,1-1.08.38-1.43l-2-1.12a2.45,2.45,0,0,0-2.39.27A7.54,7.54,0,0,0,453.29,197.54Z"/><path class="cls-4" d="M455.27,198.67c0,2.17,1.53,3,3.41,2a7.53,7.53,0,0,0,3.42-5.9c0-2.17-1.53-3-3.42-1.95A7.55,7.55,0,0,0,455.27,198.67Z"/><path class="cls-13" d="M458.71,194.33a4.86,4.86,0,0,0-2.21,3.81c0,1.4,1,2,2.21,1.26a4.86,4.86,0,0,0,2.21-3.81C460.92,194.19,459.93,193.63,458.71,194.33Z"/><path class="cls-5" d="M479.5,181.49a2.4,2.4,0,0,0,1,2.17l1.9,1.1c.61.34.22-.44,1.16-1a7.55,7.55,0,0,0,3.42-5.9c0-1.07,1-1.08.38-1.44l-2-1.11a2.42,2.42,0,0,0-2.39.26A7.53,7.53,0,0,0,479.5,181.49Z"/><path class="cls-4" d="M481.48,182.61c0,2.17,1.53,3,3.42,1.95a7.53,7.53,0,0,0,3.42-5.9c0-2.16-1.53-3-3.42-1.95A7.53,7.53,0,0,0,481.48,182.61Z"/><path class="cls-13" d="M484.93,178.27a4.89,4.89,0,0,0-2.21,3.81c0,1.4,1,2,2.21,1.26a4.86,4.86,0,0,0,2.21-3.81C487.14,178.13,486.15,177.57,484.93,178.27Z"/><polygon class="cls-5" points="442.77 199.8 442.77 203.32 428.69 193.37 428.69 191.75 442.77 199.8"/><path class="cls-5" d="M480,162l-51.34,29.8,14.08,8.05h0v3.52L493.48,174a1.27,1.27,0,0,0,.64-1.11v-1.95a1.62,1.62,0,0,0-.82-1.41Z"/><path class="cls-4" d="M492.2,155.06a2.36,2.36,0,0,0-1.18-2l-.39-.21-47.89,28.91L430.3,174h0a1.94,1.94,0,0,0-1,1.68v15.53l13.53,7.7h0l49.33-28.69Z"/><path class="cls-14" d="M430.17,175.08l11.56,6.6a2.27,2.27,0,0,0,2.28,0l47.33-27.47a.57.57,0,0,0,0-1L480,146.72a2.6,2.6,0,0,0-2.6,0l-47.19,27.39A.55.55,0,0,0,430.17,175.08Z"/><path class="cls-21" d="M441.91,188.69l-10.75-6.21a4,4,0,0,0-3.71-.14l-5.56,2.7a10,10,0,0,0-5.12,6.13l-.74,2.61a27.57,27.57,0,0,0-.71,5.66v6l0,0,13.13,7.44.06,0v-5.28a19.08,19.08,0,0,1,.89-5.76l1.68-5.33a4.79,4.79,0,0,1,2.2-2.72l8.61-5Z"/><path class="cls-21" d="M428.52,207.55v5.37l7.07-4,.55-3.12,5.82-3.47V188.72l-8.69,5.07a4.72,4.72,0,0,0-2.21,2.73l-1.66,5.32A19.12,19.12,0,0,0,428.52,207.55Z"/><path class="cls-5" d="M426.52,203.8h0c0,2.73-2.87,4-5.27,2.68l-.17-.1a6.88,6.88,0,0,1-3.9-6v-.86a.87.87,0,0,1,1.29-.74l7.62,4.33A.85.85,0,0,1,426.52,203.8Z"/><path class="cls-4" d="M437.61,199.25l-.77.45a.55.55,0,0,0-.27.48v0a.25.25,0,0,0,.38.22l.7-.4a.54.54,0,0,0,.26-.46v-.15A.2.2,0,0,0,437.61,199.25Z"/><path class="cls-5" d="M432.09,212.88l.29-1.06a9.17,9.17,0,0,1,1.24-4.6h0a9.07,9.07,0,0,1,3.34-3.34l1.36-.78-2.17-1-1.3.64a9.14,9.14,0,0,0-3.34,3.34h0a9.17,9.17,0,0,0-1.24,4.6V212Z"/><path class="cls-5" d="M414.33,204.18,427.54,212a2.14,2.14,0,0,0,2.08,0l2.47-1.39v2.25l-2.5,1.41a2.09,2.09,0,0,1-2.07,0L415,207.1a1.35,1.35,0,0,1-.68-1.17Z"/><path class="cls-5" d="M414.56,204.6l13,7.42a2.14,2.14,0,0,0,2.08,0l2.47-1.39-.67-.38-1.79,1a2.13,2.13,0,0,1-2.1,0l-12.2-7v-.9l-.8.49A.46.46,0,0,0,414.56,204.6Z"/><path class="cls-5" d="M442.51,182.33v16.86a.38.38,0,0,0,.75,0V182.33a.38.38,0,0,0-.75,0Z"/><path class="cls-5" d="M429.07,212a37.12,37.12,0,0,1,.65-8.93,39.13,39.13,0,0,1,1-3.87,15.29,15.29,0,0,1,1.49-3.75c.9-1.39,2.75-2.35,4.12-3.19a59,59,0,0,1,5.7-3.07c.44-.21.06-.86-.38-.65a59.18,59.18,0,0,0-6.11,3.33c-1.34.84-3.1,1.82-4,3.2a15.24,15.24,0,0,0-1.37,3.34,39,39,0,0,0-1.13,4.24,38.1,38.1,0,0,0-.72,9.35c0,.48.77.48.75,0Z"/><path class="cls-8" d="M437.58,197c-.06-.67-.06-1.84-.07-2.74a.71.71,0,0,0-.88-.69,10.89,10.89,0,0,0-1.53.77,4.55,4.55,0,0,0-1.61,1.13,4.28,4.28,0,0,0-.57,1.42l-.94,3.43a.61.61,0,0,0,0,.4.41.41,0,0,0,.41.19,1,1,0,0,0,.43-.19l4.13-2.44a1.06,1.06,0,0,0,.64-1.28Z"/><path class="cls-8" d="M430.26,195.56a2.39,2.39,0,0,0-1.28-1.22c-2.94-1.63-6.5-3.49-9.55-5.15a.83.83,0,0,0-1.19.46c-.62,1.72-1.7,4.41-1.35,5.41a3.62,3.62,0,0,0,1.34,1.21c2.58,1.56,4.94,2.8,7.27,4.15a8.22,8.22,0,0,0,1.15.67,1.72,1.72,0,0,0,1.3,0,2.39,2.39,0,0,0,1-1.2,17.07,17.07,0,0,0,1.2-3.14A2.28,2.28,0,0,0,430.26,195.56Z"/><path class="cls-21" d="M417,199.61l8.29,4.72,1.17.67a.38.38,0,0,0,.38-.65l-8.3-4.72-1.17-.67a.37.37,0,0,0-.37.65Z"/><path class="cls-21" d="M417,201.17l8.29,4.72,1.17.67a.38.38,0,0,0,.38-.65l-8.3-4.72-1.17-.67a.37.37,0,0,0-.37.65Z"/><path class="cls-21" d="M416.93,202.89l8.29,4.72,1.17.66a.37.37,0,0,0,.38-.64l-8.29-4.73-1.17-.66a.38.38,0,0,0-.38.65Z"/><path class="cls-3" d="M426.86,208a.47.47,0,0,0-.49,0,.67.67,0,0,0-.3.3.81.81,0,0,0-.09.48.6.6,0,0,0,.56.49.65.65,0,0,0,.61-.44A.82.82,0,0,0,426.86,208Z"/><path class="cls-3" d="M416.67,202.67a.45.45,0,0,0-.49-.06.7.7,0,0,0-.29.3.77.77,0,0,0-.1.49.62.62,0,0,0,.57.48.63.63,0,0,0,.61-.44A.8.8,0,0,0,416.67,202.67Z"/><path class="cls-5" d="M442.94,202.61a2.91,2.91,0,0,1-.39-1.38,4.45,4.45,0,0,1-2.63,1.05,9.07,9.07,0,0,1-1.52-.36,4.23,4.23,0,0,0-3.45.76l.33,1.8a3.44,3.44,0,0,1,2.54-.18,3.39,3.39,0,0,1,1.94,1.64l2.64-1.51A1.5,1.5,0,0,0,443,204,1.47,1.47,0,0,0,442.94,202.61Z"/><path class="cls-5" d="M431.65,210a2.4,2.4,0,0,0,1,2.17l1.9,1.1c.61.34.22-.44,1.16-1a7.56,7.56,0,0,0,3.42-5.9c0-1.07,1-1.08.38-1.44l-2-1.11a2.47,2.47,0,0,0-2.39.26A7.53,7.53,0,0,0,431.65,210Z"/><path class="cls-4" d="M433.63,211.07c0,2.17,1.53,3,3.42,2a7.53,7.53,0,0,0,3.42-5.89c0-2.17-1.53-3-3.42-1.95A7.53,7.53,0,0,0,433.63,211.07Z"/><path class="cls-13" d="M437.08,206.74a4.86,4.86,0,0,0-2.21,3.81c0,1.4,1,2,2.21,1.26a4.89,4.89,0,0,0,2.21-3.81C439.29,206.6,438.3,206,437.08,206.74Z"/><path class="cls-4" d="M443.54,203.15l16.89-9.69L487.36,178l6.17-3.54a.38.38,0,0,0-.38-.65l-16.89,9.69L449.34,199l-6.18,3.54a.38.38,0,0,0,.38.65Z"/><path class="cls-14" d="M484.35,175l-6.18,3.74a1.3,1.3,0,0,0-.63,1.12v6.76a1.31,1.31,0,0,0,.65,1.13l6.17,3.56a1.33,1.33,0,0,0,1.31,0l6.32-3.6a1.31,1.31,0,0,0,.66-1.14V179.8a1.3,1.3,0,0,0-.65-1.13L485.68,175A1.3,1.3,0,0,0,484.35,175Z"/><polygon class="cls-8" points="487.71 184.6 487.62 182.04 480.16 177.54 482.17 176.34 489.72 180.82 489.72 183.45 487.71 184.6"/><path class="cls-5" d="M477.62,179.58l6.49,3.66a2.74,2.74,0,0,0,.75.41c.28,0,.6-.21.83-.33l3.77-2.11,3.06-1.7c.42-.23.05-.88-.38-.65L484.77,183h.38l-7.15-4a.38.38,0,0,0-.38.65Z"/><path class="cls-5" d="M485.34,191.49v-8.2a.38.38,0,0,0-.75,0v8.2a.38.38,0,0,0,.75,0Z"/><path class="cls-8" d="M490.39,187.76l1.42-.81a.33.33,0,0,0,.15-.27v-.61a.19.19,0,0,0-.28-.17l-1.38.81a.42.42,0,0,0-.2.35v.54A.19.19,0,0,0,490.39,187.76Z"/><path class="cls-8" d="M478.2,181c0,.39,0,1,0,1.38a.44.44,0,0,0,.21.37l1.68,1a.19.19,0,0,0,.28-.16l0-1.39a.43.43,0,0,0-.22-.38l-1.71-1A.18.18,0,0,0,478.2,181Z"/><path class="cls-3" d="M475.28,180.63l-6.17,3.73a1.3,1.3,0,0,0-.64,1.12v6.76a1.32,1.32,0,0,0,.66,1.14l6.17,3.55a1.29,1.29,0,0,0,1.3,0l6.32-3.6a1.33,1.33,0,0,0,.67-1.15v-6.77a1.32,1.32,0,0,0-.66-1.14l-6.31-3.66A1.31,1.31,0,0,0,475.28,180.63Z"/><polygon class="cls-8" points="478.64 190.21 478.56 187.66 471.09 183.16 473.11 181.96 480.65 186.44 480.66 189.07 478.64 190.21"/><path class="cls-5" d="M468.56,185.2l6.49,3.65a2.77,2.77,0,0,0,.75.42c.28,0,.59-.21.82-.34l3.78-2.1,3.06-1.7a.38.38,0,0,0-.38-.65l-7.37,4.1h.38l-7.15-4a.38.38,0,0,0-.38.65Z"/><path class="cls-5" d="M476.28,197.11v-8.2a.38.38,0,0,0-.75,0v8.2a.38.38,0,0,0,.75,0Z"/><path class="cls-8" d="M481.33,193.38l1.41-.82a.29.29,0,0,0,.16-.26v-.62a.19.19,0,0,0-.29-.16l-1.37.81a.4.4,0,0,0-.2.35v.53A.2.2,0,0,0,481.33,193.38Z"/><path class="cls-8" d="M469.14,186.63c0,.39,0,1,0,1.39a.43.43,0,0,0,.2.36l1.68,1a.19.19,0,0,0,.29-.16l0-1.38a.41.41,0,0,0-.21-.38l-1.71-1A.19.19,0,0,0,469.14,186.63Z"/><path class="cls-21" d="M479.13,169.24,473,173a1.33,1.33,0,0,0-.63,1.13v6.75A1.32,1.32,0,0,0,473,182l6.16,3.55a1.31,1.31,0,0,0,1.31,0l6.32-3.6a1.32,1.32,0,0,0,.66-1.14V174a1.33,1.33,0,0,0-.65-1.14l-6.31-3.66A1.31,1.31,0,0,0,479.13,169.24Z"/><polygon class="cls-8" points="482.49 178.82 482.4 176.27 474.94 171.77 476.95 170.57 484.5 175.05 484.5 177.68 482.49 178.82"/><path class="cls-5" d="M472.4,173.81l6.49,3.66a3.1,3.1,0,0,0,.76.41c.28.05.59-.21.82-.34l3.77-2.1,3.06-1.7a.38.38,0,0,0-.38-.65l-7.36,4.1h.37l-7.15-4a.38.38,0,0,0-.38.65Z"/><path class="cls-5" d="M480.12,185.72v-8.2a.38.38,0,0,0-.75,0v8.2a.38.38,0,0,0,.75,0Z"/><path class="cls-8" d="M485.17,182l1.42-.81a.32.32,0,0,0,.16-.27v-.62a.19.19,0,0,0-.29-.16l-1.38.81a.39.39,0,0,0-.19.35v.53A.19.19,0,0,0,485.17,182Z"/><path class="cls-8" d="M473,175.24c0,.39,0,1,0,1.39a.42.42,0,0,0,.21.36l1.68,1a.18.18,0,0,0,.28-.16l0-1.38a.44.44,0,0,0-.21-.38l-1.71-1A.19.19,0,0,0,473,175.24Z"/><path class="cls-16" d="M283.18,218.28,276,222.64a1.54,1.54,0,0,0-.74,1.32v7.9a1.53,1.53,0,0,0,.77,1.33l7.21,4.15a1.52,1.52,0,0,0,1.53,0l7.39-4.21a1.53,1.53,0,0,0,.78-1.34v-7.92a1.53,1.53,0,0,0-.77-1.33l-7.38-4.29A1.55,1.55,0,0,0,283.18,218.28Z"/><polygon class="cls-6" points="287.11 229.49 287.02 226.5 278.29 221.24 280.64 219.83 289.46 225.07 289.47 228.15 287.11 229.49"/><path class="cls-5" d="M275.35,223.56l7.59,4.28a3,3,0,0,0,.87.48c.31.05.66-.24.91-.39l4.42-2.45,3.57-2c.42-.23.05-.88-.38-.64l-8.61,4.79h.38l-8.37-4.71c-.42-.24-.8.41-.38.64Z"/><path class="cls-5" d="M284.28,237.55V228a.38.38,0,0,0-.75,0v9.59a.38.38,0,0,0,.75,0Z"/><path class="cls-6" d="M290.25,233.19l1.66-.95a.38.38,0,0,0,.18-.32v-.71a.22.22,0,0,0-.33-.2l-1.61,1a.47.47,0,0,0-.23.41V233A.22.22,0,0,0,290.25,233.19Z"/><path class="cls-6" d="M276,225.3c0,.46,0,1.21,0,1.62a.49.49,0,0,0,.24.42l2,1.2a.22.22,0,0,0,.33-.19l0-1.62a.5.5,0,0,0-.25-.44l-2-1.18A.22.22,0,0,0,276,225.3Z"/><path class="cls-3" d="M260.42,210.79l-12.9,7.79a2.76,2.76,0,0,0-1.33,2.35v14.12a2.74,2.74,0,0,0,1.38,2.37l12.88,7.43a2.75,2.75,0,0,0,2.72,0l13.21-7.53a2.72,2.72,0,0,0,1.39-2.38V220.79a2.73,2.73,0,0,0-1.37-2.37l-13.19-7.66A2.74,2.74,0,0,0,260.42,210.79Z"/><polygon class="cls-6" points="267.44 230.81 267.26 225.48 251.67 216.08 255.88 213.56 271.64 222.93 271.65 228.41 267.44 230.81"/><path class="cls-5" d="M246.57,220l13.48,7.59a5.46,5.46,0,0,0,1.56.87c.47.05,1.09-.48,1.47-.69l7.82-4.36,6.39-3.56c.42-.23,0-.88-.38-.65l-13.23,7.37a9,9,0,0,0-2.08,1.16s.3.21.15,0-.73-.41-.94-.53l-7.58-4.27L247,219.33a.38.38,0,0,0-.38.65Z"/><path class="cls-5" d="M262.08,245.22V228.08a.38.38,0,0,0-.75,0v17.14a.38.38,0,0,0,.75,0Z"/><path class="cls-6" d="M273.05,237.42l3-1.7a.64.64,0,0,0,.32-.56v-1.28a.39.39,0,0,0-.6-.34l-2.87,1.69a.85.85,0,0,0-.41.72v1.12A.4.4,0,0,0,273.05,237.42Z"/><path class="cls-6" d="M247.58,223.33c0,.81,0,2.17,0,2.89a.9.9,0,0,0,.43.76l3.51,2.13a.39.39,0,0,0,.6-.32l.05-2.91a.93.93,0,0,0-.45-.79L248.17,223A.39.39,0,0,0,247.58,223.33Z"/><g class="cls-22"><path class="cls-5" d="M326,273.12a2.44,2.44,0,0,0,1,2.22l1.94,1.13c.63.35.23-.45,1.19-1a7.71,7.71,0,0,0,3.5-6c0-1.1,1-1.11.39-1.48,0,0-2-1.13-2.06-1.13a2.47,2.47,0,0,0-2.44.27A7.7,7.7,0,0,0,326,273.12Z"/><path class="cls-4" d="M328,274.27c0,2.22,1.56,3.11,3.5,2a7.73,7.73,0,0,0,3.5-6c0-2.22-1.57-3.11-3.5-2A7.67,7.67,0,0,0,328,274.27Z"/><path class="cls-13" d="M331.52,269.83a5,5,0,0,0-2.26,3.9c0,1.43,1,2,2.26,1.29a5,5,0,0,0,2.27-3.9C333.79,269.69,332.77,269.11,331.52,269.83Z"/><path class="cls-5" d="M352.8,256.69a2.47,2.47,0,0,0,1,2.22l1.94,1.12c.64.36.23-.45,1.19-1a7.73,7.73,0,0,0,3.5-6c0-1.09,1-1.1.39-1.47l-2.05-1.14a2.51,2.51,0,0,0-2.45.27A7.73,7.73,0,0,0,352.8,256.69Z"/><path class="cls-4" d="M354.83,257.84c0,2.22,1.57,3.11,3.5,2a7.7,7.7,0,0,0,3.5-6c0-2.22-1.57-3.11-3.5-2A7.73,7.73,0,0,0,354.83,257.84Z"/><path class="cls-13" d="M358.36,253.4a5,5,0,0,0-2.26,3.9c0,1.43,1,2,2.26,1.29a5,5,0,0,0,2.26-3.9C360.62,253.26,359.61,252.68,358.36,253.4Z"/><polygon class="cls-5" points="315.52 275.46 315.51 279.11 300.93 268.8 300.93 267.12 315.52 275.46"/><path class="cls-5" d="M353.22,236.62l-52.72,30.6L315,275.49h0v3.62L367,249a1.3,1.3,0,0,0,.65-1.13v-2a1.67,1.67,0,0,0-.84-1.45Z"/><path class="cls-4" d="M366,228.89a1.19,1.19,0,0,0-.59-1l-1-.58L315.25,257l-12.77-7.88-.5.29a1,1,0,0,0-.49.84v16.57L315,274.45v.11h.56L366,245.2Z"/><path class="cls-14" d="M302.31,250.13l11.83,6.76a2.35,2.35,0,0,0,2.34,0l48.44-28.12a.59.59,0,0,0,0-1l-11.64-6.64a2.69,2.69,0,0,0-2.66,0l-48.3,28A.56.56,0,0,0,302.31,250.13Z"/><path class="cls-21" d="M314.4,264l-11.14-6.43a4,4,0,0,0-3.8-.14l-5.76,2.79a10.33,10.33,0,0,0-5.29,6.34l-.77,2.7a28.13,28.13,0,0,0-.73,5.85v5.93l14,7.9.05,0v-5.67a19.69,19.69,0,0,1,.91-5.9l1.68-5.31a4.83,4.83,0,0,1,2.22-2.74l8.66-5.05Z"/><path class="cls-21" d="M300.37,283.44v5.67l7.38-4.24.57-3.25L314.4,278V263.84l-9.08,5.29A5,5,0,0,0,303,272l-1.76,5.61A19.6,19.6,0,0,0,300.37,283.44Z"/><path class="cls-5" d="M298.7,279.53h0c0,2.79-2.94,4.12-5.39,2.74l-.18-.1a7.06,7.06,0,0,1-4-6.19v-.88a.87.87,0,0,1,1.31-.75l7.8,4.43A.86.86,0,0,1,298.7,279.53Z"/><path class="cls-4" d="M309.93,274.87l-.79.45a.92.92,0,0,0-.35.5v0a.34.34,0,0,0,.47.23l.7-.41c.17-.1.28-.28,0-.48V275C310.24,274.88,310.06,274.79,309.93,274.87Z"/><path class="cls-5" d="M304.48,288.82l.29-1.09A9.4,9.4,0,0,1,306,283h0a9.35,9.35,0,0,1,3.42-3.42l1.39-.8-2.22-1.07-1.32.66a9.3,9.3,0,0,0-3.43,3.42h0a9.36,9.36,0,0,0-1.27,4.7v1.36Z"/><path class="cls-5" d="M286.34,280l13.36,7.92a2.13,2.13,0,0,0,2.1,0l2.5-1.4v2.28l-2.52,1.41a2.14,2.14,0,0,1-2.12,0L287,282.94a1.39,1.39,0,0,1-.7-1.2Z"/><path class="cls-5" d="M286.1,279.53a.48.48,0,0,0,0,.82l13.29,7.58a2.13,2.13,0,0,0,2.13,0l2.53-1.41-.69-.4-1.83,1a2.17,2.17,0,0,1-2.15,0L286.91,280V279Z"/><path class="cls-5" d="M315.14,257.38v17.39a.38.38,0,0,0,.75,0V257.38a.38.38,0,0,0-.75,0Z"/><path class="cls-5" d="M301.18,287.94a37.93,37.93,0,0,1,.66-9.15,38.94,38.94,0,0,1,1-4,15.61,15.61,0,0,1,1.52-3.84c.93-1.42,2.82-2.41,4.23-3.27a62.78,62.78,0,0,1,5.83-3.14c.43-.21.05-.85-.38-.65a61,61,0,0,0-6.26,3.41c-1.37.86-3.17,1.86-4.07,3.27a16,16,0,0,0-1.4,3.42,38.81,38.81,0,0,0-1.89,13.91c0,.48.77.48.75,0Z"/><path class="cls-8" d="M309.89,272.58c-.05-.68-.05-1.87-.06-2.8a.74.74,0,0,0-.91-.71,12.55,12.55,0,0,0-1.56.79,4.69,4.69,0,0,0-1.65,1.16,4.48,4.48,0,0,0-.59,1.45c-.32,1.17-.63,2.34-.95,3.51a.59.59,0,0,0,0,.41.4.4,0,0,0,.42.19,1.25,1.25,0,0,0,.45-.18l4.22-2.5a1.6,1.6,0,0,0,.56-.47A1.44,1.44,0,0,0,309.89,272.58Z"/><path class="cls-8" d="M302.4,271.09a2.47,2.47,0,0,0-1.31-1.25c-3-1.67-6.65-3.56-9.77-5.27a.86.86,0,0,0-1.22.47c-.63,1.77-1.74,4.52-1.38,5.54a3.57,3.57,0,0,0,1.38,1.23c2.63,1.6,5,2.87,7.43,4.26a8.61,8.61,0,0,0,1.18.68,1.75,1.75,0,0,0,1.33,0,2.41,2.41,0,0,0,1-1.23,17,17,0,0,0,1.23-3.22A2.25,2.25,0,0,0,302.4,271.09Z"/><path class="cls-21" d="M288.83,275.23l8.49,4.83,1.2.68a.38.38,0,0,0,.38-.65l-8.49-4.83-1.2-.68a.38.38,0,0,0-.38.65Z"/><path class="cls-21" d="M288.83,276.83l8.49,4.83,1.2.68a.38.38,0,0,0,.38-.65l-8.49-4.83-1.2-.68a.38.38,0,0,0-.38.65Z"/><path class="cls-21" d="M288.77,278.58l8.49,4.84,1.19.68a.38.38,0,0,0,.38-.65l-8.49-4.83-1.19-.69a.38.38,0,0,0-.38.65Z"/><path class="cls-3" d="M298.92,283.81a.46.46,0,0,0-.5-.06.69.69,0,0,0-.3.31.77.77,0,0,0-.1.49.63.63,0,0,0,.58.5.65.65,0,0,0,.62-.45A.79.79,0,0,0,298.92,283.81Z"/><path class="cls-3" d="M288.5,278.36a.44.44,0,0,0-.5-.05.65.65,0,0,0-.3.31.77.77,0,0,0-.1.49.62.62,0,0,0,.58.5.67.67,0,0,0,.62-.45A.85.85,0,0,0,288.5,278.36Z"/><path class="cls-5" d="M315.38,278.3a3,3,0,0,1-.4-1.41A4.48,4.48,0,0,1,312.3,278a9.31,9.31,0,0,1-1.56-.37,4.28,4.28,0,0,0-3.53.78l.34,1.84a3.44,3.44,0,0,1,4.58,1.49l2.7-1.54a1.68,1.68,0,0,0,.57-.45A1.49,1.49,0,0,0,315.38,278.3Z"/><path class="cls-5" d="M303.83,285.82a2.45,2.45,0,0,0,1,2.22l1.94,1.12c.63.36.23-.44,1.19-1a7.71,7.71,0,0,0,3.5-6c0-1.09,1-1.1.39-1.47l-2.06-1.14a2.49,2.49,0,0,0-2.44.27A7.73,7.73,0,0,0,303.83,285.82Z"/><path class="cls-4" d="M305.86,287c0,2.22,1.56,3.11,3.5,2a7.73,7.73,0,0,0,3.5-6c0-2.22-1.57-3.11-3.5-2A7.7,7.7,0,0,0,305.86,287Z"/><path class="cls-13" d="M309.38,282.53a5,5,0,0,0-2.26,3.9c0,1.43,1,2,2.26,1.29a5,5,0,0,0,2.27-3.9C311.65,282.39,310.63,281.81,309.38,282.53Z"/><path class="cls-4" d="M316,278.85l17.27-9.91,27.54-15.8,6.36-3.64a.38.38,0,0,0-.38-.65l-17.26,9.9L322,274.55l-6.36,3.65a.38.38,0,0,0,.38.65Z"/></g><path class="cls-4" d="M648.58,56.21a1.88,1.88,0,0,0-1.89,0L589.48,90.13c-9,4.84-10.4,12.24-5.37,15.82h0a29.16,29.16,0,0,0,9,4.09c3.88.92,9.85.68,14.87-.73a42.57,42.57,0,0,0,10.26-4.41l46.2-27.39a1.83,1.83,0,0,0,.87-1.3L667,68a1.89,1.89,0,0,0-.94-2.05Z"/><path class="cls-13" d="M647.74,61.4l-50,28.43c-8,4.06-14.69,7.71-14.08,12.27l.74,1.33a1.81,1.81,0,0,0,.68.63l.44.48c4.38,2.46,15.3-.5,21.29-3.49l34-19.13L661.42,69Z"/><path class="cls-13" d="M638.74,66.32l-.19-15L660,53.72l.19,15c0,.17-.33.56-.53.68l-7,4.16a1.7,1.7,0,0,1-1.52,0l-12-6.72C638.85,66.69,638.72,66.5,638.74,66.32Z"/><path class="cls-13" d="M652.45,57.23l7.32-4.39c.38-.23.33-.62-.13-.87l-12-6.72a1.7,1.7,0,0,0-1.52,0l-7.32,4.39c-.38.23-.33.62.12.87l12,6.72A1.7,1.7,0,0,0,652.45,57.23Z"/><path class="cls-13" d="M638.53,49.86a.68.68,0,0,0,.37.43l12,6.73a1.7,1.7,0,0,0,1.52,0l7.32-4.39a.52.52,0,0,0,.25-.31l0,1.76a.44.44,0,0,1-.25.45l-7.32,4.38a1.7,1.7,0,0,1-1.52,0l-12-6.73a.58.58,0,0,1-.38-.52l0-1.8Z"/><path class="cls-5" d="M638.5,62.56q-11.13,6.45-22.22,13-8.52,5-17,10.09c-3.92,2.36-7.89,4.68-11.69,7.24a11.46,11.46,0,0,0-4.54,5.29c-1.34,3.62,1.38,6.93,4.93,7.39,6.08.78,12.44-1.3,17.92-3.81,11.88-5.44,23.2-12.28,34.45-18.9,8.45-5,16.91-10,25.22-15.2l.4-.25c.41-.25,0-.9-.38-.64q-10,6.18-20.11,12.18c-11.45,6.81-23,13.63-34.82,19.67A58.9,58.9,0,0,1,596,104.25c-3.18.66-8.7,1.74-11.24-1-2.88-3.12-.26-7.25,2.58-9.28,3.2-2.3,6.66-4.27,10-6.31q8.05-4.87,16.17-9.63Q626,70.7,638.43,63.47l.45-.26a.38.38,0,0,0-.38-.65Z"/><path class="cls-5" d="M638.34,50.18,647.05,55c1,.57,2.05,1.21,3.12,1.71,2,.94,3.54-.16,5.18-1.14l4.85-2.89a.38.38,0,0,0-.38-.65L656,54.3c-1.66,1-3.59,2.66-5.6,1.68-2.8-1.36-5.48-3-8.2-4.52l-3.48-1.92c-.43-.24-.8.41-.38.64Z"/><path class="cls-5" d="M651.69,56.69q.12,9,.23,18a.38.38,0,0,0,.75,0q-.1-9-.23-18a.38.38,0,0,0-.75,0Z"/><path class="cls-14" d="M638.09,60.64l-3.73,2.24a1,1,0,0,0-.49.88l.07,5.75a1,1,0,0,0,.52.86L646.16,77a1,1,0,0,0,1,0l3.72-2.23a1,1,0,0,0,.49-.88l-.08-5.83a1,1,0,0,0-.51-.87l-11.69-6.56A1,1,0,0,0,638.09,60.64Z"/><path class="cls-5" d="M634,63.75c-.28,0-.28-.1-.15,0a2.69,2.69,0,0,0,.29.16l.94.54,3,1.76,6.62,3.92,1.55.93-.19-.33.24,6.38a.38.38,0,0,0,.75,0l-.17-4.64a9.94,9.94,0,0,0-.07-1.73c-.06-.33-.35-.43-.63-.59Q641.6,67.43,637,64.7l-2.13-1.24c-.27-.16-.67-.5-1-.44-.48.09-.28.81.19.73Z"/><path class="cls-5" d="M646.37,70.39l.09,0,.37.63c-.13.13,0,0,.06,0l.35-.22,1.13-.71,2.5-1.57.58-.37c.41-.26,0-.9-.38-.65L646.94,70a3.41,3.41,0,0,0-.64.43c-.29.29,0,.67.36.62,0,0,.09,0,.09,0,.44-.2.06-.85-.38-.64Z"/><path class="cls-21" d="M632.24,64.29l-3.73,2.24a1,1,0,0,0-.49.88l.07,5.75a1,1,0,0,0,.51.87l11.7,6.63a1,1,0,0,0,1,0L645,78.42a1,1,0,0,0,.5-.88l-.08-5.84a1,1,0,0,0-.52-.87l-11.68-6.55A1,1,0,0,0,632.24,64.29Z"/><path class="cls-5" d="M628.18,67.4c-.28,0-.28-.1-.15,0a1.64,1.64,0,0,0,.29.16l.94.55,3,1.75,6.62,3.93,1.55.92-.19-.32.23,6.37c0,.48.77.48.75,0l-.16-4.64a10,10,0,0,0-.07-1.73c-.07-.33-.36-.43-.63-.59q-4.61-2.74-9.23-5.47L629,67.11c-.27-.15-.67-.49-1-.43s-.27.8.2.72Z"/><path class="cls-5" d="M640.52,74l.09,0,.37.63c-.14.13,0,0,.06,0l.35-.23,1.13-.71,2.5-1.57.58-.37c.41-.25,0-.9-.38-.64l-4.13,2.6a3.36,3.36,0,0,0-.64.42.38.38,0,0,0,.36.63l.09,0c.44-.21.06-.86-.38-.65Z"/><path class="cls-4" d="M626.13,67.7l-3.74,2.23a1,1,0,0,0-.49.88l.08,5.75a1,1,0,0,0,.51.87l11.7,6.63a1,1,0,0,0,1,0l3.72-2.23a1,1,0,0,0,.49-.88l-.07-5.84a1,1,0,0,0-.52-.87l-11.69-6.55A1,1,0,0,0,626.13,67.7Z"/><path class="cls-5" d="M622.07,70.8c-.28,0-.29-.09-.16,0a1.78,1.78,0,0,0,.3.17l.94.54,3,1.76,6.62,3.92,1.55.92-.18-.32.23,6.37c0,.49.77.49.75,0l-.17-4.64a11.12,11.12,0,0,0-.06-1.73c-.07-.33-.36-.43-.63-.59-3.08-1.83-6.15-3.66-9.24-5.47-.7-.42-1.41-.83-2.12-1.24-.27-.16-.68-.5-1-.44s-.27.81.2.72Z"/><path class="cls-5" d="M634.41,77.44l.09,0,.36.62c-.13.14,0,0,.06,0l.35-.22,1.13-.71,2.5-1.58.58-.36c.41-.26,0-.91-.37-.65L635,77.08a3.92,3.92,0,0,0-.64.42.38.38,0,0,0,.37.63l.09,0c.43-.21.05-.85-.38-.65Z"/><path class="cls-3" d="M620.66,71l-3.73,2.24a1,1,0,0,0-.49.88l.07,5.75a1,1,0,0,0,.52.86l11.7,6.64a1,1,0,0,0,1,0l3.72-2.24a1,1,0,0,0,.49-.88l-.07-5.83a1,1,0,0,0-.52-.87L621.68,71A1,1,0,0,0,620.66,71Z"/><path class="cls-5" d="M616.61,74.13c-.28.05-.29-.1-.16,0a2.11,2.11,0,0,0,.3.16l.93.54,3,1.76q3.32,1.95,6.62,3.93l1.55.92-.18-.33.23,6.38c0,.48.77.48.75,0l-.17-4.64a11,11,0,0,0-.06-1.73c-.07-.33-.36-.43-.63-.59-3.08-1.83-6.15-3.66-9.24-5.48l-2.12-1.24c-.27-.16-.68-.49-1-.44s-.28.81.2.73Z"/><path class="cls-5" d="M629,80.77l.08,0,.37.63c-.13.13,0,0,.06,0s.24-.14.35-.22l1.13-.71,2.5-1.57.58-.37c.41-.25,0-.9-.38-.65l-4.13,2.6a3.41,3.41,0,0,0-.64.43.37.37,0,0,0,.36.62l.1,0c.43-.2,0-.85-.38-.64Z"/><path class="cls-14" d="M631.78,57.37,628,59.61a1,1,0,0,0-.49.88l.08,5.75a1,1,0,0,0,.51.86l11.7,6.64a1,1,0,0,0,1,0l3.72-2.23a1,1,0,0,0,.49-.88L645,64.78a1,1,0,0,0-.52-.87l-11.69-6.56A1,1,0,0,0,631.78,57.37Z"/><path class="cls-5" d="M627.72,60.48c-.28.05-.29-.1-.16,0a1.78,1.78,0,0,0,.3.17l.94.54,3,1.76,6.62,3.92,1.55.93-.18-.33.23,6.38c0,.48.77.48.75,0l-.17-4.64a11,11,0,0,0-.06-1.73c-.07-.33-.36-.43-.63-.6l-9.23-5.47-2.13-1.24c-.27-.16-.68-.5-1-.44s-.27.81.2.73Z"/><path class="cls-5" d="M640.06,67.12l.09,0,.36.62c-.13.14,0,0,.06,0l.36-.22,1.12-.71,2.51-1.58.57-.36c.41-.26,0-.91-.37-.65l-4.14,2.6a3.92,3.92,0,0,0-.64.42.38.38,0,0,0,.37.63l.09,0c.43-.2,0-.85-.38-.64Z"/><path class="cls-14" d="M610.73,76.26,607,78.5a1,1,0,0,0-.49.88l.07,5.75a1,1,0,0,0,.51.87l11.7,6.63a1,1,0,0,0,1,0l3.72-2.23a1,1,0,0,0,.49-.88L624,83.67a1,1,0,0,0-.52-.87l-11.68-6.55A1,1,0,0,0,610.73,76.26Z"/><path class="cls-5" d="M606.67,79.37c-.28,0-.29-.09-.15,0a1.38,1.38,0,0,0,.29.17l.94.54,3,1.75,6.62,3.93,1.55.92-.19-.32.23,6.37c0,.48.77.49.75,0l-.17-4.64a11.12,11.12,0,0,0-.06-1.73c-.07-.33-.36-.43-.63-.59q-4.61-2.74-9.23-5.47l-2.13-1.24c-.27-.16-.68-.5-1-.44s-.27.81.2.72Z"/><path class="cls-5" d="M619,86l.09,0,.36.62c-.13.14,0,0,.07,0l.35-.22,1.13-.71,2.5-1.58.58-.36c.41-.26,0-.91-.38-.65l-4.13,2.6a3.62,3.62,0,0,0-.65.42.38.38,0,0,0,.37.63l.09,0c.44-.21.06-.85-.38-.65Z"/><path class="cls-21" d="M604.5,80.09l-3.73,2.24a1,1,0,0,0-.49.88l.07,5.75a1,1,0,0,0,.51.87l11.7,6.63a1,1,0,0,0,1,0l3.72-2.23a1,1,0,0,0,.49-.88l-.07-5.84a1,1,0,0,0-.52-.87l-11.68-6.55A1,1,0,0,0,604.5,80.09Z"/><path class="cls-5" d="M600.44,83.2c-.28,0-.29-.1-.15,0a1.35,1.35,0,0,0,.29.16l.94.55,3,1.75,6.62,3.93,1.55.92-.19-.32.23,6.37c0,.48.77.48.75,0L613.3,92a11.12,11.12,0,0,0-.06-1.73c-.07-.33-.36-.43-.63-.59q-4.61-2.75-9.23-5.47l-2.13-1.25c-.27-.15-.68-.49-1-.43s-.27.8.2.72Z"/><path class="cls-5" d="M612.78,89.84l.09,0,.36.63c-.13.13,0,0,.07,0l.35-.23,1.13-.71,2.5-1.57.58-.37c.41-.25,0-.9-.38-.64l-4.13,2.6a3.44,3.44,0,0,0-.65.42.38.38,0,0,0,.37.63s.09,0,.09,0c.44-.21.06-.86-.38-.65Z"/><path class="cls-3" d="M594.76,85.82,591.14,88a1,1,0,0,0-.48.86l.07,5.59a1,1,0,0,0,.5.84l11.37,6.45a1,1,0,0,0,1,0l3.62-2.16a1,1,0,0,0,.47-.86L607.61,93a1,1,0,0,0-.5-.85L595.75,85.8A1,1,0,0,0,594.76,85.82Z"/><path class="cls-5" d="M590.82,88.85c-.27.05-.29-.1-.16,0s.21.11.29.16l.91.52,2.9,1.71q3.22,1.91,6.44,3.82l1.51.89-.19-.32.22,6.19c0,.48.77.49.75,0l-.16-4.51a10.45,10.45,0,0,0-.06-1.68c-.07-.33-.35-.42-.62-.58-3-1.78-6-3.56-9-5.32l-2.07-1.21c-.26-.15-.66-.48-1-.42s-.27.8.2.72Z"/><path class="cls-5" d="M602.81,95.28l.08,0,.37.62c-.13.14,0,0,.06,0l.34-.21,1.1-.7,2.43-1.53.56-.35c.41-.26,0-.9-.38-.65l-4,2.53a3.41,3.41,0,0,0-.63.41.38.38,0,0,0,.36.63l.1,0c.43-.21,0-.85-.38-.65Z"/><path class="cls-21" d="M624.5,61.8,620.77,64a1,1,0,0,0-.49.88l.07,5.75a1,1,0,0,0,.52.86l11.7,6.64a1,1,0,0,0,1,0l3.72-2.23a1,1,0,0,0,.49-.88l-.08-5.83a1,1,0,0,0-.51-.87l-11.69-6.56A1,1,0,0,0,624.5,61.8Z"/><path class="cls-5" d="M620.45,64.91c-.28,0-.29-.1-.16,0a1.46,1.46,0,0,0,.3.17l.93.54,3,1.76,6.62,3.92,1.55.93-.18-.33.23,6.38a.38.38,0,0,0,.75,0l-.17-4.64a11,11,0,0,0-.06-1.73c-.07-.33-.36-.44-.63-.6l-9.24-5.47-2.13-1.24c-.26-.16-.67-.5-1-.44s-.28.81.2.73Z"/><path class="cls-5" d="M632.79,71.54l.08,0,.37.62c-.13.14,0,0,.06,0l.35-.22,1.13-.71,2.5-1.58.58-.36c.41-.26,0-.91-.38-.65l-4.13,2.6a3.92,3.92,0,0,0-.64.42.38.38,0,0,0,.36.63l.09,0c.44-.21.06-.85-.37-.65Z"/><polygon class="cls-6" points="639.33 56.27 650.53 62.36 650.5 59.8 639.29 53.68 639.33 56.27"/><polygon class="cls-6" points="653.11 59.73 653.14 61.8 660.09 57.51 660.05 55.59 653.11 59.73"/><path class="cls-3" d="M607.24,71.35l-3.74,2.24a1,1,0,0,0-.49.88l.08,5.75a1,1,0,0,0,.51.87l11.7,6.63a1,1,0,0,0,1,0L620,85.48a1,1,0,0,0,.49-.89l-.07-5.83a1,1,0,0,0-.52-.87l-11.69-6.55A1,1,0,0,0,607.24,71.35Z"/><path class="cls-5" d="M603.18,74.46c-.28.05-.29-.1-.16,0a1.73,1.73,0,0,0,.3.16l.94.55,3,1.75,6.62,3.93,1.55.92-.18-.32.23,6.37c0,.48.77.48.75,0L616,83.21a11.08,11.08,0,0,0-.06-1.73c-.07-.33-.36-.43-.63-.59q-4.62-2.74-9.23-5.47L604,74.17c-.27-.15-.68-.49-1-.43-.48.08-.27.8.2.72Z"/><path class="cls-5" d="M615.52,81.1l.09,0,.36.63c-.13.13,0,0,.06,0l.35-.23,1.13-.71,2.5-1.57.58-.37c.41-.25,0-.9-.37-.64l-4.14,2.6a2.94,2.94,0,0,0-.64.42.38.38,0,0,0,.37.62l.09,0c.43-.21.05-.86-.38-.65Z"/><path class="cls-5" d="M586.63,107.86c15.13,1.49,28.51-7.18,40.87-14.69C637.75,87,648.14,81,658.44,74.81l8.47-5.06a.38.38,0,0,0-.38-.65q-10.72,6.42-21.48,12.8-7.56,4.5-15.16,9c-6,3.56-11.89,7.43-18.18,10.54-7.79,3.86-16.3,6.58-25.08,5.71-.48,0-.48.7,0,.75Z"/><path class="cls-4" d="M621,161.71s-5.15-7.17-5.9-7.23a2,2,0,0,0-2,1.34c-.32.85.66,9.41.66,9.41L621,162"/><path class="cls-4" d="M601.77,192.56c-1.55.85-5.23,2.8-6.26,4.17a4.27,4.27,0,0,0-.38,4.82,4.49,4.49,0,0,0,4.55,1.6,10.91,10.91,0,0,0,4.48-2.34c1.35-1,5.43-4.71,5.43-4.71"/><path class="cls-5" d="M596.24,198.23a2.26,2.26,0,0,0-.37,2.11,2.65,2.65,0,0,0,1.41,1.63,2.1,2.1,0,0,0,2.11-.22,2.15,2.15,0,0,0,.37-2.75c-.55-.85-2.4-1.79-3.52-.77"/><path class="cls-4" d="M569.8,173.85c-1.55.84-5.23,2.79-6.27,4.17a4.27,4.27,0,0,0-.37,4.82,4.49,4.49,0,0,0,4.55,1.59,10.84,10.84,0,0,0,4.48-2.33c1.35-1,5.43-4.72,5.43-4.72"/><path class="cls-5" d="M563.64,180.77a2.63,2.63,0,0,0,.58,1.86,2.38,2.38,0,0,0,1.53.94,1.17,1.17,0,0,0,1.24-.81,2.41,2.41,0,0,0-.83-2.39c-.68-.54-2.21-.77-2.52.4"/><path class="cls-14" d="M601.08,184.26s33.89,8.83,35.13,11.46c.4.86-.37,4.7-26.14,2.22S586.54,193,586.54,193Z"/><path class="cls-14" d="M627.13,160.45c2.77,2.55.16,5.31-2,7.61-2.58,2.74-6,6.24-8.13,8.1-3.86,3.32-38.54,22.37-42.51,23.59s-9.42-.66-6.66-6.6,16.42-12.57,21.27-15.64,27.47-14,27.47-14l6.15-3.64a3.39,3.39,0,0,1,4.42.58Z"/><path class="cls-14" d="M638.85,168.2a4.27,4.27,0,0,1-3.48,2.59c-2.48.11-16.36-1.38-16.36-1.38l4.66-5.78Z"/><path class="cls-14" d="M588.53,179.36s-19.9-14-21-14.7-3.16.24-3.23,1c-.73,8,8.3,22.77,9.87,20.91Z"/><path class="cls-14" d="M625.27,161.67c-.8,0-9.24,5.68-9.68,5.15s2.55-13.29,4.89-18.12c.86-1.78,4.86-2.92,4.86-2.92Z"/><path class="cls-5" d="M632.51,197.79c-5.41,1-11.14.61-16.59.28a153.28,153.28,0,0,1-20.38-2.5,58,58,0,0,1-8.9-2.33c-.45-.17-.65.56-.2.72,5.63,2.07,11.73,3,17.65,3.73a152.85,152.85,0,0,0,20.39,1.4,48.27,48.27,0,0,0,8.23-.58c.47-.08.27-.8-.2-.72Z"/><path class="cls-3" d="M625.11,154.47l-8.1,4.84,3.22-10.65s3.77-3.24,4.88-2.8Z"/><path class="cls-5" d="M569.39,190.69c4.58-4.72,10.77-7.79,16.47-10.93,5.47-3,11-5.88,16.55-8.73,2.87-1.49,5.76-3,8.64-4.44l3.61-1.85c.57-.29,1.42-.52,1.72-1.1a16,16,0,0,0,.83-3.24c.5-1.9,1-3.79,1.58-5.68a37,37,0,0,1,1.88-5.52c.82-1.74,3-2.59,4.77-3l-.47-.37-.08,15.89a.38.38,0,0,0,.75,0l.08-15.89a.38.38,0,0,0-.48-.36,9.21,9.21,0,0,0-4.72,2.56A11,11,0,0,0,619,151.4c-1.21,3.61-2.17,7.3-3.11,11a3.68,3.68,0,0,1-.26,1.05,5.29,5.29,0,0,1-.76.34l-2.23,1.14-8,4.13c-5.86,3-11.7,6-17.49,9.17-6.3,3.42-13.22,6.74-18.27,11.94-.34.35.19.88.53.53Z"/><path class="cls-5" d="M626.07,164.05a4.43,4.43,0,0,0-2.77,1.74,11.14,11.14,0,0,0-1.62,3.43c-.15.46.57.66.72.2.65-1.92,1.58-4.32,3.87-4.65a.37.37,0,0,0,.26-.46.38.38,0,0,0-.46-.26Z"/><path class="cls-5" d="M604.17,183.59l-17.82,9.69c-.42.23,0,.87.38.64l17.82-9.68c.43-.23.05-.88-.38-.65Z"/><path class="cls-6" d="M603.85,180.93c-5.94,3.23-16.66,9.25-22.61,12.48l.43-2.08L604,178.92Z"/><path class="cls-6" d="M568.69,191.69s-1,2.88,1.64,3.8c1.79.62,5.56-.44,8.65-2.85l-.36,2.07s-4,2.8-7.55,2.58a4.1,4.1,0,0,1-3.08-1.61,2.46,2.46,0,0,1-.51-1.7,6.49,6.49,0,0,1,1.21-2.29"/></g></g></svg>