<?xml version="1.0" encoding="utf-8"?>
<!-- Generator: Adobe Illustrator 24.0.1, SVG Export Plug-In . SVG Version: 6.00 Build 0)  -->
<svg version="1.1" id="Layer_1" xmlns="http://www.w3.org/2000/svg" xmlns:xlink="http://www.w3.org/1999/xlink" x="0px" y="0px"
	 viewBox="0 0 768 290.5" style="enable-background:new 0 0 768 290.5;" xml:space="preserve">
<style type="text/css">
	.st0{fill:none;}
	.st1{fill:#F0F2F7;}
	.st2{fill:#F2A441;}
	.st3{fill:#BC5555;}
	.st4{fill:#26244A;}
	.st5{fill:#FFFFFF;}
	.st6{opacity:0.33;fill:#B8C1EA;enable-background:new    ;}
	.st7{fill:#DADEF1;}
	.st8{fill:#9EABDB;}
	.st9{fill:#87B74E;}
	.st10{fill:#FFB25F;}
	.st11{fill:#FF8B0D;}
	.st12{fill:#B8C1EA;}
	.st13{fill:#E04141;}
	.st14{fill:#F5F5F5;}
	.st15{fill:#FF725E;}
	.st16{fill:#ED796A;}
	.st17{fill:#F4B298;}
	.st18{fill:none;stroke:#26244A;stroke-linecap:round;stroke-linejoin:round;}
	.st19{fill:#25184C;}
	.st20{fill:#EF6856;}
</style>
<title>banner_training</title>
<g id="Layer_2_1_">
	<g id="OBJECTS_">
		<rect class="st0" width="768" height="250"/>
		<polygon class="st1" points="403.4,160.3 415.5,167.2 459.7,141.5 447.6,134.6 		"/>
		<path class="st1" d="M399.9,156.5l-2.2,13.8l22.5-0.7C420.1,169.6,400,156.8,399.9,156.5z"/>
		<path class="st2" d="M475.4,88.9L465.4,95c-0.6,0.4-1,1.1-1,1.8v11c0,0.8,0.4,1.5,1.1,1.8l10,5.8c0.7,0.4,1.5,0.4,2.1,0l10.3-5.9
			c0.7-0.4,1.1-1.1,1.1-1.8v-11c0-0.8-0.4-1.5-1.1-1.8l-10.3-6C476.9,88.5,476.1,88.5,475.4,88.9z"/>
		<polygon class="st3" points="476.3,88.7 464.6,95.7 476.3,102.5 488.4,95.6 		"/>
		<polygon class="st2" points="464.8,95.8 461.5,91.4 474.2,99 476.3,102.5 		"/>
		<path class="st4" d="M476.8,115.8V88.9c0-0.2-0.2-0.3-0.4-0.3c-0.2,0-0.3,0.2-0.3,0.3v26.8c0,0.2,0.2,0.3,0.4,0.3
			C476.6,116,476.8,115.9,476.8,115.8z"/>
		<path class="st5" d="M485.3,109.7l2.3-1.3c0.2-0.1,0.3-0.3,0.3-0.4v-1c0-0.2-0.2-0.3-0.3-0.3c0,0-0.1,0-0.1,0l-2.2,1.3
			c-0.2,0.1-0.3,0.3-0.3,0.6v0.9c0,0.2,0.2,0.3,0.3,0.3C485.2,109.7,485.2,109.7,485.3,109.7z"/>
		<path class="st5" d="M465.4,98.7c0,0.6,0,1.7,0,2.3c0,0.2,0.1,0.5,0.3,0.6l2.7,1.7c0.1,0.1,0.3,0.1,0.4,0c0.1-0.1,0.1-0.1,0.1-0.2
			l0-2.3c0-0.3-0.1-0.5-0.4-0.6l-2.8-1.6c-0.1-0.1-0.3-0.1-0.4,0C465.4,98.6,465.4,98.6,465.4,98.7z"/>
		<polygon class="st2" points="465.4,95.7 461.5,91.3 473.9,83.3 476.3,88.9 		"/>
		<path class="st2" d="M487.8,95.5c0.1-0.2,3.5-5.5,3.5-5.5l-12.9-7.2l-2.1,6.1L487.8,95.5z"/>
		<polygon class="st2" points="476.4,102.4 478.4,98.8 491,91.3 488.1,95.9 		"/>
		<path class="st4" d="M464.6,96.2l10.5,5.9c0.4,0.3,0.8,0.5,1.2,0.7c0.4,0.1,0.8-0.2,1.1-0.4l6.1-3.4l5-2.8
			c0.2-0.1,0.2-0.3,0.1-0.5c-0.1-0.2-0.3-0.2-0.5-0.1l-10.4,5.8c-0.4,0.2-1.3,0.5-1.6,0.9c0.1-0.2,0.4,0.2,0.2-0.1s-0.5-0.3-0.7-0.4
			l-6-3.3l-4.8-2.7C464.6,95.3,464.2,95.9,464.6,96.2L464.6,96.2z"/>
		<path class="st4" d="M461.3,91.6l6.2,3.7l4.3,2.5c0.7,0.4,1.5,0.8,2.2,1.3c-0.2-0.2-0.1-0.2-0.1,0c0.1,0.1,0.1,0.2,0.2,0.3
			l0.6,1.2l1,1.9c0.2,0.4,0.9,0,0.6-0.4l-0.8-1.5c-0.3-0.6-0.6-1.3-1-1.9c-0.5-0.5-1.1-0.8-1.7-1.1l-8.6-5.1l-2.5-1.5
			c-0.2-0.1-0.4,0-0.5,0.2C461.1,91.3,461.2,91.5,461.3,91.6L461.3,91.6z"/>
		<path class="st4" d="M490.9,91l-6.3,3.7l-4.4,2.6c-0.7,0.3-1.4,0.7-2,1.2c-0.4,0.5-0.8,1.1-1,1.7l-1.1,1.9
			c-0.2,0.4,0.4,0.8,0.6,0.4c0.7-1.1,1.3-2.2,1.9-3.4c0.1-0.2-0.2,0.1,0,0c0.1-0.1,0.2-0.1,0.3-0.2l1.3-0.8l8.6-5.1l2.4-1.4
			c0.2-0.1,0.2-0.3,0.1-0.5C491.3,90.9,491.1,90.9,490.9,91L490.9,91z"/>
		<path class="st4" d="M467.3,94.9l9.2-5.6h-0.4l9.7,5.4c0.4,0.2,0.8-0.4,0.4-0.7l-9.7-5.4c-0.1-0.1-0.3-0.1-0.4,0l-9.2,5.6
			C466.5,94.5,466.9,95.1,467.3,94.9z"/>
		<path class="st6" d="M482,52.6l15.7,9.2c1.8,1.1,4.1,1.1,6,0l16.1-9.3c1.4-0.8,1.8-2.5,1-3.9c-0.2-0.4-0.6-0.8-1-1l-17.2-10.3
			c-0.9-0.5-2-0.5-2.9,0L482,47.7c-1.4,0.8-1.8,2.5-1,3.9C481.2,52,481.6,52.4,482,52.6z"/>
		<path class="st3" d="M476.6,32.6l18.7,10.9c2.3,1.4,5.2,1.4,7.6,0l18.6-10.7c2.3-1.5,2.3-6.7,1.6-8.3L501.2,15c-0.9-0.5-2-0.5-3,0
			l-21.4,11.5c-0.1-1-1-1.3-1-1.2C475.4,27.5,474.7,31.2,476.6,32.6z"/>
		<path class="st7" d="M477.5,27.4l18.4,10.7c2.1,1.2,4.8,1.2,6.9,0l18.8-10.8c1.6-0.9,2.1-2.9,1.2-4.5c-0.3-0.5-0.7-0.9-1.2-1.2
			l-20-12.1c-1-0.6-2.3-0.6-3.4,0l-20.8,12.1c-1.6,0.9-2.1,2.9-1.2,4.5C476.6,26.7,477.1,27.1,477.5,27.4z"/>
		<path class="st2" d="M586.2,137.7l-8.1,4.9c-0.5,0.3-0.8,0.9-0.8,1.5v8.9c0,0.6,0.3,1.2,0.9,1.5l8.1,4.7c0.5,0.3,1.2,0.3,1.7,0
			l8.3-4.8c0.5-0.3,0.9-0.9,0.9-1.5V144c0-0.6-0.3-1.2-0.9-1.5l-8.3-4.9C587.4,137.3,586.8,137.3,586.2,137.7z"/>
		<polygon class="st5" points="590.6,150.3 590.5,146.9 580.7,141 583.3,139.4 593.3,145.3 593.3,148.8 		"/>
		<path class="st4" d="M577.4,143.6l8.5,4.8c0.3,0.2,0.6,0.4,1,0.5c0.3,0,0.7-0.3,1-0.4l5-2.8l4-2.3c0.4-0.2,0-0.9-0.4-0.6l-8.3,4.6
			c-0.2,0.1-1.3,0.5-1.3,0.7s0.4,0.2,0.2,0s-0.4-0.2-0.5-0.3l-4.8-2.7l-4-2.2C577.4,142.7,577,143.4,577.4,143.6L577.4,143.6z"/>
		<path class="st4" d="M587.4,159.4v-10.8c0-0.2-0.2-0.3-0.4-0.3c-0.2,0-0.3,0.2-0.3,0.3v10.8c0,0.2,0.2,0.3,0.4,0.3
			C587.2,159.7,587.4,159.6,587.4,159.4z"/>
		<path class="st5" d="M594.2,154.5l1.9-1.1c0.1-0.1,0.2-0.2,0.2-0.4v-0.8c0-0.1-0.1-0.3-0.2-0.3c0,0-0.1,0-0.1,0l-1.8,1.1
			c-0.2,0.1-0.3,0.3-0.3,0.4v0.7c0,0.1,0.1,0.3,0.2,0.3C594.1,154.5,594.1,154.5,594.2,154.5z"/>
		<path class="st5" d="M578.1,145.6c0,0.5,0,1.4,0,1.8c0,0.2,0.1,0.4,0.3,0.5l2.2,1.4c0.1,0.1,0.3,0.1,0.4,0c0-0.1,0.1-0.1,0-0.2
			v-1.8c0-0.2-0.1-0.4-0.3-0.5l-2.3-1.3c-0.1-0.1-0.3,0-0.3,0.1C578.1,145.5,578.1,145.5,578.1,145.6z"/>
		<path class="st2" d="M498.1,8.9l-8.1,4.9c-0.5,0.3-0.8,0.9-0.8,1.5v8.9c0,0.6,0.3,1.2,0.9,1.5l8.1,4.7c0.5,0.3,1.2,0.3,1.7,0
			l8.3-4.8c0.5-0.3,0.9-0.9,0.9-1.5v-8.9c0-0.6-0.3-1.2-0.9-1.5l-8.3-4.8C499.3,8.5,498.7,8.5,498.1,8.9z"/>
		<polygon class="st5" points="502.5,21.5 502.4,18.1 492.6,12.2 495.3,10.6 505.2,16.5 505.2,20 		"/>
		<path class="st4" d="M489.3,14.8l8.5,4.8c0.3,0.2,0.6,0.4,1,0.5c0.3,0,0.7-0.3,1-0.4l5-2.8l4-2.2c0.4-0.2,0-0.9-0.4-0.6l-8.3,4.6
			c-0.2,0.1-1.3,0.5-1.3,0.8c0,0.1,0.4,0.2,0.2,0s-0.4-0.2-0.5-0.3l-4.8-2.7l-4-2.2C489.3,13.9,488.9,14.6,489.3,14.8L489.3,14.8z"
			/>
		<path class="st4" d="M499.3,30.6V19.8c0-0.2-0.2-0.3-0.4-0.3c-0.2,0-0.3,0.2-0.3,0.3v10.8c0,0.2,0.2,0.3,0.4,0.3
			C499.1,30.9,499.3,30.8,499.3,30.6z"/>
		<path class="st5" d="M506.1,25.7l1.9-1.1c0.1-0.1,0.2-0.2,0.2-0.4v-0.8c0-0.1-0.1-0.2-0.3-0.2c0,0-0.1,0-0.1,0l-1.8,1.1
			c-0.2,0.1-0.3,0.3-0.3,0.5v0.7C505.8,25.6,505.9,25.7,506.1,25.7C506,25.7,506.1,25.7,506.1,25.7z"/>
		<path class="st5" d="M490,16.8c0,0.5,0,1.4,0,1.8c0,0.2,0.1,0.4,0.3,0.5l2.2,1.4c0.1,0.1,0.3,0,0.3-0.1c0,0,0-0.1,0-0.1v-1.8
			c0-0.2-0.1-0.4-0.3-0.5l-2.3-1.3C490.2,16.5,490.1,16.6,490,16.8C490,16.7,490,16.8,490,16.8z"/>
		<path class="st2" d="M660.3,161.9l-6.1,3.7c-0.4,0.2-0.6,0.7-0.6,1.1v6.7c0,0.5,0.2,0.9,0.7,1.1l6.1,3.5c0.4,0.2,0.9,0.2,1.3,0
			l6.3-3.6c0.4-0.2,0.7-0.7,0.7-1.1v-6.7c0-0.5-0.3-0.9-0.7-1.1l-6.3-3.6C661.2,161.7,660.7,161.7,660.3,161.9z"/>
		<polygon class="st5" points="663.6,171.4 663.5,168.9 656.1,164.4 658.1,163.2 665.6,167.7 665.6,170.3 		"/>
		<path class="st4" d="M653.6,166.4l6.4,3.6c0.2,0.2,0.5,0.3,0.8,0.4c0.3,0.1,0.6-0.2,0.8-0.3l3.7-2.1l3-1.7c0.4-0.2,0-0.9-0.4-0.6
			l-7.3,4.1h0.4l-7.1-4C653.5,165.6,653.2,166.2,653.6,166.4L653.6,166.4z"/>
		<path class="st4" d="M661.3,178.2v-8.1c0-0.2-0.2-0.3-0.4-0.3c-0.2,0-0.3,0.2-0.3,0.3v8.1c0,0.2,0.2,0.3,0.4,0.3
			C661.1,178.5,661.2,178.4,661.3,178.2z"/>
		<path class="st5" d="M666.3,174.5l1.4-0.8c0.1-0.1,0.2-0.2,0.2-0.3v-0.6c0-0.1-0.1-0.2-0.2-0.2c0,0-0.1,0-0.1,0l-1.4,0.8
			c-0.1,0.1-0.2,0.2-0.2,0.3v0.5C666,174.5,666.1,174.6,666.3,174.5C666.2,174.6,666.3,174.6,666.3,174.5z"/>
		<path class="st5" d="M654.2,167.9c0,0.4,0,1,0,1.4c0,0.1,0.1,0.3,0.2,0.4l1.7,1c0.1,0,0.2,0,0.3-0.1c0,0,0-0.1,0-0.1v-1.4
			c0-0.2-0.1-0.3-0.2-0.4l-1.7-1C654.3,167.6,654.2,167.7,654.2,167.9C654.2,167.8,654.2,167.8,654.2,167.9z"/>
		<path class="st8" d="M414.3,31.5l-9.6,5.8c-0.6,0.4-1,1-1,1.7v10.5c0,0.7,0.4,1.4,1,1.8l9.5,5.5c0.6,0.4,1.4,0.4,2,0l9.8-5.6
			c0.6-0.4,1-1,1-1.8V38.9c0-0.7-0.4-1.4-1-1.8l-9.8-5.7C415.7,31.1,414.9,31.1,414.3,31.5z"/>
		<polygon class="st5" points="419.5,46.3 419.4,42.3 407.9,35.4 411,33.5 422.6,40.5 422.7,44.5 		"/>
		<path class="st4" d="M404,38.3l10.1,5.7c0.3,0.3,0.7,0.5,1.1,0.6c0.4,0,0.8-0.3,1.1-0.5l5.8-3.3l4.7-2.6c0.2-0.1,0.2-0.4,0.1-0.5
			c-0.1-0.1-0.3-0.2-0.4-0.1l-9.8,5.4c-0.2,0.1-1.5,0.6-1.6,0.9c0,0.1,0.3,0.2,0.2,0s-0.5-0.3-0.6-0.4l-5.7-3.2l-4.7-2.6
			C404,37.4,403.6,38.1,404,38.3L404,38.3z"/>
		<path class="st4" d="M415.7,57V44.3c0-0.2-0.2-0.3-0.4-0.3c-0.2,0-0.3,0.2-0.3,0.3V57c0,0.2,0.2,0.3,0.4,0.3
			C415.5,57.3,415.6,57.2,415.7,57z"/>
		<path class="st5" d="M423.7,51.2l2.2-1.3c0.2-0.1,0.2-0.2,0.2-0.4v-0.9c0-0.2-0.1-0.3-0.3-0.3c-0.1,0-0.1,0-0.2,0l-2.1,1.3
			c-0.2,0.1-0.3,0.3-0.3,0.5v0.8c0,0.2,0.1,0.3,0.3,0.3C423.6,51.2,423.7,51.2,423.7,51.2z"/>
		<path class="st5" d="M404.8,40.8c0,0.6,0,1.6,0,2.1c0,0.2,0.1,0.4,0.3,0.6l2.6,1.5c0.1,0.1,0.3,0,0.4-0.1c0,0,0-0.1,0-0.1v-2.2
			c0-0.2-0.1-0.5-0.3-0.6l-2.6-1.5c-0.1-0.1-0.3,0-0.4,0.1C404.8,40.7,404.8,40.7,404.8,40.8z"/>
		<path class="st2" d="M447.5,105l-8.1,5c-0.5,0.3-0.8,0.9-0.8,1.5v8.9c0,0.6,0.3,1.2,0.9,1.5l8.1,4.7c0.5,0.3,1.2,0.3,1.7,0
			l8.3-4.8c0.5-0.3,0.9-0.9,0.9-1.5v-8.9c0-0.6-0.3-1.2-0.9-1.5l-8.3-4.9C448.7,104.7,448.1,104.7,447.5,105z"/>
		<polygon class="st5" points="452,117.7 451.8,114.3 442,108.4 444.7,106.8 454.6,112.7 454.6,116.2 		"/>
		<path class="st4" d="M438.7,110.9l8.5,4.8c0.3,0.2,0.6,0.4,1,0.5c0.3,0,0.7-0.3,1-0.4l5-2.8l4-2.3c0.4-0.2,0-0.9-0.4-0.7l-8.3,4.6
			c-0.2,0.1-1.3,0.5-1.3,0.7s0.4,0.2,0.2,0s-0.4-0.2-0.5-0.3l-4.8-2.7l-4-2.2C438.7,110.1,438.3,110.7,438.7,110.9L438.7,110.9z"/>
		<path class="st4" d="M448.7,126.8v-10.8c0-0.2-0.2-0.3-0.4-0.3c-0.2,0-0.3,0.2-0.3,0.3v10.8c0,0.2,0.2,0.3,0.4,0.3
			C448.6,127,448.7,126.9,448.7,126.8z"/>
		<path class="st5" d="M455.5,121.8l1.9-1.1c0.1-0.1,0.2-0.2,0.2-0.4v-0.8c0-0.1-0.1-0.3-0.2-0.3c0,0-0.1,0-0.1,0l-1.8,1.1
			c-0.2,0.1-0.3,0.3-0.3,0.4v0.7c0,0.1,0.1,0.3,0.2,0.3C455.4,121.9,455.4,121.9,455.5,121.8z"/>
		<path class="st5" d="M439.4,112.9c0,0.5,0,1.4,0,1.8c0,0.2,0.1,0.4,0.3,0.5l2.2,1.3c0.1,0.1,0.3,0,0.3-0.1c0,0,0-0.1,0-0.1v-1.8
			c0-0.2-0.1-0.4-0.3-0.5l-2.3-1.3C439.6,112.7,439.5,112.7,439.4,112.9C439.4,112.9,439.4,112.9,439.4,112.9z"/>
		<polygon class="st7" points="612.3,119.3 624.5,126.2 668.7,100.5 656.5,93.6 		"/>
		<path class="st7" d="M608.8,115.5l-2.2,13.8l22.5-0.7C629.1,128.7,609,115.8,608.8,115.5z"/>
		<polygon class="st7" points="603.2,234.4 615.4,241.3 659.6,215.6 647.4,208.7 		"/>
		<path class="st7" d="M599.7,230.6l-2.2,13.8l22.5-0.7C620,243.7,599.9,230.9,599.7,230.6z"/>
		<path class="st9" d="M530.3,190.2c0.4-2.7-0.9-5.4-3.2-6.8c-0.8-0.5-2-0.7-2.7,0c-0.4,0.4-0.5,1-0.3,1.5c0.2,0.5,0.4,1,0.8,1.4
			C526.4,188,528.2,189.3,530.3,190.2"/>
		<path class="st9" d="M531.1,189.9c1.8,0,3.6-0.7,5-1.9c0.5-0.3,0.7-0.8,0.7-1.4c-0.1-0.4-0.4-0.8-0.8-0.9c-0.4-0.1-0.8-0.1-1.2,0
			C532.7,186.1,531.2,187.8,531.1,189.9"/>
		<path class="st4" d="M527,185.7c2.2,2.1,3.6,4.8,4,7.8c0.1,0.5,0.8,0.5,0.8,0c-0.3-3.2-1.8-6.2-4.2-8.4
			C527.2,184.8,526.7,185.4,527,185.7z"/>
		<path class="st4" d="M531,190.4l3.7-2.9c0.1-0.1,0.1-0.4,0-0.5c0,0,0,0,0,0c-0.1-0.1-0.4-0.1-0.5,0l-3.7,2.9
			c-0.1,0.1-0.1,0.4,0,0.5S530.9,190.5,531,190.4L531,190.4z"/>
		<path class="st9" d="M636.9,132.6c0.4-2.7-0.9-5.4-3.2-6.8c-0.8-0.5-2-0.7-2.7,0c-0.4,0.4-0.5,1-0.3,1.5c0.2,0.5,0.4,1,0.8,1.4
			C633,130.5,634.8,131.8,636.9,132.6"/>
		<path class="st9" d="M637.7,132.3c1.8,0,3.6-0.7,5-1.9c0.5-0.3,0.7-0.8,0.7-1.4c-0.1-0.4-0.4-0.8-0.8-0.9c-0.4-0.1-0.8-0.1-1.2,0
			C639.3,128.5,637.7,130.3,637.7,132.3"/>
		<path class="st4" d="M633.5,128.2c2.2,2.1,3.6,4.8,4,7.8c0,0.5,0.8,0.5,0.8,0c-0.4-3.2-1.8-6.2-4.2-8.4
			C633.8,127.3,633.2,127.8,633.5,128.2L633.5,128.2z"/>
		<path class="st4" d="M637.5,132.8l3.7-2.9c0.1-0.1,0.1-0.4,0-0.5s-0.4-0.1-0.5,0l-3.7,2.9c-0.1,0.1-0.1,0.4,0,0.5
			S637.4,133,637.5,132.8z"/>
		<path class="st9" d="M547.5,13.7c0.4-2.7-0.9-5.3-3.2-6.8c-0.8-0.5-2-0.7-2.7,0c-0.4,0.4-0.5,1-0.3,1.5c0.2,0.5,0.4,1,0.8,1.4
			C543.6,11.5,545.4,12.8,547.5,13.7"/>
		<path class="st9" d="M548.3,13.4c1.8,0,3.6-0.7,5-1.9c0.5-0.3,0.7-0.8,0.7-1.4c-0.1-0.4-0.4-0.8-0.8-0.9c-0.4-0.1-0.8-0.1-1.2,0
			C549.9,9.6,548.3,11.3,548.3,13.4"/>
		<path class="st4" d="M544.1,9.2c2.2,2.1,3.6,4.8,4,7.8c0.1,0.5,0.8,0.5,0.8,0c-0.3-3.2-1.8-6.2-4.2-8.4
			C544.3,8.3,543.8,8.9,544.1,9.2z"/>
		<path class="st4" d="M548.1,13.9l3.7-2.9c0.1-0.1,0.1-0.4,0-0.5c0,0,0,0,0,0c-0.1-0.1-0.4-0.1-0.5,0l-3.7,2.9
			c-0.1,0.1-0.1,0.4,0,0.5C547.7,14,548,14,548.1,13.9z"/>
		<path class="st9" d="M468.3,137.1c0.4-2.7-0.9-5.4-3.1-6.8c-0.8-0.5-2-0.7-2.6,0c-0.4,0.4-0.5,1-0.3,1.5c0.2,0.5,0.4,1,0.8,1.4
			C464.4,135,466.2,136.3,468.3,137.1"/>
		<path class="st9" d="M469.1,136.8c1.9,0,3.7-0.7,5-1.9c0.5-0.3,0.7-0.8,0.7-1.4c-0.1-0.4-0.4-0.8-0.8-0.9c-0.4-0.1-0.8-0.1-1.2,0
			C470.7,133,469.2,134.8,469.1,136.8"/>
		<path class="st4" d="M464.9,132.7c2.2,2.1,3.6,4.8,4,7.8c0,0.5,0.8,0.5,0.8,0c-0.4-3.2-1.8-6.2-4.2-8.4
			C465.1,131.8,464.6,132.3,464.9,132.7z"/>
		<path class="st4" d="M468.9,137.3l3.7-2.9c0.1-0.1,0.1-0.4,0-0.5c-0.1-0.1-0.4-0.1-0.5,0l-3.7,2.9c-0.1,0.1-0.1,0.4,0,0.5
			S468.8,137.5,468.9,137.3z"/>
		
			<ellipse transform="matrix(0.2159 -0.9764 0.9764 0.2159 304.5302 520.0563)" class="st10" cx="476.1" cy="70.4" rx="10.8" ry="10.8"/>
		<path class="st11" d="M483.3,70.4c0,4-3.3,7.3-7.3,7.3s-7.3-3.3-7.3-7.3s3.3-7.3,7.3-7.3c0.5,0,0.9,0,1.3,0.1
			C480.8,63.9,483.3,66.9,483.3,70.4c0,0.3,0.4,0.6,0.7,0.5c0.3,0,0.5-0.3,0.5-0.5c0-4.7-3.8-8.6-8.5-8.6c-4.7,0-8.6,3.8-8.6,8.5
			c0,4.7,3.8,8.6,8.5,8.6c0.5,0,1,0,1.6-0.1c4-0.8,6.9-4.3,7-8.4c0-0.3-0.4-0.6-0.7-0.5C483.6,69.9,483.4,70.1,483.3,70.4z"/>
		<path class="st11" d="M477.6,72.6c-0.3,0.3-0.7,0.5-1.2,0.6v0.2c0,0.1,0,0.2-0.1,0.3c-0.1,0.1-0.2,0.1-0.3,0.1
			c-0.1,0-0.2,0-0.3-0.1c-0.1-0.1-0.1-0.2-0.1-0.3v-0.2c-0.4,0-0.8-0.2-1.1-0.4c-0.3-0.2-0.5-0.4-0.7-0.8c-0.1-0.1-0.1-0.2-0.1-0.3
			c0-0.1,0-0.2,0.1-0.3c0.1-0.1,0.2-0.1,0.3-0.1c0.1,0,0.2,0,0.3,0.1c0.1,0.1,0.1,0.1,0.2,0.2c0.1,0.2,0.2,0.4,0.4,0.5
			c0.2,0.1,0.4,0.2,0.6,0.3v-1.9c-0.4-0.1-0.8-0.3-1.2-0.6c-0.3-0.3-0.4-0.6-0.4-1c0-0.4,0.1-0.8,0.4-1.1c0.3-0.3,0.8-0.5,1.2-0.5
			v-0.2c0-0.1,0-0.2,0.1-0.3c0.1-0.1,0.2-0.1,0.3-0.1c0.1,0,0.2,0.1,0.3,0.1c0.1,0.1,0.1,0.2,0.1,0.3v0.2c0.4,0,0.8,0.2,1.1,0.4
			c0.3,0.2,0.4,0.5,0.4,0.9c0,0.1,0,0.2-0.1,0.3c-0.1,0.1-0.2,0.1-0.3,0.1c-0.1,0-0.2,0-0.3-0.1c-0.1-0.1-0.1-0.2-0.1-0.3
			c0-0.1-0.1-0.3-0.2-0.3c-0.2-0.1-0.3-0.2-0.5-0.2v1.7c1.1,0.3,1.6,0.9,1.6,1.7C478.1,71.9,477.9,72.3,477.6,72.6z M475.1,69.2
			c0.2,0.1,0.4,0.3,0.6,0.3v-1.5c-0.2,0-0.4,0.1-0.6,0.3c-0.1,0.1-0.2,0.3-0.2,0.4C474.9,69,474.9,69.1,475.1,69.2z M477,72.1
			c0.1-0.1,0.2-0.3,0.2-0.5c0-0.2-0.1-0.3-0.2-0.4c-0.2-0.2-0.4-0.3-0.6-0.4v1.7C476.6,72.3,476.8,72.2,477,72.1z"/>
		<path class="st5" d="M467.1,71.4c-0.5-3.4,1.1-6.8,4-8.5c0.3-0.2,0.3-0.6,0.1-0.9c-0.2-0.2-0.5-0.3-0.7-0.2
			c-3.4,2.1-5.2,6-4.6,9.9C466,72.5,467.2,72.2,467.1,71.4L467.1,71.4z"/>
		<path class="st5" d="M472.2,62.2l0.5-0.2c0.1,0,0.2-0.1,0.2-0.1c0.1,0,0.1-0.1,0.2-0.2c0-0.1,0.1-0.2,0.1-0.2c0-0.1,0-0.2,0-0.3
			l-0.1-0.1c-0.1-0.1-0.1-0.2-0.2-0.2l-0.1-0.1c-0.1,0-0.2,0-0.3,0l-0.5,0.2c-0.1,0-0.1,0.1-0.2,0.1c-0.1,0-0.1,0.1-0.2,0.2
			c0,0.1-0.1,0.1-0.1,0.2c0,0.1,0,0.2,0,0.3l0.1,0.2c0.1,0.1,0.1,0.2,0.2,0.2l0.1,0.1C472,62.2,472.1,62.2,472.2,62.2z"/>
		<path class="st5" d="M484,70.8c-0.1,2.2-1.2,4.3-2.8,5.7c-0.2,0.3-0.2,0.7,0.1,0.9c0.2,0.2,0.6,0.2,0.8,0c1.9-1.7,3-4.1,3.2-6.6
			C485.3,70,484.1,70,484,70.8L484,70.8z"/>
		<path class="st12" d="M479.8,113l26.7,15l3.7,2.1c2.4,1.4,5.4,0.7,6.9-1.7c1.4-2.4,0.7-5.4-1.7-6.9c0,0-0.1,0-0.1-0.1l-26.7-15.1
			l-3.7-2.1c-2.4-1.4-5.5-0.5-6.8,1.9C476.7,108.6,477.5,111.6,479.8,113L479.8,113z"/>
		<path class="st3" d="M500,121.3c-0.6-1.7,0.3-3.6,2.1-4.3c0.1,0,0.1,0,0.2-0.1c0.2-0.1,0.3-0.3,0.3-0.5c-0.1-0.2-0.3-0.3-0.5-0.3
			l0,0c-2.2,0.6-3.4,2.9-2.8,5c0,0.1,0,0.1,0.1,0.2C499.4,122,500.1,121.8,500,121.3z"/>
		<path class="st3" d="M503.1,123.1c-0.6-1.7,0.3-3.6,2.1-4.3c0.1,0,0.1,0,0.2-0.1c0.2-0.1,0.3-0.3,0.3-0.5
			c-0.1-0.2-0.3-0.3-0.5-0.3l0,0c-2.2,0.6-3.4,2.9-2.8,5.1c0,0.1,0,0.1,0,0.2C502.5,123.7,503.2,123.6,503.1,123.1z"/>
		<path class="st3" d="M506.1,124.8c-0.6-1.7,0.3-3.6,2.1-4.3c0.1,0,0.1,0,0.2-0.1c0.2-0.1,0.3-0.3,0.3-0.5
			c-0.1-0.2-0.3-0.3-0.5-0.3c-2.2,0.6-3.4,2.9-2.8,5.1c0,0,0,0.1,0,0.1C505.5,125.4,506.3,125.3,506.1,124.8L506.1,124.8z"/>
		<path class="st3" d="M483,112c-0.6-1.7,0.3-3.7,2.1-4.3c0.1,0,0.1,0,0.2,0c0.2-0.1,0.3-0.3,0.3-0.5c-0.1-0.2-0.3-0.3-0.5-0.3l0,0
			c-1,0.3-1.9,1-2.4,1.9c-0.6,1-0.7,2.2-0.4,3.4C482.4,112.7,483.1,112.5,483,112z"/>
		<path class="st3" d="M486.4,113.8c-0.6-1.7,0.3-3.7,2.1-4.3c0.1,0,0.1,0,0.2,0c0.2-0.1,0.3-0.3,0.3-0.5c-0.1-0.2-0.3-0.3-0.5-0.3
			l0,0c-2.2,0.6-3.4,2.9-2.8,5.1c0,0.1,0,0.1,0.1,0.2C485.8,114.4,486.5,114.2,486.4,113.8z"/>
		<path class="st3" d="M489.8,115.7c-0.6-1.7,0.3-3.6,2.1-4.3c0.1,0,0.1,0,0.2-0.1c0.2-0.1,0.3-0.3,0.3-0.5
			c-0.1-0.2-0.3-0.3-0.5-0.3l0,0c-1,0.3-1.9,1-2.4,1.9c-0.6,1-0.7,2.2-0.4,3.4C489.2,116.3,489.9,116.2,489.8,115.7z"/>
		<path class="st3" d="M493.2,117.6c-0.6-1.7,0.3-3.6,2-4.2c0.1,0,0.1,0,0.2-0.1c0.2-0.1,0.3-0.3,0.2-0.5c-0.1-0.2-0.2-0.3-0.4-0.2
			c-1,0.3-1.9,1-2.4,1.9c-0.6,1-0.7,2.2-0.4,3.4C492.6,118.3,493.3,118.1,493.2,117.6z"/>
		<path class="st3" d="M496.7,119.5c-0.3-0.9-0.2-1.9,0.3-2.8c0.4-0.7,1.2-1.3,2-1.5c0.5-0.1,0.3-0.9-0.2-0.7c-1,0.3-1.9,1-2.4,1.9
			c-0.6,1-0.7,2.2-0.4,3.4C496.2,120.2,496.9,120,496.7,119.5L496.7,119.5z"/>
		<path class="st3" d="M488.9,148.9l40.3,23.6c5,3,11.3,3,16.4,0.1l40.3-23.2c5-3.3,4.2-11,2.7-14.2L542,110.9c-2-1.2-4.4-1.2-6.4,0
			l-46.2,24.9c-0.3-2.3-2.4,0-2.4,0.2C486,140.6,484.8,145.8,488.9,148.9z"/>
		<path class="st12" d="M502.7,151.4l-25.8,16.5l-3.6,2.3c-2.2,1.4-3.3,4.5-1.8,6.9c1.4,2.3,4.5,3.1,6.8,1.8l25.8-16.4l3.6-2.3
			c2.2-1.4,3.3-4.5,1.8-6.8C508.1,150.9,505.1,150.1,502.7,151.4z"/>
		<path class="st3" d="M486,165c1.8,0.3,3.1,2,2.8,3.9c0,0.1,0,0.1,0,0.2c-0.1,0.5,0.6,0.7,0.7,0.2c0.5-2.2-0.9-4.5-3.1-5
			c-0.1,0-0.1,0-0.2,0C485.7,164.2,485.5,164.9,486,165L486,165z"/>
		<path class="st3" d="M502.4,154.4c0.9,0.2,1.7,0.6,2.2,1.4c0.6,0.8,0.8,1.8,0.6,2.7c-0.1,0.5,0.6,0.7,0.7,0.2
			c0.5-2.2-0.9-4.5-3.1-5c-0.1,0-0.1,0-0.2,0C502.2,153.6,502,154.3,502.4,154.4z"/>
		<path class="st3" d="M499.3,156.5c0.9,0.2,1.7,0.6,2.2,1.4c0.6,0.8,0.8,1.8,0.6,2.7c-0.1,0.5,0.6,0.7,0.7,0.2
			c0.5-2.2-0.9-4.5-3.1-5c-0.1,0-0.1,0-0.2,0C499,155.7,498.8,156.4,499.3,156.5L499.3,156.5z"/>
		<path class="st3" d="M495.9,158.6c1.9,0.3,3.1,2.1,2.8,3.9c0,0.1,0,0.1,0,0.2c-0.1,0.5,0.6,0.7,0.7,0.2c0.5-2.2-0.9-4.5-3.1-5
			c-0.1,0-0.1,0-0.2,0C495.6,157.8,495.4,158.5,495.9,158.6z"/>
		<path class="st3" d="M492.6,160.9c1.9,0.3,3.1,2.1,2.8,3.9c0,0.1,0,0.1,0,0.2c-0.1,0.5,0.6,0.7,0.7,0.2c0.5-2.2-0.9-4.5-3.1-5
			c-0.1,0-0.1,0-0.2,0C492.3,160,492.1,160.8,492.6,160.9z"/>
		<path class="st3" d="M489.2,163.1c0.9,0.2,1.7,0.6,2.2,1.4c0.6,0.8,0.8,1.8,0.6,2.7c-0.1,0.5,0.6,0.7,0.7,0.2
			c0.5-2.2-0.9-4.5-3.1-5c-0.1,0-0.1,0-0.2,0C488.9,162.3,488.7,163,489.2,163.1L489.2,163.1z"/>
		<path class="st12" d="M586.8,105.6L561,122l-3.6,2.3c-2.5,1.2-3.5,4.2-2.3,6.7c1.2,2.5,4.2,3.5,6.7,2.3c0.2-0.1,0.4-0.2,0.6-0.4
			l25.8-16.4l3.6-2.3c2.2-1.4,3.3-4.5,1.8-6.8C592.2,105,589.2,104.2,586.8,105.6L586.8,105.6z"/>
		<path class="st3" d="M570.2,119.1c1.9,0.3,3.1,2.1,2.8,3.9c0,0.1,0,0.1,0,0.2c-0.1,0.5,0.6,0.7,0.7,0.2c0.5-2.2-0.9-4.4-3.1-5
			c-0.1,0-0.1,0-0.2,0C569.9,118.3,569.7,119,570.2,119.1L570.2,119.1z"/>
		<path class="st3" d="M586.6,108.5c1.9,0.3,3.1,2.1,2.8,3.9c0,0.1,0,0.1,0,0.2c-0.1,0.5,0.6,0.7,0.7,0.2c0.5-2.2-0.9-4.5-3.1-5
			c-0.1,0-0.1,0-0.2,0C586.3,107.7,586.1,108.5,586.6,108.5L586.6,108.5z"/>
		<path class="st3" d="M583.4,110.7c0.9,0.2,1.7,0.6,2.2,1.4c0.6,0.8,0.8,1.8,0.6,2.7c-0.1,0.5,0.6,0.7,0.7,0.2
			c0.3-1.1,0-2.3-0.6-3.3c-0.6-0.9-1.6-1.5-2.7-1.7C583.1,109.9,582.9,110.6,583.4,110.7L583.4,110.7z"/>
		<path class="st3" d="M580,112.8c0.9,0.2,1.7,0.6,2.2,1.4c0.6,0.8,0.8,1.8,0.6,2.7c-0.1,0.5,0.6,0.7,0.7,0.2c0.5-2.2-0.9-4.5-3.1-5
			c-0.1,0-0.1,0-0.2,0C579.7,111.9,579.5,112.7,580,112.8L580,112.8z"/>
		<path class="st3" d="M576.7,115c1.8,0.3,3.1,2,2.8,3.9c0,0.1,0,0.1,0,0.2c-0.1,0.5,0.6,0.7,0.7,0.2c0.5-2.2-0.9-4.5-3.1-5
			c-0.1,0-0.1,0-0.2,0C576.5,114.2,576.3,114.9,576.7,115L576.7,115z"/>
		<path class="st3" d="M573.3,117.2c0.9,0.2,1.7,0.6,2.2,1.4c0.6,0.8,0.8,1.8,0.5,2.7c-0.1,0.5,0.6,0.7,0.7,0.2
			c0.5-2.2-0.9-4.5-3.1-5c-0.1,0-0.1,0-0.2,0C573.1,116.4,572.9,117.1,573.3,117.2z"/>
		<path class="st12" d="M564.2,161.8l27.2,14.1l3.8,2c2.3,1.2,5.5,0.7,6.8-1.8c1.2-2.3,0.7-5.6-1.8-6.8l-27.2-14.1l-3.8-2
			c-2.3-1.2-5.5-0.7-6.8,1.8C561.2,157.2,561.8,160.5,564.2,161.8L564.2,161.8z"/>
		<path class="st3" d="M584.4,169.4c-0.3-0.9-0.3-1.9,0.2-2.8c0.4-0.8,1.1-1.4,2-1.6c0.5-0.1,0.3-0.9-0.2-0.7
			c-2.2,0.7-3.4,3-2.7,5.2c0,0.1,0,0.1,0,0.1C583.9,170.1,584.6,169.9,584.4,169.4L584.4,169.4z"/>
		<path class="st3" d="M587.8,171.1c-0.7-1.8,0.2-3.7,2-4.4c0,0,0.1,0,0.1-0.1c0.5-0.1,0.3-0.9-0.2-0.7c-1,0.3-1.9,1.1-2.4,2
			c-0.6,1-0.7,2.3-0.3,3.4C587.2,171.8,588,171.6,587.8,171.1L587.8,171.1z"/>
		<path class="st3" d="M591.2,172.8c-0.7-1.8,0.2-3.7,2-4.4c0.1,0,0.1,0,0.2-0.1c0.5-0.1,0.3-0.9-0.2-0.7c-2.2,0.7-3.4,3-2.7,5.2
			c0,0.1,0,0.1,0.1,0.2C590.6,173.4,591.3,173.2,591.2,172.8L591.2,172.8z"/>
		<path class="st3" d="M594.6,174.5c-0.3-0.9-0.3-1.9,0.2-2.8c0.4-0.8,1.1-1.4,2-1.6c0.5-0.1,0.3-0.9-0.2-0.7
			c-2.2,0.7-3.4,3-2.7,5.2c0,0.1,0,0.1,0.1,0.2C594.1,175.1,594.8,174.9,594.6,174.5L594.6,174.5z"/>
		<path class="st3" d="M567,160.6c-0.7-1.7,0.2-3.7,2-4.4c0.1,0,0.1,0,0.2-0.1c0.5-0.1,0.3-0.9-0.2-0.7c-2.2,0.7-3.4,3-2.7,5.2
			c0,0,0,0.1,0,0.1C566.4,161.2,567.2,161,567,160.6z"/>
		<path class="st3" d="M570.4,162.3c-0.3-0.9-0.3-1.9,0.2-2.8c0.4-0.8,1.1-1.4,2-1.6c0.5-0.1,0.3-0.9-0.2-0.7
			c-2.2,0.7-3.4,3-2.7,5.2c0,0.1,0,0.1,0.1,0.2C569.9,162.9,570.6,162.7,570.4,162.3L570.4,162.3z"/>
		<path class="st3" d="M573.9,164.1c-0.7-1.8,0.2-3.7,2-4.4c0,0,0.1,0,0.1-0.1c0.5-0.1,0.3-0.9-0.2-0.7c-2.2,0.7-3.4,3-2.7,5.2
			c0,0.1,0,0.1,0.1,0.2C573.4,164.8,574.1,164.6,573.9,164.1z"/>
		<path class="st3" d="M577.5,165.8c-0.7-1.7,0.2-3.7,2-4.4c0.1,0,0.1,0,0.2-0.1c0.5-0.1,0.3-0.9-0.2-0.7c-1,0.3-1.9,1.1-2.4,2
			c-0.6,1-0.7,2.3-0.3,3.4C577,166.5,577.7,166.3,577.5,165.8L577.5,165.8z"/>
		<path class="st3" d="M581.1,167.7c-0.7-1.8,0.2-3.7,2-4.4c0,0,0.1,0,0.1-0.1c0.5-0.1,0.3-0.9-0.2-0.7c-2.2,0.7-3.4,3-2.7,5.2
			c0,0.1,0,0.1,0.1,0.2C580.6,168.3,581.3,168.1,581.1,167.7z"/>
		<path class="st7" d="M490.2,142.3l39.7,23.2c4.6,2.7,10.4,2.7,15,0.1l40.7-23.4c3.4-2,4.6-6.3,2.6-9.8c-0.6-1.1-1.5-1.9-2.5-2.6
			l-43.2-26c-2.2-1.3-5-1.3-7.3,0L490.2,130c-3.4,2-4.5,6.4-2.6,9.8C488.2,140.8,489.1,141.7,490.2,142.3z"/>
		<ellipse class="st12" cx="537.9" cy="136.6" rx="27.2" ry="12.5"/>
		
			<ellipse transform="matrix(0.3806 -0.9247 0.9247 0.3806 226.8181 568.2857)" class="st13" cx="537.6" cy="114.8" rx="30.1" ry="30.1"/>
		<path class="st14" d="M536.9,84.3c-5.2,0.5-10.2,2.6-14.2,6c-3.3,2.9-5.8,6.6-7.5,10.7c-2.3,6-3,12.4-1.9,18.8
			c0.8,6.2,3.3,12,7.1,16.9c4.2,5.3,10.4,8.5,17.2,8.7c0.3,0,0.6-0.4,0.5-0.7c0-0.3-0.3-0.5-0.5-0.5c-5.8-0.2-11.2-2.7-15.1-7
			c-3.9-4.4-6.6-9.8-7.6-15.6c-2.1-10.2-0.1-21.4,7.3-29c3.9-3.9,9.1-6.4,14.6-6.9C537.7,85.5,537.7,84.2,536.9,84.3L536.9,84.3z"/>
		<path class="st14" d="M536.6,84.3c-7.8,4.6-12.4,13.7-13.6,22.4c-0.6,5.4-0.6,10.9,0,16.3c0.5,4.8,1.3,10.1,3.9,14.3
			c2.5,3.9,6.5,6.5,10.8,8.2c0.8,0.3,1.1-0.9,0.3-1.2c-3.7-1.5-7.3-3.7-9.7-7c-2.7-3.9-3.6-9-4.1-13.5c-0.6-4.9-0.7-9.8-0.3-14.7
			c0.2-4.6,1.5-9.2,3.7-13.3c2.3-4,5.5-8,9.5-10.3c0.3-0.2,0.3-0.6,0.1-0.9C537.1,84.3,536.8,84.2,536.6,84.3L536.6,84.3z"/>
		<path class="st14" d="M538.6,144.6c-1.4-15.5-1.9-31.2-1.5-46.8c0.1-4.3,0.3-8.7,0.5-13c0-0.8-1.2-0.8-1.3,0
			c-0.8,15.6-0.8,31.2,0,46.8c0.3,4.3,0.6,8.7,1,13C537.4,145.5,538.6,145.5,538.6,144.6L538.6,144.6z"/>
		<path class="st14" d="M538.4,145.4c7.9-6.2,14-15.1,15.3-25.2c0.6-4.8,0.4-9.6-0.6-14.4c-0.8-4.5-2.5-8.7-5-12.5
			c-2.6-4-6.3-7.1-10.7-8.9c-0.7-0.3-1.4,0.8-0.6,1.1c8,3.4,12.7,10.8,14.7,18.9c2.3,9.4,1.6,19.3-3.2,27.8
			c-2.8,4.7-6.4,8.9-10.8,12.3C536.8,145,537.7,145.8,538.4,145.4L538.4,145.4z"/>
		<path class="st14" d="M537.2,85.5c4.8,0,9.6,2.4,13.5,5.2c4.2,2.8,7.4,7,9,11.9c1.7,5.8,2,11.9,0.9,17.8c-1,5.6-3,11.3-6.8,15.6
			c-4.1,4.6-9.7,7.5-15.8,8.3c-0.8,0.1-0.8,1.3,0,1.3c5.6-0.7,10.8-3.1,15-6.9c4.5-4.1,7.1-10,8.4-15.8c1.4-6.1,1.5-12.4,0.1-18.5
			c-1.2-5.3-4.2-10.1-8.5-13.5c-4.4-3.5-10-6.5-15.7-6.6c-0.3,0-0.6,0.4-0.5,0.7C536.7,85.2,536.9,85.5,537.2,85.5L537.2,85.5z"/>
		<path class="st14" d="M511.4,99.4c2.8,6.6,10.5,9.6,17.1,10.6c8.3,1.4,16.8,0.3,24.6-3c4-1.7,7.6-4.4,10.2-7.9
			c0.5-0.7-0.6-1.3-1.1-0.6c-4.6,6.2-12.5,9.2-19.9,10.3s-15.8,0.6-22.6-2.9c-3.2-1.5-5.7-4-7.2-7.2C512.2,98,511.1,98.6,511.4,99.4
			L511.4,99.4z"/>
		<path class="st14" d="M511.5,130.9c10.8,10.6,28.6,12.6,42.2,6.8c3.8-1.6,7.3-3.9,10.2-6.8c0.6-0.6-0.3-1.5-0.9-0.9
			c-10.1,10.3-27.4,12-40.3,6.7c-3.8-1.5-7.3-3.8-10.3-6.7C511.8,129.5,510.9,130.4,511.5,130.9L511.5,130.9z"/>
		<path class="st14" d="M507.3,115.8c2,2.3,4.4,4.2,7.1,5.5c3.5,1.9,7.2,3.3,11.1,4.2c9.2,2.4,18.8,2.2,27.8-0.7
			c5.6-1.9,10.6-5,14.9-9c0.6-0.6-0.3-1.4-0.9-0.9c-13.5,12.9-35,14-51.2,5.9c-3-1.4-5.7-3.4-7.9-5.9
			C507.7,114.3,506.8,115.2,507.3,115.8L507.3,115.8z"/>
		<path class="st15" d="M552.1,72.6c0-8.1-6.6-14.7-14.7-14.7c-8.1,0-14.7,6.6-14.7,14.7c0,2.6,0.7,5.2,2,7.5l0,0v0.1
			c0.6,0.9,1.3,1.6,2,2.6l8.5,11.3c0.9,1.2,2.5,1.4,3.7,0.5c0.2-0.2,0.4-0.3,0.5-0.5l8.4-11.1c0.8-0.9,1.5-1.8,2.1-2.8l0,0l0,0
			C551.4,77.9,552.1,75.3,552.1,72.6z M537.4,79c-3.6,0-6.5-2.9-6.5-6.5c0-3.6,2.9-6.5,6.5-6.5c3.6,0,6.5,2.9,6.5,6.5c0,0,0,0,0,0
			C543.9,76.1,541,79,537.4,79z"/>
		<path class="st16" d="M525.2,45.9C525.1,46.1,525.3,45.8,525.2,45.9l-0.1,0.1l-0.2,0.2l-0.4,0.5c-0.4,0.4-0.7,0.7-1.1,1.1
			c-0.9,0.8-2,1.5-3.2,2c-0.3,0.2-0.4,0.6-0.2,0.8c0,0,0,0,0,0c0.2,0.3,0.6,0.4,0.8,0.2c2.2-1,4.1-2.5,5.5-4.4
			c0.1-0.3,0-0.7-0.3-0.8C525.7,45.6,525.4,45.7,525.2,45.9L525.2,45.9z"/>
		<path class="st17" d="M565.8,21.5c-0.7,0.6-15.2,10-15.2,10s-13.9-4.4-22,4s-8.1,20.2-5.3,24.1s7.1,2.5,7.8-0.9s-2.2-8.5,2.3-11.3
			s9.3-3,11.8,3.4c1.5,3.8,16.5-0.7,16.5-0.7l15.7-7.6C577.5,33,573.1,24,565.8,21.5z"/>
		<path class="st17" d="M536.8,68.2c-1.5-0.7-1.6-2.3-1-3.9c0.7-1.5,1.8-2.8,3.2-3.8c1.4-0.9,2.6-2.1,3.6-3.4c1-2,1.8-4.2,2.3-6.3
			c0.4-1.7,0.4-2.1,1.9-3s3.4-0.8,5.1-0.4c1.9,0.4,3.8,1,5.5,1.9c0.7,0.5,1.7,0.3,2.3-0.3c8.4-10.5,2.5,2,0.5,5.5
			c-0.6,0.9-1.3,1.8-2.1,2.6C553,63.1,540.7,70.5,536.8,68.2"/>
		<path class="st17" d="M513.1,51.8c-1,0.9-1.8,2-2.4,3.2c-0.5,1.3-0.3,2.7,0.6,3.7c1,0.8,2.3,1,3.4,0.7c3.5-0.7,6-3.6,8.2-6.4
			l3.2-12.9C521.7,43.9,517.2,47.6,513.1,51.8z"/>
		<path class="st17" d="M533.9,35.6c-8,1.9-15.5,5.3-22.2,10.1c-0.9,0.5-1.6,1.3-2,2.3c-0.3,1.3,0.3,2.7,1.5,3.4
			c1.2,0.6,2.5,0.8,3.8,0.6"/>
		<path class="st17" d="M542.7,31.2c-8.2,0.1-16.3,1.8-23.9,5c-1,0.3-1.8,0.9-2.5,1.8c-0.6,1.2-0.3,2.7,0.7,3.6
			c1,0.9,2.3,1.4,3.6,1.4"/>
		<path class="st16" d="M522.9,57.3c-0.8-3.2-0.9-6.5-0.3-9.7c0.5-2.2,1.4-4.3,2.4-6.4c2.1-4.3,5.8-7.6,10.3-9.2
			c0.8-0.3,0.4-1.5-0.3-1.2c-4.8,1.7-8.8,5.2-11.1,9.8c-1.2,2.2-2.1,4.6-2.7,7.1c-0.6,3.3-0.5,6.7,0.4,9.9c0.1,0.3,0.4,0.5,0.8,0.4
			C522.8,58,523,57.7,522.9,57.3L522.9,57.3L522.9,57.3z"/>
		<path class="st16" d="M523.7,41.4c-4.6,3.2-8.7,7-12.3,11.4c-0.9,0.9-1.5,2-1.7,3.2c-0.2,1,0.1,2,0.8,2.8c1.6,1.9,4.2,1.8,6.3,0.8
			c2.1-1.2,3.9-2.8,5.4-4.6c0.5-0.6-0.3-1.5-0.9-0.9c-1.4,1.8-3.2,3.3-5.2,4.4c-1.2,0.7-2.7,0.7-3.9,0.1c-1.2-0.7-1.6-2.2-0.9-3.4
			c0-0.1,0.1-0.1,0.1-0.2c0.8-1.3,1.7-2.4,2.8-3.5c1-1.1,2-2.1,3.1-3.2c2.3-2.1,4.6-4.1,7.2-5.9C525,42,524.4,40.9,523.7,41.4
			L523.7,41.4z"/>
		<path class="st16" d="M527.6,35.7c-4.6,1.9-8.7,4.7-13,7.2c-2.4,1.4-6.3,3.4-5.4,6.7c0.4,1.6,2.4,3.3,4.1,2.8
			c0.3-0.1,0.5-0.5,0.4-0.8c-0.1-0.3-0.4-0.4-0.7-0.4c-0.8,0-1.6-0.4-2.1-1c-0.7-0.9-0.6-2.2,0.1-3.1c1.1-1.2,2.5-2.1,3.9-2.9
			c4.3-2.5,8.4-5.4,13-7.3C528.5,36.6,528.2,35.4,527.6,35.7L527.6,35.7z"/>
		<path class="st16" d="M516.3,39.5c2.3,0,4.4-1.4,5.1-3.6c0.1-0.3-0.1-0.7-0.4-0.8c-0.3-0.1-0.7,0.1-0.8,0.4
			c-0.3,0.8-0.8,1.5-1.5,2c-0.2,0.1-0.4,0.2-0.6,0.3L518,38c-0.2,0.1,0.1,0-0.1,0l-0.3,0.1c-0.2,0.1-0.5,0.1-0.7,0.2
			c0.1,0,0,0-0.1,0h-0.5c-0.3,0-0.6,0.3-0.6,0.6C515.7,39.2,516,39.5,516.3,39.5L516.3,39.5z"/>
		<path class="st16" d="M527.6,61.2c0-1.6-0.7-3.2-1.9-4.3c-1.1-0.9-2.7-0.8-3.8,0.1c-0.2,0.2-0.2,0.4-0.2,0.6
			c0.9,3.1,4.2,5.9,7.5,4.6c2.8-1.1,2.6-4.3,2.6-6.8c0-1.5-0.1-3-0.2-4.5c-0.1-0.2-0.1-0.4,0-0.6c0.1-0.4,0.3-0.8,0.5-1.1
			c1.8-2.6,4.8-4.1,7.9-3.8c0.8,0,0.8-1.2,0-1.3c-2.7-0.2-5.4,0.7-7.4,2.5c-1,1-2.4,2.5-2.4,4c0,1.2,0.1,2.5,0.2,3.8
			c0,1.6,0.3,3.7-0.4,5.2c-0.3,0.7-1,1.2-1.7,1.4c-0.1,0-0.2,0-0.3,0.1c0.3-0.1-0.3,0-0.4,0c-0.6,0-1.3,0-1.8-0.3
			c-1.5-0.7-2.7-2.1-3.1-3.7l-0.2,0.6c0.8-0.6,2-0.4,2.6,0.4c0,0,0,0,0,0c0.6,0.9,1,1.9,1,2.9C526.4,61.9,527.6,61.9,527.6,61.2
			L527.6,61.2z"/>
		<path class="st16" d="M509.7,49.6c1.2,0.1,2.5-0.4,3.3-1.3c0.8-1,1.2-2.3,0.9-3.5c-0.1-0.3-0.4-0.5-0.8-0.4
			c-0.3,0.1-0.5,0.4-0.4,0.8c0.2,0.8,0,1.7-0.6,2.4c-0.1,0.2-0.3,0.3-0.5,0.4l-0.3,0.2l-0.1,0.1l0,0h-0.1c-0.2,0.1-0.5,0.1-0.7,0.2
			c0.1,0-0.1,0-0.1,0h-0.2c-0.1,0-0.3,0-0.4,0c-0.3,0-0.6,0.4-0.5,0.7C509.2,49.3,509.4,49.5,509.7,49.6L509.7,49.6z"/>
		<path class="st16" d="M511.3,58.5c1.1-0.7,2-1.7,2.6-3c0.5-1.2,0.3-2.5-0.6-3.5c-0.2-0.2-0.6-0.2-0.9,0c0,0,0,0,0,0
			c-0.2,0.2-0.2,0.6,0,0.9c0.5,0.7,0.6,1.6,0.2,2.3c-0.4,0.9-1.1,1.7-2,2.2c-0.3,0.2-0.4,0.6-0.2,0.8
			C510.5,58.6,510.9,58.7,511.3,58.5C511.2,58.6,511.2,58.6,511.3,58.5L511.3,58.5z"/>
		<path class="st16" d="M536.1,67.6c1-0.5,2-0.7,3.1-0.7c0.4,0,0.8,0.2,1.1,0.4c0.3,0.2,0.5,0.5,0.5,0.8c0.1,0.3,0.4,0.5,0.8,0.4
			c0.3-0.1,0.5-0.4,0.4-0.8c-0.3-1.2-1.3-2-2.5-2.1c-1.3-0.1-2.6,0.2-3.8,0.7c-0.3,0.1-0.5,0.4-0.4,0.8
			C535.5,67.5,535.8,67.7,536.1,67.6z"/>
		<path class="st16" d="M558.8,57.4c3.3-3.4,5-7.9,5-12.6c0-0.3-0.4-0.6-0.7-0.5c-0.3,0-0.5,0.3-0.5,0.5c0.1,4.4-1.6,8.6-4.6,11.7
			C557.4,57.1,558.3,58,558.8,57.4L558.8,57.4z"/>
		<line class="st18" x1="446.9" y1="226.9" x2="446.9" y2="237.3"/>
		<polyline class="st18" points="445.3,236 447.1,237.3 448.5,236 		"/>
		<path class="st3" d="M622.2,44.8l-0.1-7.5c0-0.6-0.4-1.2-0.9-1.5l-8.6-4.8c-0.5-0.3-1.2-0.3-1.7,0l-19.9,11.8
			c-0.5,0.3-0.9,0.9-0.9,1.5l0.1,7.5c0,0.6,0.4,1.2,0.9,1.5l8.8,4.9c0.5,0.3,1.2,0.3,1.7,0l19.8-11.8
			C621.9,46,622.2,45.4,622.2,44.8z"/>
		<path class="st19" d="M600.3,48.8L600.3,48.8l-0.2,0.3l0,0l-0.5-0.2c0-0.2,0,0.1,0,0.2v0.7l0.1,2.3l0.2,5c0,0.4,0,0.8,0,1.2
			s0.8,0.5,0.8,0c-0.1-2.8-0.2-5.6-0.3-8.4c0-0.4,0-0.9-0.1-1.3c-0.1-0.2-0.3-0.3-0.5-0.2c-0.1,0-0.3,0.2-0.3,0.3
			C599.5,49.2,600.2,49.2,600.3,48.8L600.3,48.8z"/>
		<path class="st13" d="M597.2,47L597.2,47l-0.2,0.3l0,0l-0.5-0.2c0-0.2,0,0.1,0,0.2c0,0.2,0,0.5,0,0.7l0.1,2.3
			c0.1,1.7,0.1,3.4,0.2,5c0,0.4,0,0.8,0,1.2s0.8,0.5,0.8,0c-0.1-2.8-0.2-5.6-0.3-8.4C597.2,47.8,597.2,47.4,597.2,47
			c-0.1-0.3-0.3-0.4-0.5-0.3c0,0-0.1,0-0.1,0c-0.1,0.1-0.2,0.2-0.2,0.3C596.5,47.6,597.2,47.6,597.2,47L597.2,47z"/>
		<path class="st13" d="M593.6,45L593.6,45l-0.2,0.3l0,0l-0.5-0.2c0-0.2,0,0.1,0,0.2V46l0.2,2.3l0.2,5c0,0.4,0,0.8,0,1.2
			s0.8,0.5,0.8,0l-0.3-8.4c0-0.4,0-0.8-0.1-1.3c-0.1-0.2-0.3-0.3-0.5-0.3c0,0-0.1,0-0.1,0c-0.1,0.1-0.2,0.2-0.2,0.3
			C592.8,45.5,593.5,45.5,593.6,45L593.6,45z"/>
		<path class="st13" d="M603.5,46.9L603.5,46.9l-0.2,0.3l0,0l-0.5-0.2c0-0.2,0,0.1,0,0.2V48l0.1,2.3l0.2,5c0,0.4,0,0.8,0,1.2
			s0.8,0.5,0.8,0c-0.1-2.8-0.2-5.6-0.3-8.4c0-0.4,0-0.8-0.1-1.3c-0.1-0.2-0.3-0.3-0.5-0.2c-0.1,0-0.3,0.2-0.3,0.3
			C602.6,47.4,603.3,47.4,603.5,46.9L603.5,46.9z"/>
		<path class="st13" d="M606.7,45.2L606.7,45.2l-0.2,0.3l0,0l-0.6-0.2c0-0.2,0,0.1,0,0.2v0.7l0.1,2.3l0.2,5c0,0.4,0,0.8,0,1.2
			c0,0.2,0.2,0.3,0.4,0.3c0.2,0,0.3-0.2,0.3-0.3c-0.1-2.8-0.2-5.6-0.3-8.4c0-0.4,0-0.8-0.1-1.3c-0.1-0.2-0.3-0.3-0.5-0.3
			c0,0-0.1,0-0.1,0c-0.1,0.1-0.2,0.2-0.2,0.3C605.9,45.7,606.6,45.7,606.7,45.2L606.7,45.2z"/>
		<path class="st13" d="M610,43.5L610,43.5l-0.2,0.3l0,0l-0.5-0.2c0-0.2,0,0.1,0,0.2v0.7c0,0.8,0.1,1.5,0.1,2.3
			c0.1,1.7,0.1,3.4,0.2,5c0,0.4,0,0.8,0,1.2s0.8,0.5,0.8,0c-0.1-2.8-0.2-5.6-0.3-8.4c0-0.4,0-0.8-0.1-1.3c-0.1-0.2-0.3-0.3-0.5-0.3
			c0,0-0.1,0-0.1,0c-0.1,0.1-0.2,0.2-0.2,0.3C609.2,44,609.9,44,610,43.5L610,43.5z"/>
		<path class="st13" d="M613.3,41.4L613.3,41.4l-0.2,0.3l0,0l-0.5-0.2c0-0.2,0,0.1,0,0.2v0.7c0,0.8,0.1,1.5,0.1,2.3
			c0.1,1.7,0.1,3.4,0.2,5c0,0.4,0,0.8,0,1.2s0.8,0.5,0.8,0c-0.1-2.8-0.2-5.6-0.3-8.4c0-0.4,0-0.8-0.1-1.3c0-0.2-0.2-0.3-0.4-0.3
			c0,0-0.1,0-0.1,0c-0.1,0.1-0.2,0.2-0.2,0.3C612.4,41.9,613.1,41.9,613.3,41.4L613.3,41.4z"/>
		<path class="st13" d="M616.5,39.3L616.5,39.3l-0.2,0.3l0,0l-0.5-0.2c0-0.2,0,0.1,0,0.2v0.7l0.1,2.3l0.2,5c0,0.4,0,0.8,0,1.2
			s0.8,0.5,0.8,0c-0.1-2.8-0.2-5.6-0.3-8.4c0-0.4,0-0.9-0.1-1.3c-0.1-0.2-0.3-0.3-0.5-0.2c-0.1,0-0.3,0.2-0.3,0.3
			C615.7,39.7,616.4,39.7,616.5,39.3L616.5,39.3z"/>
		<path class="st13" d="M619.8,37.6L619.8,37.6l-0.2,0.3l0,0l-0.5-0.2c0-0.2,0,0.1,0,0.2v0.7c0,0.8,0.1,1.5,0.1,2.3
			c0.1,1.7,0.1,3.4,0.2,5c0,0.4,0,0.8,0,1.2s0.8,0.5,0.8,0c-0.1-2.8-0.2-5.6-0.3-8.4c0-0.4,0-0.9-0.1-1.3c-0.1-0.2-0.3-0.3-0.5-0.3
			c0,0-0.1,0-0.1,0c-0.1,0.1-0.2,0.2-0.2,0.3C618.9,38,619.7,38,619.8,37.6L619.8,37.6z"/>
		<path class="st19" d="M621.3,36.1c0.1-0.3,0.1-0.1-0.2,0s-0.7,0.4-1,0.6c-1,0.6-2.1,1.2-3.1,1.8c-2.9,1.7-5.8,3.3-8.7,4.9l-7.2,4
			c-0.5,0.2-1,0.5-1.5,0.8c0.2-0.2,0.5,0.1,0-0.2s-1-0.5-1.6-0.8l-7.8-4.1c-0.4-0.2-0.8,0.4-0.4,0.6l7.2,3.8c0.8,0.5,1.6,1,2.5,1.3
			c0.4,0.1,0.8-0.2,1.2-0.5c5.4-3,10.8-6.1,16.1-9.1l3.6-2c0.4-0.2,1.2-0.5,1.4-1S621.5,35.6,621.3,36.1L621.3,36.1z"/>
		<path class="st3" d="M541.6,221.6l-0.1-7.5c0-0.6-0.4-1.2-0.9-1.5l-8.6-4.8c-0.5-0.3-1.2-0.3-1.7,0l-19.9,11.8
			c-0.5,0.3-0.9,0.9-0.9,1.5l0.1,7.4c0,0.6,0.3,1.2,0.9,1.5l8.8,4.9c0.5,0.3,1.2,0.3,1.7,0l19.8-11.8
			C541.3,222.8,541.7,222.2,541.6,221.6z"/>
		<path class="st19" d="M519.8,225.6L519.8,225.6l-0.2,0.3l0,0l-0.6-0.2c0-0.2,0,0.1,0,0.2v0.7l0.1,2.3l0.2,5c0,0.4,0,0.8,0,1.2
			s0.8,0.5,0.8,0c-0.1-2.8-0.2-5.6-0.3-8.4c0-0.4,0-0.9-0.1-1.3c-0.1-0.2-0.3-0.3-0.5-0.3c0,0-0.1,0-0.1,0c-0.1,0.1-0.2,0.2-0.2,0.3
			C518.9,226.1,519.6,226.1,519.8,225.6L519.8,225.6z"/>
		<path class="st13" d="M516.7,223.9L516.7,223.9l-0.2,0.3l0,0l-0.5-0.2c0-0.2,0,0.1,0,0.2v0.7l0.1,2.3l0.2,5.1c0,0.4,0,0.8,0,1.2
			s0.8,0.5,0.8,0c-0.1-2.8-0.2-5.6-0.3-8.4C516.6,224.6,516.6,224.2,516.7,223.9c-0.2-0.3-0.4-0.4-0.6-0.4c0,0-0.1,0-0.1,0
			c-0.1,0.1-0.2,0.2-0.2,0.3C515.8,224.4,516.6,224.4,516.7,223.9L516.7,223.9z"/>
		<path class="st13" d="M513,221.8L513,221.8l-0.2,0.3l0,0l-0.5-0.2c0-0.2,0,0.1,0,0.2v0.7c0,0.8,0.1,1.5,0.1,2.3
			c0.1,1.7,0.1,3.4,0.2,5.1c0,0.4,0,0.8,0,1.2s0.8,0.5,0.8,0c-0.1-2.8-0.2-5.6-0.3-8.4C513,222.6,513,222.2,513,221.8
			c-0.2-0.3-0.4-0.4-0.6-0.4c0,0-0.1,0-0.1,0c-0.1,0.1-0.2,0.2-0.2,0.3C512.2,222.3,512.9,222.3,513,221.8L513,221.8z"/>
		<path class="st13" d="M522.9,223.8L522.9,223.8l-0.2,0.3l0,0l-0.6-0.2c0-0.2,0,0.1,0,0.2v0.7l0.1,2.3l0.2,5c0,0.4,0,0.8,0,1.2
			s0.8,0.5,0.8,0c-0.1-2.8-0.2-5.6-0.3-8.4c0-0.4,0-0.9-0.1-1.3c-0.1-0.2-0.3-0.3-0.5-0.3c0,0-0.1,0-0.1,0c-0.1,0.1-0.2,0.2-0.2,0.3
			C522.1,224.2,522.8,224.2,522.9,223.8L522.9,223.8z"/>
		<path class="st13" d="M526.2,222.1L526.2,222.1l-0.2,0.3l0,0l-0.5-0.2c0-0.2,0,0.1,0,0.2v0.7c0,0.8,0.1,1.5,0.1,2.3
			c0.1,1.7,0.1,3.4,0.2,5.1c0,0.4,0,0.8,0,1.2s0.8,0.5,0.8,0c-0.1-2.8-0.2-5.6-0.3-8.4C526.2,222.8,526.2,222.4,526.2,222.1
			c-0.1-0.3-0.3-0.4-0.5-0.4c0,0-0.1,0-0.1,0c-0.1,0.1-0.2,0.2-0.2,0.3C525.4,222.6,526.1,222.6,526.2,222.1L526.2,222.1z"/>
		<path class="st13" d="M529.4,220.4L529.4,220.4l-0.2,0.3l0,0l-0.5-0.2c0-0.2,0,0.1,0,0.2v0.7c0,0.8,0.1,1.5,0.1,2.3
			c0.1,1.7,0.1,3.4,0.2,5.1c0,0.4,0,0.8,0,1.2s0.8,0.5,0.8,0c-0.1-2.8-0.2-5.6-0.3-8.4C529.5,221.1,529.4,220.7,529.4,220.4
			c-0.1-0.3-0.3-0.4-0.5-0.4c0,0-0.1,0-0.1,0c-0.1,0.1-0.2,0.2-0.2,0.3C528.6,220.9,529.4,220.9,529.4,220.4L529.4,220.4z"/>
		<path class="st13" d="M532.7,218.3L532.7,218.3l-0.2,0.3l0,0l-0.5-0.2c0-0.2,0,0.1,0,0.2v0.7l0.1,2.3l0.2,5.1c0,0.4,0,0.8,0,1.2
			s0.8,0.5,0.8,0c-0.1-2.8-0.2-5.6-0.3-8.4C532.7,219,532.7,218.6,532.7,218.3c-0.2-0.3-0.4-0.4-0.6-0.3c-0.1,0-0.3,0.2-0.3,0.3
			C531.9,218.7,532.6,218.7,532.7,218.3L532.7,218.3z"/>
		<path class="st13" d="M536,216.1L536,216.1l-0.2,0.3l0,0l-0.6-0.2c0-0.2,0,0.1,0,0.2v0.7c0,0.8,0.1,1.5,0.1,2.3
			c0.1,1.7,0.1,3.4,0.2,5c0,0.4,0,0.8,0,1.2c0,0.2,0.2,0.3,0.4,0.3c0.2,0,0.3-0.2,0.3-0.3c-0.1-2.8-0.2-5.6-0.3-8.4
			c0-0.4,0-0.8,0-1.3c-0.1-0.2-0.3-0.3-0.5-0.3c0,0-0.1,0-0.1,0c-0.1,0.1-0.2,0.2-0.2,0.3C535.3,216.6,536,216.6,536,216.1
			L536,216.1z"/>
		<path class="st13" d="M539.2,214.4L539.2,214.4l-0.2,0.3l0,0l-0.5-0.2c0-0.2,0,0.1,0,0.2v0.7c0,0.8,0.1,1.5,0.1,2.3
			c0.1,1.7,0.1,3.4,0.2,5.1c0,0.4,0,0.8,0,1.2s0.8,0.5,0.8,0c-0.1-2.8-0.2-5.6-0.3-8.4C539.2,215.2,539.2,214.8,539.2,214.4
			c-0.2-0.3-0.4-0.4-0.6-0.4c0,0-0.1,0-0.1,0c-0.1,0.1-0.2,0.2-0.2,0.3C538.4,214.9,539.1,214.9,539.2,214.4L539.2,214.4z"/>
		<path class="st19" d="M540.7,213c0.1-0.3,0.1-0.1-0.2,0s-0.6,0.4-1,0.6l-3.1,1.8l-8.7,4.9l-7.2,4c-0.5,0.2-1,0.5-1.5,0.8
			c0.2-0.2,0.5,0.1,0-0.2s-1-0.6-1.5-0.8l-7.8-4.1c-0.4-0.2-0.8,0.4-0.4,0.6l7.2,3.8c0.8,0.6,1.6,1,2.5,1.3c0.4,0.1,0.8-0.2,1.2-0.5
			c5.4-3,10.8-6,16.1-9.1l3.6-2c0.4-0.2,1.2-0.5,1.4-1S540.9,212.5,540.7,213L540.7,213z"/>
		<path class="st2" d="M539.7,210.1l-0.2-7.5c0-0.6-0.3-1.2-0.9-1.5l-8.6-4.8c-0.5-0.3-1.2-0.3-1.7,0l-19.9,11.8
			c-0.5,0.3-0.9,0.9-0.9,1.5l0.1,7.5c0,0.6,0.4,1.2,0.9,1.5l8.8,4.9c0.5,0.3,1.2,0.3,1.7,0l19.8-11.8
			C539.4,211.3,539.7,210.7,539.7,210.1z"/>
		<path class="st19" d="M517.8,214.1L517.8,214.1l-0.2,0.3l0,0l-0.5-0.2c0-0.2,0,0.1,0,0.2v0.7l0.1,2.3l0.2,5.1c0,0.4,0,0.8,0,1.2
			s0.8,0.5,0.8,0c-0.1-2.8-0.2-5.6-0.3-8.4C517.8,214.8,517.7,214.4,517.8,214.1c-0.2-0.3-0.4-0.4-0.6-0.4c0,0-0.1,0-0.1,0
			c-0.1,0.1-0.2,0.2-0.2,0.3C517,214.6,517.7,214.6,517.8,214.1L517.8,214.1z"/>
		<path class="st20" d="M514.7,212.4L514.7,212.4l-0.2,0.3l0,0l-0.5-0.2c0-0.2,0,0.1,0,0.2c0,0.2,0,0.5,0,0.7l0.1,2.3
			c0.1,1.7,0.1,3.4,0.2,5.1c0,0.4,0,0.8,0,1.2s0.8,0.5,0.8,0c-0.1-2.8-0.2-5.6-0.3-8.4c0-0.4,0-0.8-0.1-1.3c0-0.2-0.2-0.3-0.4-0.3
			c0,0-0.1,0-0.1,0c-0.1,0.1-0.2,0.2-0.2,0.3C513.9,212.8,514.6,212.8,514.7,212.4L514.7,212.4z"/>
		<path class="st20" d="M511.1,210.3L511.1,210.3l-0.2,0.3l0,0l-0.5-0.2c0-0.2,0,0.1,0,0.2v0.7l0.1,2.3l0.2,5.1c0,0.4,0,0.8,0,1.2
			s0.8,0.5,0.8,0l-0.3-8.4C511,211,511,210.6,511.1,210.3c-0.2-0.3-0.4-0.4-0.6-0.4c0,0-0.1,0-0.1,0c-0.1,0.1-0.2,0.2-0.2,0.3
			C510.2,210.8,510.9,210.8,511.1,210.3L511.1,210.3z"/>
		<path class="st20" d="M520.9,212.2L520.9,212.2l-0.2,0.3l0,0l-0.5-0.2c0-0.2,0,0.1,0,0.2v0.7l0.1,2.3l0.2,5c0,0.4,0,0.8,0,1.2
			s0.8,0.5,0.8,0c-0.1-2.8-0.2-5.6-0.3-8.4c0-0.4,0-0.8-0.1-1.3c-0.1-0.2-0.3-0.3-0.5-0.3c0,0-0.1,0-0.1,0c-0.1,0.1-0.2,0.2-0.2,0.3
			C520.1,212.7,520.8,212.7,520.9,212.2L520.9,212.2z"/>
		<path class="st20" d="M524.2,210.5L524.2,210.5l-0.2,0.3l0,0l-0.6-0.2c0-0.2,0,0.1,0,0.2v0.7l0.1,2.3l0.2,5.1c0,0.4,0,0.8,0,1.2
			c0,0.2,0.2,0.3,0.4,0.3c0.2,0,0.3-0.2,0.3-0.3c-0.1-2.8-0.2-5.6-0.3-8.4c0-0.4,0-0.8-0.1-1.3c-0.1-0.2-0.3-0.3-0.5-0.3
			c0,0-0.1,0-0.1,0c-0.1,0.1-0.2,0.2-0.2,0.3C523.4,211,524.1,211,524.2,210.5L524.2,210.5z"/>
		<path class="st20" d="M527.5,208.8L527.5,208.8l-0.2,0.3l0,0l-0.5-0.2c0-0.2,0,0.1,0,0.2v0.7c0,0.8,0.1,1.5,0.1,2.3
			c0.1,1.7,0.1,3.4,0.2,5.1c0,0.4,0,0.8,0,1.2s0.8,0.5,0.8,0c-0.1-2.8-0.2-5.6-0.3-8.4C527.5,209.6,527.5,209.2,527.5,208.8
			c-0.1-0.3-0.3-0.4-0.5-0.4c0,0-0.1,0-0.1,0c-0.1,0.1-0.2,0.2-0.2,0.3C526.7,209.3,527.4,209.3,527.5,208.8L527.5,208.8z"/>
		<path class="st20" d="M530.7,206.7L530.7,206.7l-0.2,0.3l0,0l-0.5-0.2c0-0.2,0,0.1,0,0.2v0.7c0,0.8,0.1,1.5,0.1,2.3
			c0.1,1.7,0.1,3.4,0.2,5.1c0,0.4,0,0.8,0,1.2s0.8,0.5,0.8,0c-0.1-2.8-0.2-5.6-0.3-8.4c0-0.4,0-0.8-0.1-1.3c0-0.2-0.2-0.3-0.4-0.3
			c0,0-0.1,0-0.1,0c-0.1,0.1-0.2,0.2-0.2,0.3C529.9,207.2,530.6,207.2,530.7,206.7L530.7,206.7z"/>
		<path class="st20" d="M534,204.6L534,204.6l-0.2,0.3l0,0l-0.5-0.2c0-0.2,0,0.1,0,0.2v0.7l0.1,2.3l0.2,5.1c0,0.4,0,0.8,0,1.2
			s0.8,0.5,0.8,0c-0.1-2.8-0.2-5.6-0.3-8.4C534,205.3,534,204.9,534,204.6c-0.2-0.3-0.4-0.4-0.6-0.3c-0.1,0-0.3,0.2-0.3,0.3
			C533.2,205.1,533.9,205.1,534,204.6L534,204.6z"/>
		<path class="st20" d="M537.3,202.9L537.3,202.9l-0.2,0.3l0,0l-0.5-0.2c0-0.2,0,0.1,0,0.2v0.7c0,0.8,0.1,1.5,0.1,2.3
			c0.1,1.7,0.1,3.4,0.2,5.1c0,0.4,0,0.8,0,1.2c0,0.2,0.2,0.3,0.4,0.3c0.2,0,0.3-0.2,0.3-0.3c-0.1-2.8-0.2-5.6-0.3-8.4
			C537.2,203.6,537.2,203.2,537.3,202.9c-0.2-0.3-0.4-0.4-0.6-0.4c0,0-0.1,0-0.1,0c-0.1,0.1-0.2,0.2-0.2,0.3
			C536.4,203.4,537.1,203.4,537.3,202.9L537.3,202.9z"/>
		<path class="st19" d="M538.8,201.4c0.1-0.4,0.1-0.1-0.2,0s-0.7,0.4-1,0.6c-1,0.6-2.1,1.2-3.1,1.8c-2.9,1.6-5.8,3.3-8.7,4.9l-7.2,4
			c-0.5,0.2-1,0.5-1.5,0.8c0.2-0.2,0.5,0.1,0-0.2s-1-0.6-1.6-0.8l-7.8-4.1c-0.4-0.2-0.8,0.4-0.4,0.6l7.2,3.8c0.8,0.5,1.6,1,2.5,1.3
			c0.4,0.1,0.8-0.2,1.2-0.4c5.4-3,10.8-6.1,16.1-9.1c1.2-0.7,2.4-1.4,3.6-2c0.4-0.2,1.2-0.5,1.4-1S538.9,200.9,538.8,201.4
			L538.8,201.4z"/>
		<path class="st4" d="M453.3,197.5c-0.1,0.8,0.3,1.7,1,2.2l1.9,1.1c0.6,0.4,0.2-0.4,1.2-1c2-1.3,3.3-3.5,3.4-5.9
			c0-1.1,1-1.1,0.4-1.4l-2-1.1c-0.8-0.3-1.7-0.2-2.4,0.3C454.7,192.9,453.4,195.1,453.3,197.5z"/>
		<path class="st3" d="M455.3,198.7c0,2.2,1.5,3,3.4,2c2-1.3,3.3-3.5,3.4-5.9c0-2.2-1.5-3-3.4-1.9
			C456.7,194.1,455.4,196.3,455.3,198.7z"/>
		<path class="st12" d="M458.7,194.3c-1.3,0.8-2.1,2.3-2.2,3.8c0,1.4,1,2,2.2,1.3c1.3-0.8,2.1-2.3,2.2-3.8
			C460.9,194.2,459.9,193.6,458.7,194.3z"/>
		<path class="st4" d="M479.5,181.5c-0.1,0.8,0.3,1.7,1,2.2l1.9,1.1c0.6,0.3,0.2-0.4,1.2-1c2-1.3,3.3-3.5,3.4-5.9
			c0-1.1,1-1.1,0.4-1.4l-2-1.1c-0.8-0.3-1.7-0.2-2.4,0.3C480.9,176.9,479.6,179.1,479.5,181.5z"/>
		<path class="st3" d="M481.5,182.6c0,2.2,1.5,3,3.4,1.9c2-1.3,3.3-3.5,3.4-5.9c0-2.2-1.5-3-3.4-1.9
			C482.9,178,481.6,180.2,481.5,182.6z"/>
		<path class="st12" d="M484.9,178.3c-1.3,0.8-2.1,2.3-2.2,3.8c0,1.4,1,2,2.2,1.3c1.3-0.8,2.1-2.3,2.2-3.8
			C487.1,178.1,486.1,177.6,484.9,178.3z"/>
		<polygon class="st4" points="442.8,199.8 442.8,203.3 428.7,193.4 428.7,191.8 		"/>
		<path class="st4" d="M480,162l-51.3,29.8l14.1,8.1l0,0v3.5l50.7-29.4c0.4-0.2,0.6-0.7,0.6-1.1v-1.9c0-0.6-0.3-1.1-0.8-1.4L480,162
			z"/>
		<path class="st3" d="M492.2,155.1c0-0.8-0.5-1.6-1.2-2l-0.4-0.2l-47.9,28.9l-12.4-7.8l0,0c-0.6,0.3-1,1-1,1.7v15.5l13.5,7.7l0,0
			l49.3-28.7L492.2,155.1z"/>
		<path class="st13" d="M430.2,175.1l11.6,6.6c0.7,0.4,1.6,0.4,2.3,0l47.3-27.5c0.3-0.2,0.4-0.5,0.2-0.8c-0.1-0.1-0.1-0.2-0.2-0.2
			l-11.3-6.5c-0.8-0.5-1.8-0.5-2.6,0l-47.2,27.4c-0.3,0.1-0.4,0.5-0.3,0.7C430,174.9,430.1,175,430.2,175.1z"/>
		<path class="st20" d="M441.9,188.7l-10.8-6.2c-1.1-0.7-2.5-0.7-3.7-0.1l-5.6,2.7c-2.5,1.2-4.3,3.5-5.1,6.1l-0.7,2.6
			c-0.4,1.9-0.7,3.8-0.7,5.7v6l0,0l13.1,7.4h0.1v-5.3c0-2,0.3-3.9,0.9-5.8l1.7-5.3c0.4-1.2,1.1-2.1,2.2-2.7l8.6-5L441.9,188.7z"/>
		<path class="st20" d="M428.5,207.6v5.4l7.1-4l0.5-3.1l5.8-3.5v-13.6l-8.7,5.1c-1.1,0.6-1.9,1.6-2.2,2.7l-1.7,5.3
			C428.8,203.7,428.5,205.6,428.5,207.6z"/>
		<path class="st4" d="M426.5,203.8L426.5,203.8c0,2.7-2.9,4-5.3,2.7l-0.2-0.1c-2.3-1.1-3.8-3.4-3.9-6v-0.9c0-0.5,0.4-0.9,0.9-0.8
			c0.1,0,0.3,0,0.4,0.1l7.6,4.3C426.3,203.3,426.5,203.5,426.5,203.8z"/>
		<path class="st3" d="M437.6,199.3l-0.8,0.4c-0.2,0.1-0.3,0.3-0.3,0.5l0,0c0,0.1,0.1,0.3,0.2,0.3c0,0,0.1,0,0.1,0l0.7-0.4
			c0.2-0.1,0.3-0.3,0.3-0.5v-0.1C437.9,199.3,437.8,199.2,437.6,199.3C437.7,199.2,437.6,199.2,437.6,199.3z"/>
		<path class="st4" d="M432.1,212.9l0.3-1.1c0-1.6,0.4-3.2,1.2-4.6l0,0c0.8-1.4,2-2.5,3.3-3.3l1.4-0.8l-2.2-1l-1.3,0.6
			c-1.4,0.8-2.5,2-3.3,3.3l0,0c-0.8,1.4-1.2,3-1.2,4.6v1.3L432.1,212.9z"/>
		<path class="st4" d="M414.3,204.2l13.2,7.8c0.6,0.4,1.4,0.4,2.1,0l2.5-1.4v2.3l-2.5,1.4c-0.6,0.4-1.4,0.4-2.1,0l-12.5-7.2
			c-0.4-0.2-0.7-0.7-0.7-1.2L414.3,204.2z"/>
		<path class="st4" d="M414.6,204.6l13,7.4c0.6,0.4,1.4,0.4,2.1,0l2.5-1.4l-0.7-0.4l-1.8,1c-0.7,0.4-1.4,0.4-2.1,0l-12.2-7v-0.9
			l-0.8,0.5c-0.2,0.1-0.3,0.4-0.1,0.6C414.5,204.5,414.5,204.6,414.6,204.6z"/>
		<path class="st4" d="M442.5,182.3v16.9c0,0.2,0.2,0.3,0.4,0.3c0.2,0,0.3-0.2,0.3-0.3v-16.9c0-0.2-0.2-0.3-0.4-0.3
			C442.7,182,442.5,182.2,442.5,182.3z"/>
		<path class="st4" d="M429.1,212c-0.1-3,0.1-6,0.6-8.9c0.3-1.3,0.6-2.6,1-3.9c0.3-1.3,0.8-2.6,1.5-3.8c0.9-1.4,2.8-2.4,4.1-3.2
			c1.8-1.1,3.7-2.2,5.7-3.1c0.4-0.2,0.1-0.9-0.4-0.6c-2.1,1-4.1,2.1-6.1,3.3c-1.3,0.8-3.1,1.8-4,3.2c-0.6,1.1-1,2.2-1.4,3.3
			c-0.5,1.4-0.8,2.8-1.1,4.2c-0.6,3.1-0.9,6.2-0.7,9.4C428.3,212.5,429.1,212.5,429.1,212L429.1,212z"/>
		<path class="st7" d="M437.6,197c-0.1-0.7-0.1-1.8-0.1-2.7c0-0.4-0.3-0.7-0.7-0.7c-0.1,0-0.1,0-0.2,0c-0.5,0.2-1,0.5-1.5,0.8
			c-0.6,0.3-1.2,0.6-1.6,1.1c-0.3,0.4-0.5,0.9-0.6,1.4l-0.9,3.4c0,0.1,0,0.3,0,0.4c0.1,0.1,0.2,0.2,0.4,0.2c0.2,0,0.3-0.1,0.4-0.2
			l4.1-2.4C437.5,198.1,437.7,197.5,437.6,197L437.6,197z"/>
		<path class="st7" d="M430.3,195.6c-0.3-0.6-0.7-1-1.3-1.2c-2.9-1.6-6.5-3.5-9.5-5.1c-0.4-0.2-0.9-0.1-1.1,0.3c0,0,0,0.1-0.1,0.1
			c-0.6,1.7-1.7,4.4-1.4,5.4c0.3,0.5,0.8,0.9,1.3,1.2c2.6,1.6,4.9,2.8,7.3,4.1c0.4,0.3,0.7,0.5,1.1,0.7c0.4,0.2,0.9,0.2,1.3,0
			c0.5-0.3,0.8-0.7,1-1.2c0.5-1,0.9-2.1,1.2-3.1C430.3,196.4,430.3,196,430.3,195.6z"/>
		<path class="st20" d="M417,199.6l8.3,4.7l1.2,0.7c0.2,0.1,0.4,0,0.5-0.2c0.1-0.2,0-0.3-0.1-0.4l-8.3-4.7l-1.2-0.7
			c-0.2-0.1-0.4,0-0.5,0.1C416.8,199.3,416.8,199.5,417,199.6L417,199.6z"/>
		<path class="st20" d="M417,201.2l8.3,4.7l1.2,0.7c0.2,0.1,0.4,0,0.5-0.2c0.1-0.2,0-0.3-0.1-0.4l-8.3-4.7l-1.2-0.7
			c-0.2-0.1-0.4,0-0.5,0.1C416.8,200.8,416.8,201.1,417,201.2L417,201.2L417,201.2z"/>
		<path class="st20" d="M416.9,202.9l8.3,4.7l1.2,0.7c0.2,0.1,0.4,0,0.5-0.1c0.1-0.2,0-0.4-0.1-0.5l-8.3-4.7l-1.2-0.7
			c-0.2-0.1-0.4,0-0.5,0.2C416.7,202.6,416.8,202.8,416.9,202.9z"/>
		<path class="st2" d="M426.9,208c-0.2-0.1-0.3-0.1-0.5,0c-0.1,0.1-0.2,0.2-0.3,0.3c-0.1,0.1-0.1,0.3-0.1,0.5
			c0.1,0.3,0.3,0.5,0.6,0.5c0.3,0,0.5-0.2,0.6-0.4C427.2,208.5,427.1,208.2,426.9,208z"/>
		<path class="st2" d="M416.7,202.7c-0.1-0.1-0.3-0.1-0.5-0.1c-0.1,0.1-0.2,0.2-0.3,0.3c-0.1,0.1-0.1,0.3-0.1,0.5
			c0.1,0.3,0.3,0.5,0.6,0.5c0.3,0,0.5-0.2,0.6-0.4C417,203.1,416.9,202.9,416.7,202.7z"/>
		<path class="st4" d="M442.9,202.6c-0.2-0.4-0.4-0.9-0.4-1.4c-0.7,0.6-1.7,1-2.6,1.1c-0.5-0.1-1-0.2-1.5-0.4
			c-1.2-0.3-2.5,0-3.5,0.8l0.3,1.8c0.8-0.4,1.7-0.4,2.5-0.2c0.8,0.3,1.5,0.9,1.9,1.6l2.6-1.5c0.2-0.1,0.4-0.2,0.6-0.4
			C443.2,203.6,443.2,203,442.9,202.6z"/>
		<path class="st4" d="M431.6,210c-0.1,0.8,0.3,1.7,1,2.2l1.9,1.1c0.6,0.3,0.2-0.4,1.2-1c2-1.3,3.3-3.5,3.4-5.9c0-1.1,1-1.1,0.4-1.4
			l-2-1.1c-0.8-0.3-1.7-0.2-2.4,0.3C433.1,205.4,431.8,207.6,431.6,210z"/>
		<path class="st3" d="M433.6,211.1c0,2.2,1.5,3,3.4,2c2-1.3,3.3-3.5,3.4-5.9c0-2.2-1.5-3-3.4-1.9
			C435.1,206.5,433.8,208.7,433.6,211.1z"/>
		<path class="st12" d="M437.1,206.7c-1.3,0.8-2.1,2.3-2.2,3.8c0,1.4,1,2,2.2,1.3c1.3-0.8,2.1-2.3,2.2-3.8
			C439.3,206.6,438.3,206,437.1,206.7z"/>
		<path class="st3" d="M443.5,203.1l16.9-9.7l26.9-15.5l6.2-3.5c0.2-0.1,0.2-0.4,0.1-0.5c-0.1-0.1-0.3-0.2-0.4-0.1l-16.9,9.7
			L449.3,199l-6.2,3.5c-0.2,0.1-0.2,0.4-0.1,0.5C443.2,203.2,443.4,203.3,443.5,203.1L443.5,203.1z"/>
		<path class="st13" d="M484.4,175l-6.2,3.7c-0.4,0.2-0.6,0.7-0.6,1.1v6.8c0,0.5,0.2,0.9,0.6,1.1l6.2,3.6c0.4,0.2,0.9,0.2,1.3,0
			l6.3-3.6c0.4-0.2,0.7-0.7,0.7-1.1v-6.8c0-0.5-0.2-0.9-0.6-1.1l-6.3-3.7C485.3,174.8,484.8,174.8,484.4,175z"/>
		<polygon class="st7" points="487.7,184.6 487.6,182 480.2,177.5 482.2,176.3 489.7,180.8 489.7,183.4 		"/>
		<path class="st4" d="M477.6,179.6l6.5,3.7c0.2,0.2,0.5,0.3,0.8,0.4c0.3,0,0.6-0.2,0.8-0.3l3.8-2.1l3.1-1.7c0.4-0.2,0-0.9-0.4-0.6
			l-7.4,4.1h0.4l-7.1-4c-0.2-0.1-0.4,0-0.5,0.2C477.4,179.4,477.5,179.5,477.6,179.6L477.6,179.6z"/>
		<path class="st4" d="M485.3,191.5v-8.2c0-0.2-0.2-0.3-0.4-0.3c-0.2,0-0.3,0.2-0.3,0.3v8.2c0,0.2,0.2,0.3,0.4,0.3
			C485.2,191.8,485.3,191.7,485.3,191.5z"/>
		<path class="st7" d="M490.4,187.8l1.4-0.8c0.1-0.1,0.1-0.2,0.1-0.3v-0.6c0-0.1-0.1-0.2-0.2-0.2c0,0-0.1,0-0.1,0l-1.4,0.8
			c-0.1,0.1-0.2,0.2-0.2,0.4v0.5C490.1,187.7,490.2,187.8,490.4,187.8C490.3,187.8,490.4,187.8,490.4,187.8z"/>
		<path class="st7" d="M478.2,181c0,0.4,0,1,0,1.4c0,0.2,0.1,0.3,0.2,0.4l1.7,1c0.1,0,0.2,0,0.3-0.1c0,0,0-0.1,0-0.1v-1.4
			c0-0.2-0.1-0.3-0.2-0.4l-1.7-1C478.3,180.8,478.2,180.8,478.2,181C478.2,181,478.2,181,478.2,181z"/>
		<path class="st2" d="M475.3,180.6l-6.2,3.7c-0.4,0.2-0.6,0.7-0.6,1.1v6.8c0,0.5,0.3,0.9,0.7,1.1l6.2,3.6c0.4,0.2,0.9,0.2,1.3,0
			l6.3-3.6c0.4-0.2,0.7-0.7,0.7-1.1v-6.8c0-0.5-0.3-0.9-0.7-1.1l-6.3-3.7C476.2,180.4,475.7,180.4,475.3,180.6z"/>
		<polygon class="st7" points="478.6,190.2 478.6,187.7 471.1,183.2 473.1,182 480.6,186.4 480.7,189.1 		"/>
		<path class="st4" d="M468.6,185.2l6.5,3.6c0.2,0.2,0.5,0.3,0.8,0.4c0.3,0,0.6-0.2,0.8-0.3l3.8-2.1l3.1-1.7
			c0.2-0.1,0.2-0.4,0.1-0.5c-0.1-0.1-0.3-0.2-0.4-0.1l-7.4,4.1h0.4l-7.1-4c-0.2-0.1-0.4,0-0.5,0.2
			C468.4,184.9,468.4,185.1,468.6,185.2L468.6,185.2z"/>
		<path class="st4" d="M476.3,197.1v-8.2c0-0.2-0.2-0.3-0.4-0.3c-0.2,0-0.3,0.2-0.3,0.3v8.2c0,0.2,0.2,0.3,0.4,0.3
			C476.1,197.4,476.3,197.3,476.3,197.1z"/>
		<path class="st7" d="M481.3,193.4l1.4-0.8c0.1,0,0.2-0.1,0.2-0.3v-0.6c0-0.1-0.1-0.2-0.2-0.2c0,0-0.1,0-0.1,0l-1.4,0.8
			c-0.1,0.1-0.2,0.2-0.2,0.4v0.5C481,193.3,481.1,193.4,481.3,193.4C481.3,193.4,481.3,193.4,481.3,193.4z"/>
		<path class="st7" d="M469.1,186.6c0,0.4,0,1,0,1.4c0,0.1,0.1,0.3,0.2,0.4l1.7,1c0.1,0.1,0.2,0,0.3-0.1c0,0,0-0.1,0-0.1v-1.4
			c0-0.2-0.1-0.3-0.2-0.4l-1.7-1C469.3,186.4,469.2,186.5,469.1,186.6C469.1,186.6,469.1,186.6,469.1,186.6z"/>
		<path class="st20" d="M479.1,169.2L473,173c-0.4,0.2-0.6,0.7-0.6,1.1v6.8c0,0.5,0.2,0.9,0.6,1.1l6.2,3.6c0.4,0.2,0.9,0.2,1.3,0
			l6.3-3.6c0.4-0.2,0.7-0.7,0.7-1.1V174c0-0.5-0.2-0.9-0.6-1.1l-6.3-3.7C480.1,169,479.5,169,479.1,169.2z"/>
		<polygon class="st7" points="482.5,178.8 482.4,176.3 474.9,171.8 477,170.6 484.5,175.1 484.5,177.7 		"/>
		<path class="st4" d="M472.4,173.8l6.5,3.7c0.2,0.2,0.5,0.3,0.8,0.4c0.3,0.1,0.6-0.2,0.8-0.3l3.8-2.1l3.1-1.7
			c0.2-0.1,0.2-0.4,0.1-0.5c-0.1-0.1-0.3-0.2-0.4-0.1l-7.4,4.1h0.4l-7.1-4c-0.2-0.1-0.4,0-0.5,0.2
			C472.2,173.6,472.3,173.7,472.4,173.8L472.4,173.8z"/>
		<path class="st4" d="M480.1,185.7v-8.2c0-0.2-0.2-0.3-0.4-0.3c-0.2,0-0.3,0.2-0.3,0.3v8.2c0,0.2,0.2,0.3,0.4,0.3
			C480,186,480.1,185.9,480.1,185.7z"/>
		<path class="st7" d="M485.2,182l1.4-0.8c0.1-0.1,0.2-0.2,0.2-0.3v-0.6c0-0.1-0.1-0.2-0.2-0.2c0,0-0.1,0-0.1,0l-1.4,0.8
			c-0.1,0.1-0.2,0.2-0.2,0.4v0.5C484.9,181.9,485,182,485.2,182C485.1,182,485.1,182,485.2,182z"/>
		<path class="st7" d="M473,175.2c0,0.4,0,1,0,1.4c0,0.1,0.1,0.3,0.2,0.4l1.7,1c0.1,0.1,0.2,0,0.2,0c0,0,0-0.1,0-0.1v-1.4
			c0-0.2-0.1-0.3-0.2-0.4l-1.7-1C473.2,175,473,175.1,473,175.2C473,175.2,473,175.2,473,175.2z"/>
		<path class="st15" d="M283.2,218.3l-7.2,4.4c-0.5,0.3-0.7,0.8-0.7,1.3v7.9c0,0.5,0.3,1.1,0.8,1.3l7.2,4.1c0.5,0.3,1.1,0.3,1.5,0
			l7.4-4.2c0.5-0.3,0.8-0.8,0.8-1.3v-7.9c0-0.5-0.3-1.1-0.8-1.3l-7.4-4.3C284.3,218,283.7,218,283.2,218.3z"/>
		<polygon class="st5" points="287.1,229.5 287,226.5 278.3,221.2 280.6,219.8 289.5,225.1 289.5,228.1 		"/>
		<path class="st4" d="M275.4,223.6l7.6,4.3c0.3,0.2,0.6,0.4,0.9,0.5c0.3,0.1,0.7-0.2,0.9-0.4l4.4-2.4l3.6-2c0.4-0.2,0-0.9-0.4-0.6
			l-8.6,4.8h0.4l-8.4-4.7C275.3,222.7,274.9,223.3,275.4,223.6L275.4,223.6z"/>
		<path class="st4" d="M284.3,237.6V228c0-0.2-0.2-0.3-0.4-0.3c-0.2,0-0.3,0.2-0.3,0.3v9.6c0,0.2,0.2,0.3,0.4,0.3
			C284.1,237.9,284.3,237.8,284.3,237.6L284.3,237.6z"/>
		<path class="st5" d="M290.3,233.2l1.7-0.9c0.1-0.1,0.2-0.2,0.2-0.3v-0.7c0-0.1-0.1-0.2-0.2-0.2c0,0-0.1,0-0.1,0l-1.6,1
			c-0.1,0.1-0.2,0.2-0.2,0.4v0.6c0,0.1,0.1,0.2,0.2,0.2C290.2,233.2,290.2,233.2,290.3,233.2z"/>
		<path class="st5" d="M276,225.3c0,0.5,0,1.2,0,1.6c0,0.2,0.1,0.3,0.2,0.4l2,1.2c0.1,0.1,0.2,0,0.3-0.1c0,0,0-0.1,0-0.1v-1.6
			c0-0.2-0.1-0.3-0.3-0.4l-2-1.2C276.2,225.1,276.1,225.1,276,225.3C276,225.2,276,225.3,276,225.3z"/>
		<path class="st2" d="M260.4,210.8l-12.9,7.8c-0.8,0.5-1.3,1.4-1.3,2.4V235c0,1,0.5,1.9,1.4,2.4l12.9,7.4c0.8,0.5,1.9,0.5,2.7,0
			l13.2-7.5c0.9-0.5,1.4-1.4,1.4-2.4v-14.1c0-1-0.5-1.9-1.4-2.4l-13.2-7.7C262.3,210.3,261.3,210.3,260.4,210.8z"/>
		<polygon class="st5" points="267.4,230.8 267.3,225.5 251.7,216.1 255.9,213.6 271.6,222.9 271.6,228.4 		"/>
		<path class="st4" d="M246.6,220l13.5,7.6c0.5,0.4,1,0.7,1.6,0.9c0.5,0.1,1.1-0.5,1.5-0.7l7.8-4.4l6.4-3.6c0.4-0.2,0-0.9-0.4-0.6
			l-13.2,7.4c-0.7,0.3-1.4,0.7-2.1,1.2c0,0,0.3,0.2,0.1,0s-0.7-0.4-0.9-0.5l-7.6-4.3l-6.2-3.6c-0.2-0.1-0.4,0-0.5,0.2
			C246.4,219.7,246.5,219.9,246.6,220L246.6,220z"/>
		<path class="st4" d="M262.1,245.2v-17.1c0-0.2-0.2-0.3-0.4-0.3c-0.2,0-0.3,0.2-0.3,0.3v17.1c0,0.2,0.2,0.3,0.4,0.3
			C261.9,245.5,262.1,245.4,262.1,245.2z"/>
		<path class="st5" d="M273,237.4l3-1.7c0.2-0.1,0.3-0.3,0.3-0.6v-1.3c0-0.2-0.2-0.4-0.4-0.4c-0.1,0-0.2,0-0.2,0.1l-2.9,1.7
			c-0.3,0.2-0.4,0.4-0.4,0.7v1.1c0,0.2,0.2,0.4,0.4,0.4C273,237.5,273,237.4,273,237.4z"/>
		<path class="st5" d="M247.6,223.3c0,0.8,0,2.2,0,2.9c0,0.3,0.2,0.6,0.4,0.8l3.5,2.1c0.2,0.1,0.4,0.1,0.5-0.1
			c0-0.1,0.1-0.1,0.1-0.2l0.1-2.9c0-0.3-0.2-0.6-0.4-0.8l-3.6-2.1c-0.2-0.1-0.4-0.1-0.5,0.1C247.6,223.2,247.6,223.3,247.6,223.3z"
			/>
		<path class="st3" d="M648.6,56.2c-0.6-0.3-1.3-0.3-1.9,0l-57.2,33.9c-9,4.8-10.4,12.2-5.4,15.8l0,0c2.7,1.9,5.8,3.2,9,4.1
			c3.9,0.9,9.8,0.7,14.9-0.7c3.6-1,7-2.5,10.3-4.4l46.2-27.4c0.5-0.3,0.8-0.8,0.9-1.3L667,68c0.2-0.8-0.2-1.6-0.9-2.1L648.6,56.2z"
			/>
		<path class="st12" d="M647.7,61.4l-50,28.4c-8,4.1-14.7,7.7-14.1,12.3l0.7,1.3c0.2,0.3,0.4,0.5,0.7,0.6l0.4,0.5
			c4.4,2.5,15.3-0.5,21.3-3.5l34-19.1L661.4,69L647.7,61.4z"/>
		<path class="st12" d="M638.7,66.3l-0.2-15l21.5,2.4l0.2,15c0,0.2-0.3,0.6-0.5,0.7l-7,4.2c-0.5,0.2-1,0.2-1.5,0l-12-6.7
			C638.8,66.7,638.7,66.5,638.7,66.3z"/>
		<path class="st12" d="M652.5,57.2l7.3-4.4c0.4-0.2,0.3-0.6-0.1-0.9l-12-6.7c-0.5-0.2-1-0.2-1.5,0l-7.3,4.4
			c-0.4,0.2-0.3,0.6,0.1,0.9l12,6.7C651.4,57.5,652,57.5,652.5,57.2z"/>
		<path class="st12" d="M638.5,49.9c0.1,0.2,0.2,0.3,0.4,0.4l12,6.7c0.5,0.2,1,0.2,1.5,0l7.3-4.4c0.1-0.1,0.2-0.2,0.3-0.3v1.8
			c0,0.2-0.1,0.4-0.3,0.5l-7.3,4.4c-0.5,0.2-1,0.2-1.5,0l-12-6.7c-0.2-0.1-0.4-0.3-0.4-0.5L638.5,49.9L638.5,49.9z"/>
		<path class="st4" d="M638.5,62.6c-7.4,4.3-14.8,8.6-22.2,13c-5.7,3.3-11.3,6.7-17,10.1c-3.9,2.4-7.9,4.7-11.7,7.2
			c-2,1.2-3.6,3.1-4.5,5.3c-1.3,3.6,1.4,6.9,4.9,7.4c6.1,0.8,12.4-1.3,17.9-3.8c11.9-5.4,23.2-12.3,34.5-18.9
			c8.5-5,16.9-10,25.2-15.2l0.4-0.3c0.4-0.3,0-0.9-0.4-0.6c-6.7,4.1-13.4,8.2-20.1,12.2c-11.5,6.8-23,13.6-34.8,19.7
			c-4.6,2.5-9.5,4.4-14.7,5.6c-3.2,0.7-8.7,1.7-11.2-1c-2.9-3.1-0.3-7.3,2.6-9.3c3.2-2.3,6.7-4.3,10-6.3c5.4-3.2,10.8-6.5,16.2-9.6
			c8.3-4.9,16.6-9.7,24.9-14.6l0.5-0.3c0.2-0.1,0.2-0.4,0.1-0.5C638.8,62.5,638.7,62.5,638.5,62.6z"/>
		<path class="st4" d="M638.3,50.2L647,55c1,0.6,2,1.2,3.1,1.7c2,0.9,3.5-0.2,5.2-1.1l4.8-2.9c0.2-0.1,0.2-0.4,0.1-0.5
			c-0.1-0.1-0.3-0.2-0.4-0.1l-3.8,2.3c-1.7,1-3.6,2.7-5.6,1.7c-2.8-1.4-5.5-3-8.2-4.5l-3.5-1.9C638.3,49.3,637.9,50,638.3,50.2z"/>
		<path class="st4" d="M651.7,56.7c0.1,6,0.2,12,0.2,18c0,0.2,0.2,0.3,0.4,0.3c0.2,0,0.3-0.2,0.3-0.3c-0.1-6-0.1-12-0.2-18
			c0-0.2-0.2-0.3-0.4-0.3C651.8,56.4,651.7,56.5,651.7,56.7z"/>
		<path class="st13" d="M638.1,60.6l-3.7,2.2c-0.3,0.2-0.5,0.5-0.5,0.9l0.1,5.8c0,0.4,0.2,0.7,0.5,0.9l11.7,6.6c0.3,0.2,0.7,0.2,1,0
			l3.7-2.2c0.3-0.2,0.5-0.5,0.5-0.9l-0.1-5.8c0-0.4-0.2-0.7-0.5-0.9l-11.7-6.6C638.8,60.5,638.4,60.5,638.1,60.6z"/>
		<path class="st4" d="M634,63.8c-0.3,0-0.3-0.1-0.2,0c0.1,0.1,0.2,0.1,0.3,0.2l0.9,0.5l3,1.8l6.6,3.9l1.5,0.9l-0.2-0.3l0.2,6.4
			c0,0.2,0.2,0.3,0.4,0.3c0.2,0,0.3-0.2,0.3-0.3l-0.2-4.6c0-0.6,0-1.2-0.1-1.7c-0.1-0.3-0.3-0.4-0.6-0.6c-3.1-1.8-6.1-3.6-9.2-5.4
			l-2.1-1.2c-0.3-0.2-0.7-0.5-1-0.4C633.4,63.1,633.6,63.8,634,63.8L634,63.8z"/>
		<path class="st4" d="M646.4,70.4L646.4,70.4l0.5,0.6c-0.1,0.1,0,0,0.1,0l0.3-0.2l1.1-0.7l2.5-1.6l0.6-0.4c0.4-0.3,0-0.9-0.4-0.7
			l-4.1,2.5C646.7,70.1,646.5,70.3,646.4,70.4c-0.4,0.3-0.1,0.7,0.3,0.7h0.1C647.2,70.9,646.8,70.2,646.4,70.4L646.4,70.4z"/>
		<path class="st20" d="M632.2,64.3l-3.7,2.2c-0.3,0.2-0.5,0.5-0.5,0.9l0.1,5.8c0,0.4,0.2,0.7,0.5,0.9l11.7,6.6c0.3,0.2,0.7,0.2,1,0
			l3.7-2.2c0.3-0.2,0.5-0.5,0.5-0.9l-0.1-5.8c0-0.4-0.2-0.7-0.5-0.9l-11.7-6.6C632.9,64.1,632.5,64.1,632.2,64.3z"/>
		<path class="st4" d="M628.2,67.4c-0.3,0-0.3-0.1-0.2,0c0.1,0.1,0.2,0.1,0.3,0.2l0.9,0.6l3,1.8l6.6,3.9l1.5,0.9l-0.2-0.3l0.2,6.4
			c0,0.5,0.8,0.5,0.8,0l-0.2-4.6c0-0.6,0-1.2-0.1-1.7c-0.1-0.3-0.4-0.4-0.6-0.6c-3.1-1.8-6.1-3.6-9.2-5.5l-2.1-1.2
			c-0.3-0.2-0.7-0.5-1-0.4S627.7,67.5,628.2,67.4L628.2,67.4z"/>
		<path class="st4" d="M640.5,74L640.5,74l0.5,0.6c-0.1,0.1,0,0,0.1,0l0.3-0.2l1.1-0.7l2.5-1.6l0.6-0.4c0.4-0.3,0-0.9-0.4-0.6
			l-4.1,2.6c-0.2,0.1-0.4,0.3-0.6,0.4c-0.1,0.2-0.1,0.4,0,0.5c0.1,0.1,0.2,0.1,0.3,0.1h0.1c0.4-0.2,0.1-0.9-0.4-0.7V74z"/>
		<path class="st3" d="M626.1,67.7l-3.7,2.2c-0.3,0.2-0.5,0.5-0.5,0.9l0.1,5.8c0,0.4,0.2,0.7,0.5,0.9l11.7,6.6c0.3,0.2,0.7,0.2,1,0
			l3.7-2.2c0.3-0.2,0.5-0.5,0.5-0.9l-0.1-5.8c0-0.4-0.2-0.7-0.5-0.9l-11.7-6.6C626.8,67.5,626.4,67.5,626.1,67.7z"/>
		<path class="st4" d="M622.1,70.8c-0.3,0-0.3-0.1-0.2,0c0.1,0.1,0.2,0.1,0.3,0.2l0.9,0.5l3,1.8l6.6,3.9l1.5,0.9l-0.2-0.3l0.2,6.4
			c0,0.5,0.8,0.5,0.8,0l-0.2-4.6c0-0.6,0-1.2-0.1-1.7c-0.1-0.3-0.4-0.4-0.6-0.6c-3.1-1.8-6.2-3.7-9.2-5.5c-0.7-0.4-1.4-0.8-2.1-1.2
			c-0.3-0.2-0.7-0.5-1-0.4S621.6,70.9,622.1,70.8L622.1,70.8z"/>
		<path class="st4" d="M634.4,77.4L634.4,77.4l0.5,0.6c-0.1,0.1,0,0,0.1,0l0.3-0.2l1.1-0.7l2.5-1.6l0.6-0.4c0.4-0.3,0-0.9-0.4-0.7
			l-4.1,2.5C634.8,77.2,634.6,77.3,634.4,77.4c-0.2,0.2-0.2,0.5,0,0.6c0.1,0.1,0.2,0.1,0.4,0.1h0.1
			C635.3,77.9,634.9,77.3,634.4,77.4L634.4,77.4z"/>
		<path class="st2" d="M620.7,71l-3.7,2.2c-0.3,0.2-0.5,0.5-0.5,0.9l0.1,5.8c0,0.4,0.2,0.7,0.5,0.9l11.7,6.6c0.3,0.2,0.7,0.2,1,0
			l3.7-2.2c0.3-0.2,0.5-0.5,0.5-0.9l-0.1-5.8c0-0.4-0.2-0.7-0.5-0.9L621.7,71C621.4,70.8,621,70.8,620.7,71z"/>
		<path class="st4" d="M616.6,74.1c-0.3,0.1-0.3-0.1-0.2,0c0.1,0.1,0.2,0.1,0.3,0.2l0.9,0.5l3,1.8c2.2,1.3,4.4,2.6,6.6,3.9l1.5,0.9
			l-0.2-0.3l0.2,6.4c0,0.5,0.8,0.5,0.8,0l-0.2-4.6c0-0.6,0-1.2-0.1-1.7c-0.1-0.3-0.4-0.4-0.6-0.6c-3.1-1.8-6.2-3.7-9.2-5.5l-2.1-1.2
			c-0.3-0.2-0.7-0.5-1-0.4S616.1,74.2,616.6,74.1L616.6,74.1z"/>
		<path class="st4" d="M629,80.8L629,80.8l0.5,0.6c-0.1,0.1,0,0,0.1,0s0.2-0.1,0.3-0.2l1.1-0.7l2.5-1.6l0.6-0.4
			c0.4-0.3,0-0.9-0.4-0.7l-4.1,2.6c-0.2,0.1-0.4,0.3-0.6,0.4c-0.1,0.1-0.1,0.4,0,0.5c0.1,0.1,0.2,0.1,0.4,0.1h0.1
			c0.4-0.2,0-0.8-0.4-0.6L629,80.8z"/>
		<path class="st13" d="M631.8,57.4l-3.8,2.2c-0.3,0.2-0.5,0.5-0.5,0.9l0.1,5.8c0,0.4,0.2,0.7,0.5,0.9l11.7,6.6c0.3,0.2,0.7,0.2,1,0
			l3.7-2.2c0.3-0.2,0.5-0.5,0.5-0.9l0-5.9c0-0.4-0.2-0.7-0.5-0.9l-11.7-6.6C632.5,57.2,632.1,57.2,631.8,57.4z"/>
		<path class="st4" d="M627.7,60.5c-0.3,0-0.3-0.1-0.2,0c0.1,0.1,0.2,0.1,0.3,0.2l0.9,0.5l3,1.8l6.6,3.9l1.5,0.9l-0.2-0.3l0.2,6.4
			c0,0.5,0.8,0.5,0.8,0l-0.2-4.6c0-0.6,0-1.2-0.1-1.7c-0.1-0.3-0.4-0.4-0.6-0.6l-9.2-5.5l-2.1-1.2c-0.3-0.2-0.7-0.5-1-0.4
			S627.3,60.5,627.7,60.5L627.7,60.5z"/>
		<path class="st4" d="M640.1,67.1L640.1,67.1l0.5,0.6c-0.1,0.1,0,0,0.1,0l0.4-0.2l1.1-0.7l2.5-1.6l0.6-0.4c0.4-0.3,0-0.9-0.4-0.7
			l-4.1,2.6c-0.2,0.1-0.4,0.3-0.6,0.4c-0.1,0.2-0.1,0.4,0,0.5c0.1,0.1,0.2,0.1,0.4,0.1h0.1c0.4-0.2,0-0.8-0.4-0.6V67.1z"/>
		<path class="st13" d="M610.7,76.3l-3.7,2.2c-0.3,0.2-0.5,0.5-0.5,0.9l0.1,5.8c0,0.4,0.2,0.7,0.5,0.9l11.7,6.6c0.3,0.2,0.7,0.2,1,0
			l3.7-2.2c0.3-0.2,0.5-0.5,0.5-0.9v-5.8c0-0.4-0.2-0.7-0.5-0.9l-11.7-6.6C611.5,76,611.1,76.1,610.7,76.3z"/>
		<path class="st4" d="M606.7,79.4c-0.3,0-0.3-0.1-0.2,0c0.1,0.1,0.2,0.1,0.3,0.2l0.9,0.5l3,1.8l6.6,3.9l1.5,0.9l-0.2-0.3l0.2,6.4
			c0,0.5,0.8,0.5,0.8,0l-0.2-4.6c0-0.6,0-1.2-0.1-1.7c-0.1-0.3-0.4-0.4-0.6-0.6c-3.1-1.8-6.1-3.7-9.2-5.5l-2.1-1.2
			c-0.3-0.2-0.7-0.5-1-0.4S606.2,79.4,606.7,79.4L606.7,79.4z"/>
		<path class="st4" d="M619,86L619,86l0.5,0.6c-0.1,0.1,0,0,0.1,0l0.3-0.2l1.1-0.7l2.5-1.6l0.6-0.4c0.4-0.3,0-0.9-0.4-0.7l-4.1,2.6
			c-0.2,0.1-0.4,0.3-0.7,0.4c-0.1,0.2-0.1,0.4,0,0.5c0.1,0.1,0.2,0.1,0.4,0.1h0.1C619.8,86.5,619.4,85.9,619,86L619,86z"/>
		<path class="st20" d="M604.5,80.1l-3.7,2.2c-0.3,0.2-0.5,0.5-0.5,0.9l0.1,5.8c0,0.4,0.2,0.7,0.5,0.9l11.7,6.6c0.3,0.2,0.7,0.2,1,0
			l3.7-2.2c0.3-0.2,0.5-0.5,0.5-0.9l-0.1-5.8c0-0.4-0.2-0.7-0.5-0.9l-11.7-6.6C605.2,79.9,604.8,79.9,604.5,80.1z"/>
		<path class="st4" d="M600.4,83.2c-0.3,0-0.3-0.1-0.2,0c0.1,0.1,0.2,0.1,0.3,0.2l0.9,0.6l3,1.8l6.6,3.9l1.5,0.9l-0.2-0.3l0.2,6.4
			c0,0.5,0.8,0.5,0.8,0l-0.2-4.6c0-0.6,0-1.2-0.1-1.7c-0.1-0.3-0.4-0.4-0.6-0.6c-3.1-1.8-6.1-3.7-9.2-5.5l-2.1-1.3
			c-0.3-0.2-0.7-0.5-1-0.4S600,83.3,600.4,83.2L600.4,83.2z"/>
		<path class="st4" d="M612.8,89.8L612.8,89.8l0.5,0.6c-0.1,0.1,0,0,0.1,0l0.3-0.2l1.1-0.7l2.5-1.6l0.6-0.4c0.4-0.3,0-0.9-0.4-0.6
			l-4.1,2.6c-0.2,0.1-0.4,0.3-0.7,0.4c-0.1,0.2-0.1,0.4,0,0.5c0.1,0.1,0.2,0.1,0.4,0.1h0.1c0.4-0.2,0.1-0.9-0.4-0.7V89.8z"/>
		<path class="st2" d="M594.8,85.8l-3.6,2.2c-0.3,0.2-0.5,0.5-0.5,0.9l0.1,5.6c0,0.3,0.2,0.7,0.5,0.8l11.4,6.4c0.3,0.2,0.7,0.2,1,0
			l3.6-2.2c0.3-0.2,0.5-0.5,0.5-0.9l-0.1-5.7c0-0.4-0.2-0.7-0.5-0.8l-11.4-6.3C595.4,85.6,595.1,85.6,594.8,85.8z"/>
		<path class="st4" d="M590.8,88.8c-0.3,0.1-0.3-0.1-0.2,0s0.2,0.1,0.3,0.2l0.9,0.5l2.9,1.7c2.1,1.3,4.3,2.5,6.4,3.8l1.5,0.9
			l-0.2-0.3l0.2,6.2c0,0.5,0.8,0.5,0.8,0l-0.2-4.5c0-0.6,0-1.1-0.1-1.7c-0.1-0.3-0.3-0.4-0.6-0.6c-3-1.8-6-3.6-9-5.3l-2.1-1.2
			c-0.3-0.2-0.7-0.5-1-0.4S590.3,88.9,590.8,88.8L590.8,88.8z"/>
		<path class="st4" d="M602.8,95.3L602.8,95.3l0.5,0.6c-0.1,0.1,0,0,0.1,0l0.3-0.2l1.1-0.7l2.4-1.5l0.6-0.3c0.4-0.3,0-0.9-0.4-0.7
			l-4,2.5c-0.2,0.1-0.4,0.3-0.6,0.4c-0.1,0.2-0.1,0.4,0,0.5c0.1,0.1,0.2,0.1,0.3,0.1h0.1c0.4-0.2,0-0.8-0.4-0.7L602.8,95.3z"/>
		<path class="st20" d="M624.5,61.8l-3.7,2.2c-0.3,0.2-0.5,0.5-0.5,0.9l0.1,5.8c0,0.4,0.2,0.7,0.5,0.9l11.7,6.6c0.3,0.2,0.7,0.2,1,0
			l3.7-2.2c0.3-0.2,0.5-0.5,0.5-0.9l-0.1-5.8c0-0.4-0.2-0.7-0.5-0.9l-11.7-6.6C625.2,61.6,624.8,61.6,624.5,61.8z"/>
		<path class="st4" d="M620.5,64.9c-0.3,0-0.3-0.1-0.2,0c0.1,0.1,0.2,0.1,0.3,0.2l0.9,0.5l3,1.8l6.6,3.9l1.5,0.9l-0.2-0.3l0.2,6.4
			c0,0.2,0.2,0.3,0.4,0.3c0.2,0,0.3-0.2,0.3-0.3l-0.2-4.6c0-0.6,0-1.2-0.1-1.7c-0.1-0.3-0.4-0.4-0.6-0.6l-9.2-5.5l-2.1-1.2
			c-0.3-0.2-0.7-0.5-1-0.4S620,65,620.5,64.9L620.5,64.9z"/>
		<path class="st4" d="M632.8,71.5L632.8,71.5l0.5,0.6c-0.1,0.1,0,0,0.1,0l0.3-0.2l1.1-0.7l2.5-1.6l0.6-0.4c0.4-0.3,0-0.9-0.4-0.7
			l-4.1,2.6c-0.2,0.1-0.4,0.3-0.6,0.4c-0.1,0.2-0.1,0.4,0,0.5c0.1,0.1,0.2,0.1,0.3,0.1h0.1C633.6,72.1,633.2,71.4,632.8,71.5
			L632.8,71.5z"/>
		<polygon class="st5" points="639.3,56.3 650.5,62.4 650.5,59.8 639.3,53.7 		"/>
		<polygon class="st5" points="653.1,59.7 653.1,61.8 660.1,57.5 660,55.6 		"/>
		<path class="st2" d="M607.2,71.3l-3.7,2.2c-0.3,0.2-0.5,0.5-0.5,0.9l0.1,5.8c0,0.4,0.2,0.7,0.5,0.9l11.7,6.6c0.3,0.2,0.7,0.2,1,0
			l3.7-2.2c0.3-0.2,0.5-0.5,0.5-0.9l-0.1-5.8c0-0.4-0.2-0.7-0.5-0.9l-11.7-6.6C607.9,71.2,607.5,71.2,607.2,71.3z"/>
		<path class="st4" d="M603.2,74.5c-0.3,0.1-0.3-0.1-0.2,0c0.1,0.1,0.2,0.1,0.3,0.2l0.9,0.6l3,1.8l6.6,3.9l1.5,0.9l-0.2-0.3l0.2,6.4
			c0,0.5,0.8,0.5,0.8,0l-0.2-4.6c0-0.6,0-1.2-0.1-1.7c-0.1-0.3-0.4-0.4-0.6-0.6c-3.1-1.8-6.2-3.7-9.2-5.5l-2.1-1.3
			c-0.3-0.2-0.7-0.5-1-0.4C602.5,73.8,602.7,74.5,603.2,74.5L603.2,74.5z"/>
		<path class="st4" d="M615.5,81.1L615.5,81.1l0.5,0.6c-0.1,0.1,0,0,0.1,0l0.3-0.2l1.1-0.7l2.5-1.6l0.6-0.4c0.4-0.3,0-0.9-0.4-0.6
			l-4.1,2.6c-0.2,0.1-0.4,0.3-0.6,0.4c-0.1,0.2-0.1,0.4,0,0.5c0.1,0.1,0.2,0.1,0.3,0.1h0.1C616.3,81.6,616,81,615.5,81.1L615.5,81.1
			z"/>
		<path class="st4" d="M586.6,107.9c15.1,1.5,28.5-7.2,40.9-14.7c10.3-6.2,20.6-12.2,30.9-18.4l8.5-5.1c0.2-0.1,0.2-0.4,0.1-0.5
			c-0.1-0.1-0.3-0.2-0.4-0.1c-7.1,4.3-14.3,8.5-21.5,12.8c-5,3-10.1,6-15.2,9c-6,3.6-11.9,7.4-18.2,10.5c-7.8,3.9-16.3,6.6-25.1,5.7
			C586.2,107.2,586.2,107.8,586.6,107.9L586.6,107.9z"/>
		<path class="st3" d="M621,161.7c0,0-5.2-7.2-5.9-7.2c-0.9,0-1.7,0.5-2,1.3c-0.3,0.9,0.7,9.4,0.7,9.4l7.2-3.2"/>
		<path class="st3" d="M601.8,192.6c-1.5,0.9-5.2,2.8-6.3,4.2c-1.1,1.4-1.3,3.3-0.4,4.8c1.1,1.4,2.9,2,4.5,1.6
			c1.7-0.4,3.2-1.2,4.5-2.3c1.3-1,5.4-4.7,5.4-4.7"/>
		<path class="st4" d="M596.2,198.2c-0.5,0.6-0.6,1.4-0.4,2.1c0.2,0.7,0.7,1.3,1.4,1.6c0.7,0.3,1.5,0.2,2.1-0.2
			c0.8-0.7,0.9-1.9,0.4-2.8C599.2,198.1,597.4,197.2,596.2,198.2"/>
		<path class="st3" d="M569.8,173.9c-1.5,0.8-5.2,2.8-6.3,4.2c-1.1,1.4-1.3,3.3-0.4,4.8c1.1,1.4,2.9,2,4.5,1.6
			c1.7-0.4,3.2-1.2,4.5-2.3c1.3-1,5.4-4.7,5.4-4.7"/>
		<path class="st4" d="M563.6,180.8c-0.1,0.7,0.2,1.3,0.6,1.9c0.4,0.5,0.9,0.8,1.5,0.9c0.6,0.1,1.1-0.3,1.2-0.8
			c0.2-0.9-0.1-1.8-0.8-2.4C565.5,179.8,564,179.6,563.6,180.8"/>
		<path class="st13" d="M601.1,184.3c0,0,33.9,8.8,35.1,11.5c0.4,0.9-0.4,4.7-26.1,2.2s-23.5-4.9-23.5-4.9L601.1,184.3z"/>
		<path class="st13" d="M627.1,160.4c2.8,2.6,0.2,5.3-2,7.6c-2.6,2.7-6,6.2-8.1,8.1c-3.9,3.3-38.5,22.4-42.5,23.6s-9.4-0.7-6.7-6.6
			s16.4-12.6,21.3-15.6s27.5-14,27.5-14l6.2-3.6C624.1,158.9,626,159.2,627.1,160.4L627.1,160.4z"/>
		<path class="st13" d="M638.8,168.2c-0.6,1.4-1.9,2.4-3.5,2.6c-2.5,0.1-16.4-1.4-16.4-1.4l4.7-5.8L638.8,168.2z"/>
		<path class="st13" d="M588.5,179.4c0,0-19.9-14-21-14.7s-3.2,0.2-3.2,1c-0.7,8,8.3,22.8,9.9,20.9L588.5,179.4z"/>
		<path class="st13" d="M625.3,161.7c-0.8,0-9.2,5.7-9.7,5.1s2.5-13.3,4.9-18.1c0.9-1.8,4.9-2.9,4.9-2.9L625.3,161.7z"/>
		<path class="st4" d="M632.5,197.8c-5.4,1-11.1,0.6-16.6,0.3c-6.8-0.4-13.7-1.2-20.4-2.5c-3-0.5-6-1.3-8.9-2.3
			c-0.5-0.2-0.7,0.6-0.2,0.7c5.6,2.1,11.7,3,17.7,3.7c6.8,0.9,13.6,1.4,20.4,1.4c2.8,0,5.5-0.2,8.2-0.6
			C633.2,198.4,633,197.7,632.5,197.8L632.5,197.8z"/>
		<path class="st2" d="M625.1,154.5l-8.1,4.8l3.2-10.6c0,0,3.8-3.2,4.9-2.8V154.5z"/>
		<path class="st4" d="M569.4,190.7c4.6-4.7,10.8-7.8,16.5-10.9c5.5-3,11-5.9,16.5-8.7c2.9-1.5,5.8-3,8.6-4.4l3.6-1.9
			c0.6-0.3,1.4-0.5,1.7-1.1c0.4-1,0.7-2.1,0.8-3.2c0.5-1.9,1-3.8,1.6-5.7c0.5-1.9,1.1-3.7,1.9-5.5c0.8-1.7,3-2.6,4.8-3l-0.5-0.4
			l-0.1,15.9c0,0.2,0.2,0.3,0.4,0.3c0.2,0,0.3-0.2,0.3-0.3l0.1-15.9c0-0.2-0.2-0.4-0.4-0.4c0,0-0.1,0-0.1,0
			c-1.8,0.4-3.4,1.3-4.7,2.6c-0.7,1-1.2,2.2-1.5,3.4c-1.2,3.6-2.2,7.3-3.1,11c0,0.4-0.1,0.7-0.3,1.1c-0.2,0.1-0.5,0.2-0.8,0.3
			l-2.2,1.1l-8,4.1c-5.9,3-11.7,6-17.5,9.2c-6.3,3.4-13.2,6.7-18.3,11.9C568.5,190.5,569.1,191.1,569.4,190.7L569.4,190.7z"/>
		<path class="st4" d="M626.1,164.1c-1.1,0.2-2.1,0.8-2.8,1.7c-0.7,1-1.3,2.2-1.6,3.4c-0.2,0.5,0.6,0.7,0.7,0.2
			c0.7-1.9,1.6-4.3,3.9-4.6c0.2-0.1,0.3-0.3,0.3-0.5c0,0,0,0,0,0C626.5,164.1,626.3,164,626.1,164.1L626.1,164.1z"/>
		<path class="st4" d="M604.2,183.6l-17.8,9.7c-0.4,0.2,0,0.9,0.4,0.6l17.8-9.7C605,184,604.6,183.4,604.2,183.6z"/>
		<path class="st5" d="M603.8,180.9c-5.9,3.2-16.7,9.3-22.6,12.5l0.4-2.1l22.3-12.4L603.8,180.9z"/>
		<path class="st5" d="M568.7,191.7c0,0-1,2.9,1.6,3.8c1.8,0.6,5.6-0.4,8.7-2.9l-0.4,2.1c0,0-4,2.8-7.5,2.6
			c-1.2-0.1-2.3-0.6-3.1-1.6c-0.4-0.5-0.6-1.1-0.5-1.7C567.7,193.1,568.1,192.4,568.7,191.7"/>
	</g>
</g>
</svg>
