<svg xmlns="http://www.w3.org/2000/svg" xmlns:xlink="http://www.w3.org/1999/xlink" viewBox="0 0 402.4 286.07"><defs><style>.cls-1,.cls-19{fill:none;}.cls-2{fill:#f0f2f7;}.cls-3{fill:#f2a441;}.cls-4{fill:#bc5555;}.cls-5{fill:#26244a;}.cls-6{fill:#fff;}.cls-13,.cls-7{fill:#b8c1ea;}.cls-7{opacity:0.33;}.cls-8{fill:#dadef1;}.cls-9{fill:#9eabdb;}.cls-10{fill:#87b74e;}.cls-11{fill:#ffb25f;}.cls-12{fill:#ff8b0d;}.cls-14{fill:#e04141;}.cls-15{fill:#f5f5f5;}.cls-16{fill:#ff725e;}.cls-17{fill:#ed796a;}.cls-18{fill:#f4b298;}.cls-19{stroke:#26244a;stroke-linecap:round;stroke-linejoin:round;}.cls-20{fill:#25184c;}.cls-21{fill:#ef6856;}.cls-22{clip-path:url(#clip-path);}</style><clipPath id="clip-path"><rect id="SVGID" class="cls-1" x="111.56" y="211.69" width="72.28" height="45.93"/></clipPath></defs><title>banner_training_mobile</title><g id="Layer_2" data-name="Layer 2"><g id="OBJECTS_" data-name="OBJECTS
"><polygon class="cls-2" points="197.06 185.3 206.45 190.67 240.66 170.8 231.27 165.45 197.06 185.3"/><path class="cls-2" d="M194.34,182.39l-1.69,10.69,17.38-.53S194.48,182.6,194.34,182.39Z"/><path class="cls-3" d="M252.82,130.1,245,134.8a1.67,1.67,0,0,0-.79,1.42v8.51a1.65,1.65,0,0,0,.82,1.43l7.77,4.48a1.65,1.65,0,0,0,1.64,0l8-4.53a1.66,1.66,0,0,0,.83-1.44v-8.54a1.65,1.65,0,0,0-.82-1.43l-7.95-4.62A1.68,1.68,0,0,0,252.82,130.1Z"/><polygon class="cls-4" points="253.48 129.87 244.49 135.36 253.53 140.61 262.88 135.28 253.48 129.87"/><polygon class="cls-3" points="244.59 135.44 242.08 131.97 251.86 137.91 253.53 140.61 244.59 135.44"/><path class="cls-5" d="M254,150.86V130.1a.38.38,0,0,0-.75,0v20.76a.38.38,0,0,0,.75,0Z"/><path class="cls-6" d="M260.44,146.16l1.78-1a.37.37,0,0,0,.2-.33V144a.24.24,0,0,0-.36-.2l-1.73,1a.48.48,0,0,0-.25.43V146A.24.24,0,0,0,260.44,146.16Z"/><path class="cls-6" d="M245.08,137.66c0,.49,0,1.31,0,1.75a.55.55,0,0,0,.26.45l2.12,1.29a.24.24,0,0,0,.36-.2l0-1.75a.56.56,0,0,0-.27-.48l-2.15-1.26A.24.24,0,0,0,245.08,137.66Z"/><polygon class="cls-3" points="245.08 135.36 242.05 131.88 251.61 125.74 253.48 130.1 245.08 135.36"/><path class="cls-3" d="M262.42,135.21c.05-.13,2.7-4.23,2.7-4.23l-10-5.6-1.66,4.72Z"/><polygon class="cls-3" points="253.6 140.53 255.14 137.75 264.93 131.96 262.61 135.51 253.6 140.53"/><path class="cls-5" d="M244.4,135.77l8.13,4.56a4.18,4.18,0,0,0,.92.52c.37.1.66-.16,1-.34l4.74-2.64,3.91-2.19c.42-.23.05-.88-.38-.65l-9.24,5.17h.38l-9.05-5.08a.38.38,0,0,0-.38.65Z"/><path class="cls-5" d="M241.86,132.21l4.8,2.84,3.31,2,1.17.69a2.55,2.55,0,0,0,.5.3c-.24-.07-.11-.19-.09-.06a1.65,1.65,0,0,0,.14.26l.5.91.79,1.44c.23.42.88,0,.65-.38a26,26,0,0,0-1.45-2.64,4.39,4.39,0,0,0-1.34-.88l-6.69-4-1.91-1.13a.38.38,0,0,0-.38.65Z"/><path class="cls-5" d="M264.77,131.63l-4.89,2.9-3.37,2a13,13,0,0,0-1.52.91,4.34,4.34,0,0,0-.79,1.33l-.82,1.48c-.23.43.42.81.65.38l.65-1.19.47-.85a2.36,2.36,0,0,0,.32-.58c0-.1-.18.07-.05.05a1.65,1.65,0,0,0,.25-.15l1-.6,6.64-3.94,1.83-1.08a.38.38,0,0,0-.38-.65Z"/><path class="cls-5" d="M246.56,134.75l7.11-4.33h-.38l7.53,4.18c.43.23.81-.42.38-.65l-7.53-4.17a.35.35,0,0,0-.38,0l-7.11,4.33c-.41.25,0,.9.38.64Z"/><path class="cls-7" d="M257.91,102l12.18,7.13a4.56,4.56,0,0,0,4.6,0L287.18,102a2.19,2.19,0,0,0,0-3.78l-13.28-8a2.18,2.18,0,0,0-2.23,0l-13.8,8A2.19,2.19,0,0,0,257.91,102Z"/><path class="cls-4" d="M253.75,86.51,268.19,95a5.84,5.84,0,0,0,5.87,0l14.42-8.3c1.78-1.17,1.76-5.21,1.23-6.39l-16.94-7.38a2.24,2.24,0,0,0-2.28,0l-16.55,8.92c-.11-.81-.78-1-.79-1C252.82,82.57,252.28,85.39,253.75,86.51Z"/><path class="cls-8" d="M254.47,82.43l14.21,8.32a5.37,5.37,0,0,0,5.37,0l14.56-8.38a2.56,2.56,0,0,0,0-4.41l-15.48-9.33a2.57,2.57,0,0,0-2.61,0L254.47,78A2.56,2.56,0,0,0,254.47,82.43Z"/><path class="cls-3" d="M338.57,167.81l-6.3,3.81a1.33,1.33,0,0,0-.64,1.14v6.9a1.34,1.34,0,0,0,.67,1.16l6.28,3.62a1.34,1.34,0,0,0,1.34,0l6.45-3.67a1.35,1.35,0,0,0,.67-1.16V172.7a1.33,1.33,0,0,0-.67-1.16l-6.43-3.74A1.34,1.34,0,0,0,338.57,167.81Z"/><polygon class="cls-6" points="342 177.59 341.91 174.98 334.3 170.39 336.36 169.16 344.05 173.74 344.05 176.42 342 177.59"/><path class="cls-5" d="M331.71,172.46l6.62,3.74a3.4,3.4,0,0,0,.77.42c.28,0,.6-.22.84-.35l3.85-2.14,3.12-1.74c.42-.23,0-.88-.38-.65L339,175.93h.38l-7.3-4.11c-.42-.24-.8.41-.38.64Z"/><path class="cls-5" d="M339.58,184.62v-8.37a.38.38,0,0,0-.75,0v8.37a.38.38,0,0,0,.75,0Z"/><path class="cls-6" d="M344.74,180.82l1.44-.83a.32.32,0,0,0,.16-.28v-.62a.19.19,0,0,0-.29-.17l-1.4.82a.42.42,0,0,0-.21.36v.55A.2.2,0,0,0,344.74,180.82Z"/><path class="cls-6" d="M332.3,173.94c0,.39,0,1.05,0,1.41a.44.44,0,0,0,.21.37l1.72,1a.19.19,0,0,0,.29-.16l0-1.42a.42.42,0,0,0-.21-.38l-1.75-1A.2.2,0,0,0,332.3,173.94Z"/><path class="cls-3" d="M270.39,68.14,264.09,72a1.34,1.34,0,0,0-.65,1.14V80a1.36,1.36,0,0,0,.67,1.16l6.29,3.62a1.34,1.34,0,0,0,1.34,0l6.44-3.67a1.34,1.34,0,0,0,.68-1.16V73a1.33,1.33,0,0,0-.67-1.16l-6.44-3.74A1.33,1.33,0,0,0,270.39,68.14Z"/><polygon class="cls-6" points="273.82 77.92 273.73 75.31 266.12 70.72 268.17 69.5 275.87 74.07 275.87 76.75 273.82 77.92"/><path class="cls-5" d="M263.53,72.79l6.62,3.74a3.2,3.2,0,0,0,.77.42c.28,0,.6-.22.83-.35l3.85-2.14,3.12-1.74c.43-.23,0-.88-.37-.65l-7.52,4.19h.38l-7.3-4.11c-.42-.24-.8.41-.38.64Z"/><path class="cls-5" d="M271.39,85V76.58a.38.38,0,0,0-.75,0V85a.38.38,0,0,0,.75,0Z"/><path class="cls-6" d="M276.56,81.15l1.44-.83a.33.33,0,0,0,.16-.28v-.62a.19.19,0,0,0-.29-.17l-1.4.82a.42.42,0,0,0-.21.36V81A.2.2,0,0,0,276.56,81.15Z"/><path class="cls-6" d="M264.12,74.27c0,.39,0,1,0,1.41a.44.44,0,0,0,.21.37l1.72,1a.19.19,0,0,0,.29-.16l0-1.42a.43.43,0,0,0-.22-.38l-1.74-1A.2.2,0,0,0,264.12,74.27Z"/><path class="cls-3" d="M395.9,186.57l-4.74,2.86a1,1,0,0,0-.49.86v5.19a1,1,0,0,0,.51.87l4.73,2.73a1,1,0,0,0,1,0l4.85-2.76a1,1,0,0,0,.51-.88v-5.2a1,1,0,0,0-.5-.87l-4.84-2.81A1,1,0,0,0,395.9,186.57Z"/><polygon class="cls-6" points="398.48 193.92 398.41 191.96 392.69 188.51 394.23 187.59 400.02 191.03 400.02 193.04 398.48 193.92"/><path class="cls-5" d="M390.69,190.15l5,2.8a2.52,2.52,0,0,0,.6.33c.25.05.5-.15.7-.27l2.9-1.61,2.35-1.31c.42-.23,0-.88-.38-.64l-5.66,3.14h.38l-5.49-3.09a.38.38,0,0,0-.38.65Z"/><path class="cls-5" d="M396.75,199.21v-6.29a.38.38,0,0,0-.75,0v6.29a.38.38,0,0,0,.75,0Z"/><path class="cls-6" d="M400.54,196.35l1.08-.62a.25.25,0,0,0,.12-.21v-.47a.15.15,0,0,0-.22-.13l-1,.62a.31.31,0,0,0-.15.27v.41A.15.15,0,0,0,400.54,196.35Z"/><path class="cls-6" d="M391.19,191.17c0,.3,0,.8,0,1.07a.33.33,0,0,0,.16.28l1.29.78a.14.14,0,0,0,.22-.12l0-1.07a.32.32,0,0,0-.17-.29l-1.31-.77A.14.14,0,0,0,391.19,191.17Z"/><path class="cls-9" d="M205.55,85.6l-7.4,4.48a1.56,1.56,0,0,0-.76,1.34v8.1a1.57,1.57,0,0,0,.79,1.36l7.39,4.26a1.58,1.58,0,0,0,1.56,0l7.58-4.32a1.57,1.57,0,0,0,.79-1.36V91.34a1.58,1.58,0,0,0-.78-1.36l-7.57-4.39A1.58,1.58,0,0,0,205.55,85.6Z"/><polygon class="cls-6" points="209.58 97.09 209.48 94.03 200.53 88.64 202.95 87.19 211.99 92.57 211.99 95.72 209.58 97.09"/><path class="cls-5" d="M197.53,91l7.77,4.39a3.52,3.52,0,0,0,.89.49c.31,0,.67-.26.93-.4L211.64,93l3.67-2c.42-.24,0-.88-.38-.65L206.1,95.2h.38l-8.57-4.84c-.43-.23-.8.42-.38.65Z"/><path class="cls-5" d="M206.66,105.35V95.52a.38.38,0,0,0-.75,0v9.83a.38.38,0,0,0,.75,0Z"/><path class="cls-6" d="M212.79,100.88l1.7-1a.37.37,0,0,0,.19-.32v-.74a.23.23,0,0,0-.35-.2l-1.64,1a.49.49,0,0,0-.24.42v.64A.23.23,0,0,0,212.79,100.88Z"/><path class="cls-6" d="M198.19,92.8c0,.47,0,1.24,0,1.66a.5.5,0,0,0,.24.43l2,1.23a.22.22,0,0,0,.34-.19l0-1.67a.52.52,0,0,0-.26-.45l-2-1.2A.22.22,0,0,0,198.19,92.8Z"/><path class="cls-3" d="M231.23,142.55l-6.29,3.81a1.31,1.31,0,0,0-.65,1.14v6.89a1.32,1.32,0,0,0,.67,1.16l6.29,3.63a1.32,1.32,0,0,0,1.33,0l6.45-3.67a1.33,1.33,0,0,0,.67-1.16v-6.92a1.33,1.33,0,0,0-.66-1.15l-6.44-3.74A1.35,1.35,0,0,0,231.23,142.55Z"/><polygon class="cls-6" points="234.66 152.33 234.58 149.72 226.96 145.13 229.02 143.9 236.71 148.48 236.72 151.16 234.66 152.33"/><path class="cls-5" d="M224.38,147.2l6.62,3.73a2.71,2.71,0,0,0,.76.42c.29.05.61-.21.84-.34l3.85-2.14,3.12-1.74c.42-.23,0-.88-.38-.65l-7.51,4.19h.37l-7.29-4.12c-.42-.23-.8.41-.38.65Z"/><path class="cls-5" d="M232.24,159.36V151a.38.38,0,0,0-.75,0v8.37a.38.38,0,0,0,.75,0Z"/><path class="cls-6" d="M237.4,155.55l1.45-.83a.32.32,0,0,0,.15-.27v-.62a.19.19,0,0,0-.29-.17l-1.4.82a.41.41,0,0,0-.2.36v.54A.19.19,0,0,0,237.4,155.55Z"/><path class="cls-6" d="M225,148.67c0,.4,0,1.06,0,1.42a.44.44,0,0,0,.21.37l1.71,1a.19.19,0,0,0,.29-.16l0-1.42a.44.44,0,0,0-.22-.39l-1.74-1A.19.19,0,0,0,225,148.67Z"/><polygon class="cls-8" points="358.79 153.58 368.18 158.94 402.39 139.08 393 133.72 358.79 153.58"/><path class="cls-8" d="M356.07,150.67l-1.69,10.69,17.38-.53S356.21,150.88,356.07,150.67Z"/><polygon class="cls-8" points="351.74 242.65 361.13 248.02 395.35 228.15 385.95 222.79 351.74 242.65"/><path class="cls-8" d="M349,239.74l-1.69,10.69,17.38-.53S349.16,240,349,239.74Z"/><path class="cls-10" d="M295.3,208.45a5.38,5.38,0,0,0-2.44-5.28,1.72,1.72,0,0,0-2.05,0,1.3,1.3,0,0,0-.24,1.19,3,3,0,0,0,.62,1.1,10.73,10.73,0,0,0,4.11,3"/><path class="cls-10" d="M295.92,208.21a5.88,5.88,0,0,0,3.9-1.46,1.31,1.31,0,0,0,.57-1.08.92.92,0,0,0-.62-.69,1.74,1.74,0,0,0-1,0,3.5,3.5,0,0,0-2.89,3.25"/><path class="cls-5" d="M292.66,205.05a9.76,9.76,0,0,1,3,6c.05.48.8.48.75,0a10.55,10.55,0,0,0-3.25-6.53c-.36-.33-.89.2-.53.53Z"/><path class="cls-5" d="M295.87,208.65l2.88-2.24a.37.37,0,1,0-.53-.53l-2.88,2.24a.37.37,0,0,0,.53.53Z"/><path class="cls-10" d="M377.77,163.92a5.39,5.39,0,0,0-2.44-5.28c-.64-.36-1.55-.55-2.05,0a1.3,1.3,0,0,0-.24,1.19,3.09,3.09,0,0,0,.62,1.1,10.66,10.66,0,0,0,4.11,3"/><path class="cls-10" d="M378.39,163.68a5.9,5.9,0,0,0,3.9-1.46,1.31,1.31,0,0,0,.57-1.08.92.92,0,0,0-.62-.69,1.83,1.83,0,0,0-1,0,3.52,3.52,0,0,0-2.89,3.26"/><path class="cls-5" d="M375.12,160.52a9.77,9.77,0,0,1,3,6c0,.48.8.48.75,0a10.55,10.55,0,0,0-3.25-6.53c-.36-.33-.89.19-.54.53Z"/><path class="cls-5" d="M378.34,164.12l2.88-2.25a.38.38,0,0,0,0-.53.4.4,0,0,0-.53,0l-2.88,2.25a.37.37,0,1,0,.53.53Z"/><path class="cls-10" d="M308.58,71.86a5.41,5.41,0,0,0-2.44-5.28c-.65-.36-1.55-.55-2.05,0a1.29,1.29,0,0,0-.24,1.2,3,3,0,0,0,.61,1.09,10.69,10.69,0,0,0,4.12,3"/><path class="cls-10" d="M309.19,71.62a5.93,5.93,0,0,0,3.91-1.46,1.3,1.3,0,0,0,.56-1.08.89.89,0,0,0-.61-.69,1.84,1.84,0,0,0-1,0,3.52,3.52,0,0,0-2.9,3.26"/><path class="cls-5" d="M305.93,68.45a9.73,9.73,0,0,1,3,6c.06.47.81.48.75,0a10.55,10.55,0,0,0-3.25-6.54c-.35-.33-.88.2-.53.53Z"/><path class="cls-5" d="M309.14,72.06,312,69.81a.38.38,0,0,0,0-.53.39.39,0,0,0-.53,0l-2.89,2.25a.38.38,0,0,0,0,.53.39.39,0,0,0,.53,0Z"/><path class="cls-10" d="M247.29,167.41a5.39,5.39,0,0,0-2.44-5.28c-.64-.36-1.55-.55-2,0a1.3,1.3,0,0,0-.24,1.19,3,3,0,0,0,.62,1.1,10.66,10.66,0,0,0,4.11,3"/><path class="cls-10" d="M247.91,167.17a5.9,5.9,0,0,0,3.9-1.46,1.31,1.31,0,0,0,.57-1.08.92.92,0,0,0-.62-.69,1.74,1.74,0,0,0-1,0,3.5,3.5,0,0,0-2.89,3.25"/><path class="cls-5" d="M244.64,164a9.77,9.77,0,0,1,3,6c0,.48.8.48.75,0a10.51,10.51,0,0,0-3.26-6.53c-.35-.33-.88.2-.53.53Z"/><path class="cls-5" d="M247.86,167.61l2.88-2.24a.37.37,0,0,0-.53-.53l-2.88,2.24a.37.37,0,0,0,0,.53.38.38,0,0,0,.53,0Z"/><circle class="cls-11" cx="253.31" cy="115.75" r="8.32" transform="translate(85.61 338.1) rotate(-77.53)"/><path class="cls-12" d="M258.81,115.75a5.5,5.5,0,1,1-4.5-5.42,5.56,5.56,0,0,1,4.5,5.42.63.63,0,0,0,1.25,0,6.76,6.76,0,1,0-5.49,6.64,6.82,6.82,0,0,0,5.49-6.64A.63.63,0,0,0,258.81,115.75Z"/><path class="cls-12" d="M254.5,117.47a1.65,1.65,0,0,1-.91.48v.17a.37.37,0,0,1-.1.24.34.34,0,0,1-.23.1.3.3,0,0,1-.23-.1.32.32,0,0,1-.09-.24V118a1.93,1.93,0,0,1-.85-.31,1.43,1.43,0,0,1-.52-.58.85.85,0,0,1-.07-.26.35.35,0,0,1,.56-.28.49.49,0,0,1,.14.18.73.73,0,0,0,.28.39,1.29,1.29,0,0,0,.48.2l0-1.49a2.56,2.56,0,0,1-.92-.49,1,1,0,0,1-.33-.77,1.12,1.12,0,0,1,.34-.83,1.54,1.54,0,0,1,.92-.4v-.15a.36.36,0,0,1,.09-.24.34.34,0,0,1,.22-.1.34.34,0,0,1,.33.34v.14a1.6,1.6,0,0,1,.89.32.85.85,0,0,1,.32.67.4.4,0,0,1-.1.26.37.37,0,0,1-.24.1.32.32,0,0,1-.21-.08.28.28,0,0,1-.1-.21.44.44,0,0,0-.18-.26.87.87,0,0,0-.39-.16l0,1.32c.84.28,1.27.72,1.27,1.33A1.15,1.15,0,0,1,254.5,117.47Zm-2-2.64a1.78,1.78,0,0,0,.45.26V114a.82.82,0,0,0-.44.19.5.5,0,0,0-.16.36A.47.47,0,0,0,252.54,114.83Zm1.5,2.22a.62.62,0,0,0,.17-.41.53.53,0,0,0-.14-.34,1.28,1.28,0,0,0-.48-.29v1.29A1,1,0,0,0,254,117.05Z"/><path class="cls-6" d="M246.49,116.5a6.38,6.38,0,0,1,3-6.44.63.63,0,0,0-.64-1.08,7.67,7.67,0,0,0-3.59,7.85.62.62,0,1,0,1.2-.33Z"/><path class="cls-6" d="M250.36,109.54l.42-.17a.43.43,0,0,0,.21-.11.46.46,0,0,0,.17-.17.51.51,0,0,0,.07-.24.53.53,0,0,0,0-.25l-.06-.15a.69.69,0,0,0-.23-.22l-.15-.06a.62.62,0,0,0-.33,0l-.42.17a.42.42,0,0,0-.22.11.47.47,0,0,0-.16.18.45.45,0,0,0-.07.23.43.43,0,0,0,0,.25l.06.15a.69.69,0,0,0,.23.22l.15.06a.62.62,0,0,0,.33,0Z"/><path class="cls-6" d="M259.35,116a6.39,6.39,0,0,1-2.15,4.34.63.63,0,0,0,0,.88.64.64,0,0,0,.89,0A7.58,7.58,0,0,0,260.6,116a.63.63,0,1,0-1.25,0Z"/><path class="cls-13" d="M255.63,149.69l20.63,11.63,2.91,1.64a5,5,0,0,0,5.05-8.63l-20.63-11.64-2.91-1.64a5,5,0,0,0-5.05,8.64Z"/><path class="cls-4" d="M271.91,155.16a2.52,2.52,0,0,1,1.67-3.23.37.37,0,0,0-.2-.72,3.25,3.25,0,0,0-2.19,4.15c.15.45.87.26.72-.2Z"/><path class="cls-4" d="M274.32,156.5a2.48,2.48,0,0,1,1.67-3.22c.46-.14.26-.87-.2-.73a3.31,3.31,0,0,0-1.91,1.49,3.26,3.26,0,0,0-.28,2.66c.15.46.87.26.72-.2Z"/><path class="cls-4" d="M276.67,157.84a2.5,2.5,0,0,1,1.66-3.23.37.37,0,0,0-.2-.72,3.4,3.4,0,0,0-1.91,1.48,3.33,3.33,0,0,0-.28,2.67c.15.46.88.26.73-.2Z"/><path class="cls-4" d="M258.8,147.92a2.52,2.52,0,0,1,1.67-3.23.37.37,0,0,0-.2-.72,3.37,3.37,0,0,0-1.91,1.48,3.29,3.29,0,0,0-.28,2.67c.15.46.87.26.72-.2Z"/><path class="cls-4" d="M261.39,149.28a2.5,2.5,0,0,1,1.67-3.22c.46-.14.26-.87-.2-.73a3.31,3.31,0,0,0-1.91,1.49,3.26,3.26,0,0,0-.28,2.66c.15.46.87.26.72-.2Z"/><path class="cls-4" d="M264,150.78a2.5,2.5,0,0,1,1.66-3.23.37.37,0,0,0-.19-.72,3.24,3.24,0,0,0-2.2,4.15c.15.45.88.26.73-.2Z"/><path class="cls-4" d="M266.66,152.26a2.55,2.55,0,0,1,.2-2.09,2.52,2.52,0,0,1,1.46-1.14.37.37,0,0,0-.2-.72,3.37,3.37,0,0,0-1.91,1.48,3.33,3.33,0,0,0-.28,2.67c.15.46.88.26.73-.2Z"/><path class="cls-4" d="M269.4,153.75a2.5,2.5,0,0,1,1.66-3.23.37.37,0,0,0-.2-.72,3.37,3.37,0,0,0-1.91,1.48,3.33,3.33,0,0,0-.28,2.67c.15.46.88.26.73-.2Z"/><path class="cls-4" d="M263.23,176.48l31.21,18.26a12.61,12.61,0,0,0,12.67,0l31.18-17.95c3.85-2.53,3.28-8.47,2.12-11l-36.08-18.74a4.86,4.86,0,0,0-4.94,0l-35.76,19.27c-.23-1.74-1.86,0-1.88.13C261,170.12,260,174.06,263.23,176.48Z"/><path class="cls-13" d="M273.37,177.49l-20,12.73-2.8,1.79a5,5,0,1,0,5,8.63l20-12.73,2.8-1.79a5,5,0,1,0-5-8.63Z"/><path class="cls-4" d="M261,189a2.62,2.62,0,0,1,1.65,1,2.56,2.56,0,0,1,.42,2,.38.38,0,0,0,.73.2,3.3,3.3,0,0,0-2.6-4,.39.39,0,0,0-.46.26.38.38,0,0,0,.26.47Z"/><path class="cls-4" d="M273.72,180.84a2.63,2.63,0,0,1,1.65,1,2.55,2.55,0,0,1,.42,2,.38.38,0,0,0,.73.2,3.29,3.29,0,0,0-2.6-4,.38.38,0,0,0-.46.26.37.37,0,0,0,.26.46Z"/><path class="cls-4" d="M271.25,182.48a2.59,2.59,0,0,1,1.65,1,2.62,2.62,0,0,1,.42,2,.38.38,0,1,0,.73.2,3.35,3.35,0,0,0-.5-2.61,3.38,3.38,0,0,0-2.11-1.36.38.38,0,0,0-.46.26.38.38,0,0,0,.27.46Z"/><path class="cls-4" d="M268.63,184.09a2.65,2.65,0,0,1,1.65,1,2.6,2.6,0,0,1,.43,2,.39.39,0,0,0,.26.46.37.37,0,0,0,.46-.26,3.29,3.29,0,0,0-2.6-4,.39.39,0,0,0-.46.26.37.37,0,0,0,.26.46Z"/><path class="cls-4" d="M266.08,185.84a2.55,2.55,0,0,1,2.08,3,.38.38,0,0,0,.26.46.37.37,0,0,0,.46-.26,3.3,3.3,0,0,0-2.6-4,.39.39,0,0,0-.46.27.38.38,0,0,0,.26.46Z"/><path class="cls-4" d="M263.46,187.54a2.56,2.56,0,0,1,2.08,3.06.38.38,0,0,0,.26.46.37.37,0,0,0,.46-.26,3.29,3.29,0,0,0-2.6-4,.37.37,0,1,0-.2.72Z"/><path class="cls-13" d="M338.5,142l-20,12.73-2.8,1.79a5,5,0,1,0,5.05,8.63l20-12.73,2.8-1.79a5,5,0,1,0-5-8.63Z"/><path class="cls-4" d="M326.15,153.55a2.54,2.54,0,0,1,2.08,3,.37.37,0,0,0,.26.46.38.38,0,0,0,.46-.26,3.3,3.3,0,0,0-2.6-4,.39.39,0,0,0-.46.26.38.38,0,0,0,.26.47Z"/><path class="cls-4" d="M338.85,145.35a2.56,2.56,0,0,1,2.08,3.06.37.37,0,0,0,.26.46.38.38,0,0,0,.46-.26,3.29,3.29,0,0,0-2.6-4,.37.37,0,0,0-.2.72Z"/><path class="cls-4" d="M336.38,147a2.59,2.59,0,0,1,1.65,1,2.62,2.62,0,0,1,.42,2,.4.4,0,0,0,.27.47.39.39,0,0,0,.46-.27,3.29,3.29,0,0,0-2.6-4,.39.39,0,0,0-.47.26.38.38,0,0,0,.27.46Z"/><path class="cls-4" d="M333.76,148.6a2.65,2.65,0,0,1,1.65,1,2.6,2.6,0,0,1,.43,2,.39.39,0,0,0,.26.46.37.37,0,0,0,.46-.26,3.38,3.38,0,0,0-.5-2.62,3.34,3.34,0,0,0-2.1-1.36.39.39,0,0,0-.46.26.37.37,0,0,0,.26.46Z"/><path class="cls-4" d="M331.21,150.35a2.55,2.55,0,0,1,2.08,3.05.38.38,0,0,0,.26.46.37.37,0,0,0,.46-.26,3.35,3.35,0,0,0-.5-2.61,3.31,3.31,0,0,0-2.1-1.37.39.39,0,0,0-.46.27.38.38,0,0,0,.26.46Z"/><path class="cls-4" d="M328.59,152.05a2.57,2.57,0,0,1,1.65,1,2.6,2.6,0,0,1,.43,2,.39.39,0,0,0,.26.46.38.38,0,0,0,.46-.26,3.29,3.29,0,0,0-2.6-4,.37.37,0,0,0-.2.72Z"/><path class="cls-13" d="M321,187.46l21.06,10.88,2.95,1.52c2.32,1.2,5.54.68,6.84-1.8,1.21-2.29.69-5.55-1.79-6.84L329,180.34,326,178.82c-2.32-1.2-5.53-.68-6.84,1.8-1.21,2.29-.69,5.55,1.79,6.84Z"/><path class="cls-4" d="M337.24,192.36a2.59,2.59,0,0,1,.14-2.11,2.55,2.55,0,0,1,1.46-1.22c.46-.15.26-.87-.2-.72a3.28,3.28,0,0,0-2.12,4.25.37.37,0,1,0,.72-.2Z"/><path class="cls-4" d="M339.87,193.66a2.59,2.59,0,0,1,.14-2.11,2.63,2.63,0,0,1,1.46-1.22c.46-.15.26-.87-.2-.72a3.37,3.37,0,0,0-1.91,1.57,3.3,3.3,0,0,0-.21,2.68.37.37,0,1,0,.72-.2Z"/><path class="cls-4" d="M342.5,195a2.55,2.55,0,0,1,1.6-3.32c.46-.15.26-.88-.2-.73a3.41,3.41,0,0,0-1.91,1.57,3.3,3.3,0,0,0-.21,2.68.37.37,0,1,0,.72-.2Z"/><path class="cls-4" d="M345.13,196.27a2.59,2.59,0,0,1,.14-2.11,2.55,2.55,0,0,1,1.46-1.22c.46-.15.26-.87-.2-.72a3.28,3.28,0,0,0-2.12,4.25.37.37,0,0,0,.46.26.38.38,0,0,0,.26-.46Z"/><path class="cls-4" d="M323.78,185.5a2.59,2.59,0,0,1,.13-2.11,2.54,2.54,0,0,1,1.47-1.22c.45-.15.26-.87-.2-.72a3.28,3.28,0,0,0-2.13,4.25.39.39,0,0,0,.46.26.38.38,0,0,0,.27-.46Z"/><path class="cls-4" d="M326.43,186.81a2.55,2.55,0,0,1,1.6-3.33c.46-.15.27-.87-.19-.72a3.29,3.29,0,0,0-2.13,4.25.38.38,0,0,0,.46.26.37.37,0,0,0,.26-.46Z"/><path class="cls-4" d="M329.14,188.26a2.63,2.63,0,0,1,.14-2.11,2.59,2.59,0,0,1,1.46-1.22c.46-.15.27-.87-.2-.72a3.28,3.28,0,0,0-2.12,4.25.38.38,0,0,0,.46.26.37.37,0,0,0,.26-.46Z"/><path class="cls-4" d="M331.93,189.59a2.55,2.55,0,0,1,1.6-3.33c.46-.15.26-.87-.2-.72a3.39,3.39,0,0,0-1.91,1.56,3.33,3.33,0,0,0-.21,2.69.37.37,0,0,0,.46.26.38.38,0,0,0,.26-.46Z"/><path class="cls-4" d="M334.72,191a2.63,2.63,0,0,1,.14-2.11,2.55,2.55,0,0,1,1.46-1.22c.46-.15.27-.87-.2-.72A3.28,3.28,0,0,0,334,191.2a.38.38,0,0,0,.46.26.37.37,0,0,0,.26-.46Z"/><path class="cls-8" d="M264.23,171.41l30.72,18a11.54,11.54,0,0,0,11.6.05L338,171.32a5.54,5.54,0,0,0,.1-9.54l-33.46-20.15a5.53,5.53,0,0,0-5.64,0l-34.78,20.28A5.53,5.53,0,0,0,264.23,171.41Z"/><ellipse class="cls-13" cx="301.21" cy="167.02" rx="21.04" ry="9.67"/><circle class="cls-14" cx="300.95" cy="150.12" r="23.29" transform="translate(89.81 411.9) rotate(-77.62)"/><path class="cls-15" d="M300.41,126.34a20.33,20.33,0,0,0-16.85,12.89c-3.69,8.84-2,20.55,4.11,27.94A18,18,0,0,0,301,173.84a.63.63,0,0,0,0-1.25c-9.53-.18-15.64-8.76-17.4-17.34-1.59-7.8-.16-16.4,5.5-22.27a18.1,18.1,0,0,1,11.35-5.39c.79-.08.8-1.33,0-1.25Z"/><path class="cls-15" d="M300.09,126.42C294,130,290.42,137,289.55,143.79a56.65,56.65,0,0,0,0,13c.38,3.7,1,7.78,3.09,11A17.15,17.15,0,0,0,301,174c.75.29,1.08-.92.34-1.21-3.71-1.47-7.11-3.89-8.66-7.69-1.82-4.5-2.14-9.51-2.24-14.31s.17-9.67,2.22-14a21.82,21.82,0,0,1,8-9.35.63.63,0,0,0-.63-1.08Z"/><path class="cls-15" d="M301.84,173.21A315.94,315.94,0,0,1,301,127c0-.8-1.21-.8-1.25,0a315.94,315.94,0,0,0,.81,46.25c.07.8,1.32.8,1.25,0Z"/><path class="cls-15" d="M301.65,173.85c6.1-4.82,10.8-11.64,11.91-19.45,1-7-.37-15.09-4.31-21a19.09,19.09,0,0,0-8.33-7c-.73-.31-1.37.77-.63,1.08,6.13,2.62,9.77,8.3,11.3,14.62,1.74,7.22,1.24,14.79-2.47,21.32a33.13,33.13,0,0,1-8.35,9.53c-.63.5.26,1.38.88.88Z"/><path class="cls-15" d="M300.6,127.59c3.66,0,7.24,1.82,10.19,3.87a17.48,17.48,0,0,1,7,9.18,28.82,28.82,0,0,1,.75,13.47c-.71,4.37-2.28,8.89-5.22,12.29a19.48,19.48,0,0,1-12.15,6.39c-.79.08-.8,1.33,0,1.25A21.18,21.18,0,0,0,313,168.61c3.46-3.17,5.46-7.77,6.47-12.28a31.74,31.74,0,0,0,.07-14.41,18.62,18.62,0,0,0-6.62-10.46c-3.41-2.72-7.81-5.07-12.27-5.12a.63.63,0,0,0,0,1.25Z"/><path class="cls-15" d="M280.56,138.24c2.21,5.14,8.15,7.46,13.3,8.3A34,34,0,0,0,313,144.22a20,20,0,0,0,8-6.17c.48-.65-.61-1.27-1.08-.63-3.55,4.77-9.62,7.08-15.33,7.94s-12.08.48-17.27-2.17a11.57,11.57,0,0,1-5.63-5.58c-.31-.74-1.39-.1-1.08.63Z"/><path class="cls-15" d="M280.66,162.7c8.42,8.24,22.27,9.8,32.89,5.27a24.27,24.27,0,0,0,7.85-5.27.63.63,0,0,0-.89-.88c-7.8,7.92-21,9.22-31,5.17a24.67,24.67,0,0,1-8-5.17c-.57-.56-1.46.32-.88.88Z"/><path class="cls-15" d="M277.37,151c3.28,4.15,9.16,6.32,14.1,7.57a38.61,38.61,0,0,0,21.7-.56,31.52,31.52,0,0,0,11.51-7c.59-.56-.3-1.44-.88-.88-10.41,9.89-27,10.82-39.5,4.5a17.46,17.46,0,0,1-6-4.5c-.5-.64-1.38.25-.89.88Z"/><path class="cls-16" d="M312.2,117.48A11.39,11.39,0,1,0,291,123.23h0l0,0c.44.73,1,1.26,1.54,2l6.61,8.76a2.05,2.05,0,0,0,3.28,0l6.5-8.61a24.32,24.32,0,0,0,1.65-2.2l0,0h0A11.25,11.25,0,0,0,312.2,117.48Zm-11.39,5a5,5,0,1,1,5-5A5,5,0,0,1,300.81,122.44Z"/><path class="cls-17" d="M291.23,96.75c-.08.1.09-.12,0,0l-.07.09L291,97l-.34.39a11.57,11.57,0,0,1-.87.84l-.24.2-.1.08-.08.06c-.2.15-.4.29-.61.42a10.21,10.21,0,0,1-1.39.73.62.62,0,0,0-.22.85.64.64,0,0,0,.85.23,10.72,10.72,0,0,0,4.29-3.43.63.63,0,1,0-1.08-.63Z"/><path class="cls-18" d="M322.81,77.92c-.53.49-11.76,7.72-11.76,7.72s-10.73-3.42-17.06,3.1-6.26,15.62-4.09,18.63,5.51,1.95,6.05-.71-1.7-6.6,1.81-8.75,7.18-2.3,9.12,2.66c1.16,3,12.78-.56,12.78-.56l12.14-5.89C331.8,86.79,328.43,79.88,322.81,77.92Z"/><path class="cls-18" d="M300.36,114.05c-1.17-.55-1.26-1.78-.81-3a7.07,7.07,0,0,1,2.5-2.91,11,11,0,0,0,2.81-2.66,22.86,22.86,0,0,0,1.78-4.91c.32-1.31.31-1.6,1.45-2.31A5.37,5.37,0,0,1,312,98a19,19,0,0,1,4.28,1.47,1.39,1.39,0,0,0,1.78-.26c6.48-8.14,2,1.52.38,4.26a14.23,14.23,0,0,1-1.64,1.92c-4,4.77-13.51,10.51-16.46,8.71"/><path class="cls-18" d="M282,101.33a7.44,7.44,0,0,0-1.84,2.48,2.69,2.69,0,0,0,.48,2.89,3,3,0,0,0,2.66.52c2.68-.54,4.62-2.8,6.34-4.92l2.45-10C288.62,95.21,285.18,98.13,282,101.33Z"/><path class="cls-18" d="M298.11,88.81a50,50,0,0,0-17.22,7.82,3.65,3.65,0,0,0-1.54,1.74,2.37,2.37,0,0,0,1.16,2.59,4.53,4.53,0,0,0,3,.45"/><path class="cls-18" d="M304.93,85.4a50.12,50.12,0,0,0-18.52,3.84,3.66,3.66,0,0,0-1.89,1.36,2.41,2.41,0,0,0,.56,2.79,4.56,4.56,0,0,0,2.8,1.09"/><path class="cls-17" d="M289.73,105.61a16,16,0,0,1-.24-7.31,21.16,21.16,0,0,1,1.9-5,14.13,14.13,0,0,1,7.92-7.09c.75-.27.42-1.48-.33-1.2a15.39,15.39,0,0,0-8.67,7.66,22.4,22.4,0,0,0-2.06,5.44,17.61,17.61,0,0,0,.28,7.81.62.62,0,0,0,1.2-.33Z"/><path class="cls-17" d="M290.13,93.17a47.74,47.74,0,0,0-9.51,8.83,5.44,5.44,0,0,0-1.38,2.56,2.86,2.86,0,0,0,.64,2.28c1.27,1.49,3.38,1.42,5,.63a15.63,15.63,0,0,0,4.23-3.59c.55-.59-.34-1.48-.89-.89a14.5,14.5,0,0,1-4,3.4,3.1,3.1,0,0,1-2.9.08,1.79,1.79,0,0,1-.6-2.56,16.12,16.12,0,0,1,2.12-2.68c.76-.85,1.55-1.66,2.38-2.44a58.12,58.12,0,0,1,5.5-4.54c.64-.47,0-1.56-.63-1.08Z"/><path class="cls-17" d="M293.15,88.75c-3.59,1.47-6.74,3.62-10.08,5.56-1.89,1.11-4.95,2.7-4.27,5.37.33,1.29,1.94,2.65,3.35,2.25a.63.63,0,0,0-.33-1.21,1.9,1.9,0,0,1-.38,0,2,2,0,0,1-1.13-.7,1.74,1.74,0,0,1,.1-2.21,11.88,11.88,0,0,1,3-2.21c3.32-1.94,6.49-4.14,10.07-5.61.73-.3.41-1.51-.33-1.2Z"/><path class="cls-17" d="M284.48,92a4.28,4.28,0,0,0,4.11-2.92.62.62,0,0,0-.44-.76.64.64,0,0,0-.77.43.88.88,0,0,1-.05.15s-.06.14,0,.06,0,0,0,.06,0,.09-.07.14a2.39,2.39,0,0,1-.13.21l-.08.13,0,.06c.05-.07,0,0,0,0l-.1.12-.17.18-.21.18c-.05,0-.08.06,0,0l-.13.09a3.35,3.35,0,0,1-.45.27l-.12.06c-.15.07.12,0,0,0l-.24.09a4.71,4.71,0,0,1-.54.12c.09,0,.07,0,0,0h-.42a.63.63,0,1,0,0,1.25Z"/><path class="cls-17" d="M293.38,108.63a4.7,4.7,0,0,0-1.55-3.41,2.46,2.46,0,0,0-3.13.07.6.6,0,0,0-.16.61c.75,2.44,3.36,4.69,6,3.63,2.21-.88,2.13-3.36,2.1-5.36,0-1.15,0-2.32-.13-3.46a2.28,2.28,0,0,1,0-.26c0,.18,0-.06.06-.14a4.83,4.83,0,0,1,.41-.82,6.47,6.47,0,0,1,6-2.84c.81,0,.8-1.21,0-1.25a7.88,7.88,0,0,0-5.84,1.95,5.08,5.08,0,0,0-1.89,3.21c0,1,.11,1.93.13,2.9,0,1.21.27,2.8-.27,3.93a1.94,1.94,0,0,1-1.24,1l-.19,0c.32-.07-.17,0-.25,0a3.31,3.31,0,0,1-1.39-.2,4.49,4.49,0,0,1-2.32-2.74l-.16.61a1.28,1.28,0,0,1,1.78.3,3.85,3.85,0,0,1,.77,2.15c.09.79,1.34.8,1.25,0Z"/><path class="cls-17" d="M279.39,99.79a3.18,3.18,0,0,0,3.36-3.93.62.62,0,0,0-.76-.44.64.64,0,0,0-.44.77l0,.14c0,.16,0-.13,0,0a1.43,1.43,0,0,1,0,.29v.15s0,.16,0,.06,0,.07,0,.09l0,.12a1.52,1.52,0,0,1-.09.28c-.05.15.06-.12,0,0l-.06.13a1.76,1.76,0,0,1-.14.23s-.11.15-.05.08-.05.05-.06.07l-.19.19-.12.09,0,0-.25.15-.11,0s0,0,0,0l-.07,0-.26.08c-.06,0-.22.08-.28.06h-.47a.63.63,0,0,0-.63.62.65.65,0,0,0,.63.63Z"/><path class="cls-17" d="M280.63,106.7a5.24,5.24,0,0,0,2.05-2.37,2.79,2.79,0,0,0-.48-2.85.62.62,0,0,0-.88,0,.64.64,0,0,0,0,.88l0,0,.08.12a.3.3,0,0,1,.06.11s.06.13,0,0a2.17,2.17,0,0,1,.07.24l0,.15c0,.1,0-.09,0,0a2.53,2.53,0,0,1,0,.28.49.49,0,0,1,0,.12c0,.2,0,0,0,.05a2.45,2.45,0,0,1-.73,1.37,5.08,5.08,0,0,1-.88.74.63.63,0,1,0,.63,1.08Z"/><path class="cls-17" d="M299.85,113.75a7.54,7.54,0,0,1,1.24-.42,3.34,3.34,0,0,1,.52-.09,4,4,0,0,1,.6,0,1,1,0,0,1,.44.07.71.71,0,0,1,.17.09l.2.12s.12.1,0,0a.6.6,0,0,1,.08.08l.08.07s0,0,0,0l.06.09c.06.1,0,0,0,0a1.22,1.22,0,0,1,.06.26.64.64,0,0,0,.77.44.65.65,0,0,0,.44-.77,2.27,2.27,0,0,0-2.06-1.73,6.19,6.19,0,0,0-3,.56.64.64,0,0,0-.44.77.62.62,0,0,0,.77.44Z"/><path class="cls-17" d="M317.48,105.79a14,14,0,0,0,3.9-9.84.63.63,0,0,0-1.25,0,12.71,12.71,0,0,1-3.53,9c-.56.58.32,1.47.88.88Z"/><line class="cls-19" x1="230.77" y1="236.84" x2="230.77" y2="244.92"/><polyline class="cls-19" points="229.55 243.91 230.87 244.92 232 243.91"/><path class="cls-4" d="M366.41,95.92l-.11-5.79a1.33,1.33,0,0,0-.69-1.15l-6.68-3.72a1.34,1.34,0,0,0-1.34,0l-15.4,9.11a1.33,1.33,0,0,0-.66,1.18l.11,5.77a1.34,1.34,0,0,0,.69,1.15l6.78,3.78a1.31,1.31,0,0,0,1.34,0l15.31-9.14A1.34,1.34,0,0,0,366.41,95.92Z"/><path class="cls-20" d="M349.56,99h0l-.19.32h0l-.55-.22c0-.21,0,.07,0,.14l0,.55c0,.59,0,1.18.07,1.77.05,1.3.11,2.61.16,3.91l0,.91c0,.48.77.49.75,0-.08-2.16-.17-4.31-.26-6.47a6.77,6.77,0,0,0-.05-1,.39.39,0,0,0-.56-.23.41.41,0,0,0-.18.33c0,.48.71.48.75,0Z"/><path class="cls-14" d="M347.17,97.68h0L347,98h0l-.55-.22c0-.21,0,.07,0,.14s0,.36,0,.55c0,.59.05,1.18.08,1.77l.15,3.91c0,.3,0,.61,0,.91,0,.48.77.48.75,0-.09-2.16-.17-4.32-.26-6.47a8.43,8.43,0,0,0-.06-1,.38.38,0,0,0-.55-.23.42.42,0,0,0-.19.33c0,.48.71.48.75,0Z"/><path class="cls-14" d="M344.36,96.09h0l-.19.33h0l-.55-.23c0-.2,0,.08,0,.14l0,.55c0,.59.05,1.18.07,1.78,0,1.3.11,2.6.16,3.9l0,.92c0,.48.77.48.75,0q-.12-3.24-.26-6.48a6.84,6.84,0,0,0,0-1,.38.38,0,0,0-.74.11c0,.48.71.47.75,0Z"/><path class="cls-14" d="M352,97.6h0l-.18.33h0l-.55-.23c0-.21,0,.08,0,.14s0,.37,0,.55c0,.59,0,1.18.08,1.77l.15,3.91c0,.31,0,.61,0,.92,0,.48.77.48.75,0-.09-2.16-.17-4.32-.26-6.48a8.55,8.55,0,0,0-.06-1,.38.38,0,0,0-.55-.22.42.42,0,0,0-.19.33c0,.48.71.47.75,0Z"/><path class="cls-14" d="M354.53,96.28h0l-.19.32h0l-.55-.22c0-.21,0,.07,0,.13l0,.55c0,.6.05,1.19.07,1.78.05,1.3.11,2.6.16,3.91l0,.91c0,.48.77.48.75,0q-.12-3.24-.26-6.47a6.77,6.77,0,0,0-.05-1A.38.38,0,0,0,354,96a.37.37,0,0,0-.19.33c0,.48.71.48.75,0Z"/><path class="cls-14" d="M357.05,95h0l-.18.32h0l-.55-.22c0-.21,0,.07,0,.14s0,.36,0,.55c0,.59.05,1.18.08,1.77l.15,3.91c0,.3,0,.61,0,.91,0,.48.77.49.75,0-.09-2.16-.17-4.31-.26-6.47a8.55,8.55,0,0,0-.06-1,.37.37,0,0,0-.55-.22.42.42,0,0,0-.19.32c0,.48.71.48.75,0Z"/><path class="cls-14" d="M359.58,93.32h0l-.19.32h0l-.55-.22c0-.21,0,.07,0,.14l0,.55c0,.59.05,1.18.07,1.77.05,1.3.11,2.61.16,3.91l0,.91c0,.48.77.49.75,0-.08-2.16-.17-4.31-.26-6.47a6.84,6.84,0,0,0-.05-1A.38.38,0,0,0,359,93a.4.4,0,0,0-.19.33c0,.48.71.48.75,0Z"/><path class="cls-14" d="M362.1,91.67h0l-.18.32h0l-.55-.22c0-.21,0,.07,0,.13s0,.37,0,.55c0,.6.05,1.19.08,1.78l.15,3.91c0,.3,0,.61,0,.91,0,.48.77.48.75,0-.09-2.16-.17-4.32-.26-6.47a8.43,8.43,0,0,0-.06-1,.38.38,0,0,0-.55-.23.42.42,0,0,0-.19.33c0,.48.71.48.75,0Z"/><path class="cls-14" d="M364.63,90.35h0l-.19.32h0l-.55-.22c0-.21,0,.07,0,.14l0,.55c0,.59.05,1.18.07,1.77.05,1.3.11,2.61.16,3.91l0,.91c0,.48.77.49.75,0-.08-2.16-.17-4.31-.26-6.47a6.84,6.84,0,0,0-.05-1,.38.38,0,0,0-.55-.22.37.37,0,0,0-.19.32c0,.48.71.48.75,0Z"/><path class="cls-20" d="M365.67,89.12c.13-.23,0,0-.18.07s-.53.31-.79.46L362.38,91q-3.31,1.89-6.63,3.75l-5.67,3.2a5.88,5.88,0,0,0-1.07.6c.25-.24.49.15,0-.18a12.25,12.25,0,0,0-1.19-.63l-6-3.14c-.42-.22-.8.43-.37.65l5.49,2.9a9,9,0,0,0,2,1.06c.38.07.6-.12.93-.31,4.13-2.33,8.26-4.65,12.38-7,1-.55,1.92-1.09,2.88-1.65.3-.17.95-.4,1.13-.74s-.42-.8-.65-.37Z"/><path class="cls-4" d="M304.07,232.79,304,227a1.35,1.35,0,0,0-.7-1.15l-6.68-3.73a1.36,1.36,0,0,0-1.34,0l-15.4,9.1a1.35,1.35,0,0,0-.66,1.19l.11,5.77a1.35,1.35,0,0,0,.69,1.15l6.78,3.78a1.38,1.38,0,0,0,1.35,0l15.3-9.14A1.35,1.35,0,0,0,304.07,232.79Z"/><path class="cls-20" d="M287.22,235.89h0l-.19.33h0l-.55-.23c0-.21,0,.08,0,.14l0,.55c0,.59.05,1.18.07,1.77.05,1.31.11,2.61.16,3.91l0,.92c0,.48.77.48.75,0q-.12-3.24-.26-6.48a6.84,6.84,0,0,0-.05-1,.38.38,0,0,0-.55-.22.37.37,0,0,0-.19.33c0,.48.71.47.75,0Z"/><path class="cls-14" d="M284.83,234.54h0l-.18.33h0l-.55-.23c0-.21,0,.07,0,.14s0,.37,0,.55c0,.59.05,1.18.08,1.77l.15,3.91c0,.31,0,.61,0,.92,0,.48.77.48.75,0-.09-2.16-.17-4.32-.26-6.48a8.55,8.55,0,0,0-.06-1,.37.37,0,0,0-.55-.22.42.42,0,0,0-.19.32c0,.49.71.48.75,0Z"/><path class="cls-14" d="M282,233h0l-.19.32h0l-.55-.22c0-.21,0,.07,0,.14l0,.55c0,.59.05,1.18.07,1.77.05,1.3.11,2.61.16,3.91,0,.3,0,.61,0,.91a.38.38,0,0,0,.75,0l-.27-6.47a6.84,6.84,0,0,0-.05-1,.38.38,0,0,0-.55-.22.37.37,0,0,0-.19.32c0,.48.71.48.75,0Z"/><path class="cls-14" d="M289.66,234.46h0l-.19.32h0l-.55-.22c0-.21,0,.07,0,.14s0,.36,0,.55c0,.59.05,1.18.08,1.77l.15,3.91c0,.3,0,.61,0,.91,0,.48.77.49.75,0-.09-2.16-.17-4.31-.26-6.47a8.55,8.55,0,0,0-.06-1,.38.38,0,0,0-.55-.23.45.45,0,0,0-.19.33c0,.48.71.48.75,0Z"/><path class="cls-14" d="M292.19,233.14h0l-.19.33h0l-.55-.23c0-.21,0,.07,0,.14l0,.55c0,.59,0,1.18.07,1.77.06,1.31.11,2.61.16,3.91,0,.31,0,.61,0,.92a.38.38,0,0,0,.75,0c-.09-2.16-.17-4.32-.27-6.48a6.84,6.84,0,0,0-.05-1,.38.38,0,0,0-.55-.22.39.39,0,0,0-.19.32c0,.48.71.48.75,0Z"/><path class="cls-14" d="M294.72,231.83h0l-.19.33h0l-.55-.23c0-.2,0,.08,0,.14s0,.37,0,.55c0,.59.05,1.18.08,1.78l.15,3.9c0,.31,0,.61,0,.92,0,.48.77.48.75,0q-.12-3.24-.26-6.48a8.55,8.55,0,0,0-.06-1,.38.38,0,0,0-.55-.22.39.39,0,0,0-.18.33c-.05.48.7.47.75,0Z"/><path class="cls-14" d="M297.24,230.19h0l-.19.33h0l-.55-.23c0-.2,0,.08,0,.14l0,.55c0,.59.05,1.18.07,1.77.06,1.31.11,2.61.16,3.91,0,.31,0,.61,0,.92a.38.38,0,0,0,.75,0c-.09-2.16-.17-4.32-.27-6.48a6.84,6.84,0,0,0,0-1,.38.38,0,0,0-.55-.22.4.4,0,0,0-.19.33c0,.48.71.47.75,0Z"/><path class="cls-14" d="M299.77,228.53h0l-.19.33h0l-.55-.23c0-.21,0,.07,0,.14s0,.37,0,.55c0,.59.05,1.18.08,1.77l.15,3.91c0,.31,0,.61,0,.92,0,.48.77.48.75,0q-.12-3.24-.26-6.48a8.55,8.55,0,0,0-.06-1,.37.37,0,0,0-.55-.22.38.38,0,0,0-.18.32c0,.48.7.48.75,0Z"/><path class="cls-14" d="M302.29,227.22h0l-.19.33h0l-.56-.23c0-.2,0,.08,0,.14l0,.55c0,.59.05,1.18.07,1.78.06,1.3.11,2.6.16,3.91,0,.3,0,.6,0,.91,0,.48.77.48.75,0-.09-2.16-.17-4.32-.27-6.48a6.63,6.63,0,0,0-.05-1,.38.38,0,0,0-.55-.23.4.4,0,0,0-.19.33c0,.48.71.48.75,0Z"/><path class="cls-20" d="M303.34,226c.12-.23,0,0-.19.07s-.53.31-.79.46L300,227.84l-6.63,3.76-5.67,3.2a4.82,4.82,0,0,0-1.06.6c.24-.24.48.15,0-.18a10.39,10.39,0,0,0-1.19-.63l-5.95-3.14c-.43-.22-.81.42-.38.65l5.49,2.89a9.23,9.23,0,0,0,2,1.06c.38.08.6-.12.93-.31q6.2-3.48,12.39-7l2.87-1.64c.3-.18.95-.41,1.13-.74s-.41-.8-.64-.38Z"/><path class="cls-3" d="M302.55,223.85l-.11-5.79a1.35,1.35,0,0,0-.69-1.15l-6.68-3.72a1.34,1.34,0,0,0-1.34,0l-15.41,9.1a1.36,1.36,0,0,0-.66,1.18l.11,5.77a1.34,1.34,0,0,0,.69,1.15l6.78,3.78a1.33,1.33,0,0,0,1.35,0l15.3-9.14A1.32,1.32,0,0,0,302.55,223.85Z"/><path class="cls-20" d="M285.69,227h0l-.18.32h0l-.55-.22c0-.21,0,.07,0,.14s0,.36,0,.55c0,.59,0,1.18.07,1.77.06,1.3.11,2.61.16,3.91,0,.3,0,.61,0,.91,0,.48.77.49.75,0-.09-2.16-.17-4.31-.26-6.47a8.55,8.55,0,0,0-.06-1,.37.37,0,0,0-.55-.22.39.39,0,0,0-.19.32c0,.48.71.48.75,0Z"/><path class="cls-21" d="M283.31,225.61h0l-.19.32h0l-.55-.22c0-.21,0,.07,0,.14l0,.55c0,.59,0,1.18.07,1.77.05,1.3.11,2.61.16,3.91l0,.91c0,.48.77.49.75,0-.08-2.16-.17-4.31-.26-6.47a8.44,8.44,0,0,0-.05-1,.39.39,0,0,0-.56-.23.41.41,0,0,0-.18.33c0,.48.71.48.75,0Z"/><path class="cls-21" d="M280.49,224h0l-.18.32h0l-.55-.22c0-.21,0,.07,0,.13s0,.37,0,.55c0,.59.05,1.19.07,1.78.06,1.3.11,2.6.16,3.91,0,.3,0,.6,0,.91,0,.48.77.48.75,0-.09-2.16-.17-4.32-.26-6.48a8.26,8.26,0,0,0-.06-1,.38.38,0,0,0-.55-.23.4.4,0,0,0-.19.33c0,.48.71.48.75,0Z"/><path class="cls-21" d="M288.14,225.53h0l-.19.33h0l-.55-.23c0-.2,0,.08,0,.14l0,.55c0,.59.05,1.18.07,1.78.05,1.3.11,2.6.16,3.9l0,.92c0,.48.77.48.75,0q-.12-3.24-.26-6.48a8.54,8.54,0,0,0-.05-1,.38.38,0,0,0-.74.11c0,.48.71.47.75,0Z"/><path class="cls-21" d="M290.66,224.21h0l-.18.32h0l-.55-.22c0-.21,0,.07,0,.14s0,.36,0,.55c0,.59.05,1.18.08,1.77l.15,3.91c0,.3,0,.61,0,.91,0,.48.77.48.75,0-.09-2.16-.17-4.32-.26-6.47a8.43,8.43,0,0,0-.06-1,.38.38,0,0,0-.55-.23.41.41,0,0,0-.19.33c0,.48.71.48.75,0Z"/><path class="cls-21" d="M293.19,222.89h0l-.19.32h0l-.55-.22c0-.21,0,.07,0,.14l0,.55c0,.59,0,1.18.07,1.77.05,1.3.11,2.61.16,3.91l0,.91c0,.49.77.49.75,0q-.12-3.22-.26-6.47a6.84,6.84,0,0,0-.05-1,.38.38,0,0,0-.74.1c0,.48.71.48.75,0Z"/><path class="cls-21" d="M295.71,221.25h0l-.18.32h0l-.55-.22c0-.21,0,.07,0,.14s0,.36,0,.55c0,.59.05,1.18.08,1.77l.15,3.91c0,.3,0,.61,0,.91,0,.48.77.49.75,0-.09-2.15-.17-4.31-.26-6.47a8.55,8.55,0,0,0-.06-1,.37.37,0,0,0-.55-.22.42.42,0,0,0-.19.32c0,.48.71.48.75,0Z"/><path class="cls-21" d="M298.24,219.6h0l-.19.32h0l-.55-.22c0-.21,0,.07,0,.14l0,.55c0,.59.05,1.18.07,1.77,0,1.3.11,2.6.16,3.91l0,.91c0,.48.77.48.75,0q-.12-3.24-.26-6.47a6.77,6.77,0,0,0,0-1,.39.39,0,0,0-.56-.23.41.41,0,0,0-.18.33c0,.48.71.48.75,0Z"/><path class="cls-21" d="M300.76,218.28h0l-.18.32h0l-.55-.22c0-.21,0,.07,0,.14s0,.37,0,.55c0,.59.05,1.18.08,1.77l.15,3.91c0,.31,0,.61,0,.91,0,.49.77.49.75,0-.09-2.15-.17-4.31-.26-6.47a8.55,8.55,0,0,0-.06-1,.37.37,0,0,0-.55-.22.42.42,0,0,0-.19.32c0,.48.71.48.75,0Z"/><path class="cls-20" d="M301.81,217.05c.12-.23,0,0-.18.07s-.53.31-.8.46l-2.32,1.33q-3.3,1.89-6.62,3.76l-5.68,3.19a5.8,5.8,0,0,0-1.06.6c.25-.24.48.15,0-.18s-.81-.42-1.2-.63L278,222.52c-.43-.23-.81.42-.38.64l5.5,2.9a8.94,8.94,0,0,0,2,1.06c.38.07.6-.12.93-.31,4.14-2.33,8.27-4.65,12.39-7l2.87-1.64c.3-.18,1-.41,1.14-.74s-.42-.81-.65-.38Z"/><path class="cls-5" d="M235.69,214.15a1.86,1.86,0,0,0,.75,1.68l1.46.85c.48.27.18-.34.9-.76a5.84,5.84,0,0,0,2.65-4.56c0-.83.76-.84.29-1.12l-1.55-.86a1.88,1.88,0,0,0-1.85.21A5.82,5.82,0,0,0,235.69,214.15Z"/><path class="cls-4" d="M237.23,215c0,1.68,1.18,2.35,2.64,1.51a5.81,5.81,0,0,0,2.65-4.56c0-1.68-1.18-2.36-2.65-1.51A5.81,5.81,0,0,0,237.23,215Z"/><path class="cls-13" d="M239.89,211.66a3.79,3.79,0,0,0-1.71,3c0,1.09.77,1.52,1.71,1a3.78,3.78,0,0,0,1.72-3C241.61,211.56,240.84,211.12,239.89,211.66Z"/><path class="cls-5" d="M256,201.73a1.88,1.88,0,0,0,.74,1.68l1.46.84c.48.27.18-.33.9-.75a5.85,5.85,0,0,0,2.65-4.57c0-.83.77-.83.3-1.11l-1.56-.86a1.9,1.9,0,0,0-1.85.2A5.83,5.83,0,0,0,256,201.73Z"/><path class="cls-4" d="M257.52,202.6c0,1.67,1.18,2.35,2.64,1.5a5.79,5.79,0,0,0,2.65-4.56c0-1.68-1.18-2.35-2.65-1.51A5.83,5.83,0,0,0,257.52,202.6Z"/><path class="cls-13" d="M260.19,199.24a3.75,3.75,0,0,0-1.72,2.95c0,1.08.77,1.52,1.72,1a3.78,3.78,0,0,0,1.71-2.95C261.9,199.13,261.13,198.69,260.19,199.24Z"/><polygon class="cls-5" points="227.56 215.9 227.56 218.62 216.66 210.92 216.66 209.67 227.56 215.9"/><path class="cls-5" d="M256.39,186.6l-39.73,23.07,10.9,6.23h0v2.72l39.24-22.7a1,1,0,0,0,.5-.86v-1.5a1.26,1.26,0,0,0-.64-1.1Z"/><path class="cls-4" d="M265.81,181.27a1.81,1.81,0,0,0-.91-1.57l-.3-.17-37.07,22.38L217.91,196h0a1.49,1.49,0,0,0-.75,1.3v12l10.47,6h0L265.81,193Z"/><path class="cls-14" d="M217.81,196.77l8.94,5.11a1.78,1.78,0,0,0,1.77,0l36.62-21.27a.43.43,0,0,0,0-.76l-8.8-5a2,2,0,0,0-2,0L217.8,196A.44.44,0,0,0,217.81,196.77Z"/><path class="cls-21" d="M226.89,207.3l-8.32-4.81a3,3,0,0,0-2.87-.1l-4.3,2.08a7.74,7.74,0,0,0-4,4.75l-.58,2a21.52,21.52,0,0,0-.55,4.38v4.63l0,0L216.49,226l0,0v-4.09a15,15,0,0,1,.69-4.46l1.3-4.12a3.7,3.7,0,0,1,1.71-2.11l6.66-3.89Z"/><path class="cls-21" d="M216.53,221.9v4.16l5.47-3.15.42-2.41,4.51-2.68v-10.5l-6.73,3.92a3.79,3.79,0,0,0-1.71,2.12l-1.28,4.12A14.72,14.72,0,0,0,216.53,221.9Z"/><path class="cls-5" d="M215,219h0c0,2.1-2.22,3.12-4.08,2.07l-.13-.08a5.33,5.33,0,0,1-3-4.68v-.66a.67.67,0,0,1,1-.57l5.9,3.35A.66.66,0,0,1,215,219Z"/><path class="cls-4" d="M223.56,215.47l-.59.35a.42.42,0,0,0-.21.37v0a.19.19,0,0,0,.29.17l.54-.31a.43.43,0,0,0,.21-.36v-.11A.16.16,0,0,0,223.56,215.47Z"/><path class="cls-5" d="M219.29,226l.22-.82a7.07,7.07,0,0,1,1-3.56h0a7.15,7.15,0,0,1,2.59-2.59l1.05-.6-1.68-.81-1,.49a7.15,7.15,0,0,0-2.59,2.59h0a7.07,7.07,0,0,0-1,3.56v1Z"/><path class="cls-5" d="M205.55,219.28l10.22,6.07a1.6,1.6,0,0,0,1.61,0l1.91-1.07V226l-1.93,1.09a1.65,1.65,0,0,1-1.61,0l-9.68-5.56a1.05,1.05,0,0,1-.52-.91Z"/><path class="cls-5" d="M205.72,219.62l10.05,5.73a1.6,1.6,0,0,0,1.61,0l1.91-1.07-.52-.3-1.38.79a1.66,1.66,0,0,1-1.63,0l-9.44-5.44v-.7l-.62.38A.36.36,0,0,0,205.72,219.62Z"/><path class="cls-5" d="M227.27,202.37v13.06a.38.38,0,0,0,.75,0V202.37a.38.38,0,0,0-.75,0Z"/><path class="cls-5" d="M217,225.35a28.37,28.37,0,0,1,1.26-9.88,11.24,11.24,0,0,1,1.14-2.88,9.83,9.83,0,0,1,3.16-2.44,49.27,49.27,0,0,1,4.41-2.38c.44-.2.06-.85-.38-.64a45,45,0,0,0-4.73,2.57,9.73,9.73,0,0,0-3.11,2.51,18.07,18.07,0,0,0-1.94,5.89,29.39,29.39,0,0,0-.56,7.25c0,.49.77.49.75,0Z"/><path class="cls-8" d="M223.54,213.74c0-.51,0-1.41,0-2.12a.56.56,0,0,0-.69-.53,9.24,9.24,0,0,0-1.18.6,3.5,3.5,0,0,0-1.25.88,3.25,3.25,0,0,0-.44,1.09l-.72,2.66a.39.39,0,0,0,0,.3.3.3,0,0,0,.31.15.91.91,0,0,0,.34-.14l3.19-1.89a1.05,1.05,0,0,0,.42-.36A1.07,1.07,0,0,0,223.54,213.74Z"/><path class="cls-8" d="M217.87,212.61c-.13-.44-.58-.71-1-.94-2.27-1.26-5-2.7-7.38-4a.66.66,0,0,0-.93.36c-.48,1.34-1.32,3.42-1,4.19.11.32.67.71,1,.93,2,1.21,3.82,2.17,5.62,3.22a7.94,7.94,0,0,0,.89.52,1.33,1.33,0,0,0,1,0,1.79,1.79,0,0,0,.8-.93,12.56,12.56,0,0,0,.93-2.43A1.77,1.77,0,0,0,217.87,212.61Z"/><path class="cls-21" d="M207.57,215.82l6.41,3.66.91.51c.42.24.8-.41.38-.64l-6.42-3.66-.91-.51a.37.37,0,0,0-.37.64Z"/><path class="cls-21" d="M207.57,217l6.41,3.66.91.51a.38.38,0,0,0,.38-.65l-6.42-3.65-.91-.52a.37.37,0,0,0-.37.65Z"/><path class="cls-21" d="M207.52,218.36l6.41,3.65.91.52a.38.38,0,0,0,.38-.65l-6.42-3.65-.91-.52a.37.37,0,0,0-.37.65Z"/><path class="cls-3" d="M215.24,222.23a.34.34,0,0,0-.38,0,.51.51,0,0,0-.23.23.63.63,0,0,0-.07.38.47.47,0,0,0,.44.37.48.48,0,0,0,.47-.34A.64.64,0,0,0,215.24,222.23Z"/><path class="cls-3" d="M207.36,218.12a.34.34,0,0,0-.38-.05.53.53,0,0,0-.23.24.59.59,0,0,0-.07.37.47.47,0,0,0,.43.38.53.53,0,0,0,.48-.34A.63.63,0,0,0,207.36,218.12Z"/><path class="cls-5" d="M227.69,218.07a2.35,2.35,0,0,1-.31-1.07,3.43,3.43,0,0,1-2,.82,6.87,6.87,0,0,1-1.17-.28,3.23,3.23,0,0,0-2.67.59l.25,1.39a2.62,2.62,0,0,1,3.47,1.13l2-1.17a1.1,1.1,0,0,0,.43-.34A1.13,1.13,0,0,0,227.69,218.07Z"/><path class="cls-5" d="M219,223.75a1.85,1.85,0,0,0,.74,1.68l1.47.85c.48.27.17-.34.9-.76A5.81,5.81,0,0,0,224.7,221c0-.83.77-.84.3-1.11l-1.55-.86a1.87,1.87,0,0,0-1.85.2A5.84,5.84,0,0,0,219,223.75Z"/><path class="cls-4" d="M220.48,224.62c0,1.68,1.19,2.36,2.65,1.51a5.82,5.82,0,0,0,2.65-4.56c0-1.68-1.19-2.35-2.65-1.51A5.84,5.84,0,0,0,220.48,224.62Z"/><path class="cls-13" d="M223.15,221.27a3.76,3.76,0,0,0-1.71,2.95c0,1.08.77,1.52,1.71,1a3.78,3.78,0,0,0,1.71-2.95C224.86,221.16,224.09,220.72,223.15,221.27Z"/><path class="cls-4" d="M228.2,218.56l13.06-7.49,20.83-11.95,4.8-2.75a.38.38,0,0,0-.38-.65l-13.06,7.49-20.83,11.95-4.8,2.75a.38.38,0,0,0,.38.65Z"/><path class="cls-14" d="M259.73,196.71,255,199.6a1,1,0,0,0-.49.87v5.23a1,1,0,0,0,.51.88l4.77,2.75a1,1,0,0,0,1,0l4.9-2.79a1,1,0,0,0,.51-.88v-5.25a1,1,0,0,0-.5-.88l-4.89-2.84A1,1,0,0,0,259.73,196.71Z"/><polygon class="cls-8" points="262.33 204.13 262.27 202.16 256.49 198.67 258.05 197.74 263.89 201.21 263.89 203.24 262.33 204.13"/><path class="cls-5" d="M254.49,200.32l5,2.83a2.34,2.34,0,0,0,.6.33c.25.05.5-.15.71-.27l2.92-1.62,2.36-1.32a.37.37,0,0,0-.37-.65L260,202.8h.38l-5.54-3.13a.37.37,0,0,0-.37.65Z"/><path class="cls-5" d="M260.59,209.47v-6.35a.38.38,0,0,0-.75,0v6.35a.38.38,0,0,0,.75,0Z"/><path class="cls-8" d="M264.41,206.58l1.1-.63a.24.24,0,0,0,.12-.21v-.47a.15.15,0,0,0-.22-.13l-1.07.63a.32.32,0,0,0-.15.27v.41A.14.14,0,0,0,264.41,206.58Z"/><path class="cls-8" d="M255,201.36v1.07a.35.35,0,0,0,.17.28l1.3.79a.15.15,0,0,0,.22-.12l0-1.07a.36.36,0,0,0-.17-.3l-1.32-.77A.14.14,0,0,0,255,201.36Z"/><path class="cls-3" d="M252.72,201.06,247.94,204a1,1,0,0,0-.49.87v5.23a1,1,0,0,0,.51.88l4.77,2.75a1,1,0,0,0,1,0l4.89-2.79a1,1,0,0,0,.52-.88v-5.24a1,1,0,0,0-.51-.88l-4.89-2.84A1,1,0,0,0,252.72,201.06Z"/><polygon class="cls-8" points="255.32 208.48 255.25 206.5 249.48 203.02 251.04 202.09 256.88 205.56 256.88 207.59 255.32 208.48"/><path class="cls-5" d="M247.47,204.67l5,2.83a2.4,2.4,0,0,0,.61.33c.24,0,.5-.16.7-.27l2.92-1.63,2.37-1.32c.42-.23,0-.88-.38-.64l-5.7,3.17h.38L247.85,204a.38.38,0,0,0-.38.65Z"/><path class="cls-5" d="M253.57,213.81v-6.34a.38.38,0,0,0-.75,0v6.34a.38.38,0,0,0,.75,0Z"/><path class="cls-8" d="M257.4,210.93l1.09-.63a.23.23,0,0,0,.13-.21v-.47a.15.15,0,0,0-.23-.13l-1.06.62a.31.31,0,0,0-.15.27v.42A.15.15,0,0,0,257.4,210.93Z"/><path class="cls-8" d="M248,205.71c0,.3,0,.8,0,1.07a.33.33,0,0,0,.16.28l1.3.79a.14.14,0,0,0,.22-.12l0-1.08a.34.34,0,0,0-.16-.29l-1.33-.78A.16.16,0,0,0,248,205.71Z"/><path class="cls-21" d="M255.69,192.25l-4.77,2.88a1,1,0,0,0-.5.87v5.23a1,1,0,0,0,.51.88l4.78,2.75a1,1,0,0,0,1,0l4.89-2.79a1,1,0,0,0,.51-.88V196a1,1,0,0,0-.5-.88l-4.89-2.83A1,1,0,0,0,255.69,192.25Z"/><polygon class="cls-8" points="258.3 199.66 258.23 197.69 252.45 194.21 254.01 193.27 259.85 196.74 259.85 198.78 258.3 199.66"/><path class="cls-5" d="M250.45,195.85l5,2.84a2.66,2.66,0,0,0,.6.32c.25.05.5-.15.71-.26l2.92-1.63,2.36-1.32a.37.37,0,0,0-.37-.65L256,198.33h.38l-5.53-3.12c-.43-.24-.8.41-.38.64Z"/><path class="cls-5" d="M256.55,205v-6.35a.38.38,0,0,0-.75,0V205a.38.38,0,0,0,.75,0Z"/><path class="cls-8" d="M260.37,202.11l1.1-.63a.24.24,0,0,0,.12-.2v-.48a.15.15,0,0,0-.22-.13l-1.07.63a.33.33,0,0,0-.15.27V202A.14.14,0,0,0,260.37,202.11Z"/><path class="cls-8" d="M250.94,196.89c0,.3,0,.8,0,1.07a.34.34,0,0,0,.16.29l1.3.78a.14.14,0,0,0,.22-.12l0-1.07a.32.32,0,0,0-.17-.29l-1.32-.78A.14.14,0,0,0,250.94,196.89Z"/><path class="cls-16" d="M104.05,230.2l-5.59,3.38a1.18,1.18,0,0,0-.58,1v6.12a1.19,1.19,0,0,0,.6,1l5.58,3.22a1.18,1.18,0,0,0,1.18,0L111,241.7a1.19,1.19,0,0,0,.6-1v-6.14a1.17,1.17,0,0,0-.59-1l-5.71-3.32A1.17,1.17,0,0,0,104.05,230.2Z"/><polygon class="cls-6" points="107.09 238.87 107.01 236.56 100.26 232.49 102.08 231.4 108.91 235.46 108.91 237.84 107.09 238.87"/><path class="cls-5" d="M97.94,234.36l5.87,3.31a2.51,2.51,0,0,0,.7.38c.26,0,.55-.18.77-.31l3.42-1.9,2.76-1.54c.43-.23.05-.88-.37-.65l-6.67,3.72h.38l-6.48-3.65c-.42-.24-.8.41-.38.64Z"/><path class="cls-5" d="M105,245.11v-7.42a.38.38,0,0,0-.75,0v7.42a.38.38,0,0,0,.75,0Z"/><path class="cls-6" d="M109.52,241.74l1.28-.74a.27.27,0,0,0,.14-.24v-.56a.18.18,0,0,0-.26-.15l-1.24.74a.35.35,0,0,0-.18.31v.49A.18.18,0,0,0,109.52,241.74Z"/><path class="cls-6" d="M98.49,235.63c0,.36,0,.94,0,1.26a.41.41,0,0,0,.19.33l1.52.92a.17.17,0,0,0,.26-.14l0-1.26a.39.39,0,0,0-.19-.34l-1.55-.91A.16.16,0,0,0,98.49,235.63Z"/><path class="cls-3" d="M86.43,224.4l-10,6a2.12,2.12,0,0,0-1,1.81v10.93A2.12,2.12,0,0,0,76.48,245l10,5.74a2.12,2.12,0,0,0,2.11,0L98.78,245a2.12,2.12,0,0,0,1.08-1.85v-11a2.13,2.13,0,0,0-1.06-1.83l-10.21-5.93A2.12,2.12,0,0,0,86.43,224.4Z"/><polygon class="cls-6" points="91.86 239.9 91.72 235.77 79.66 228.49 82.92 226.55 95.11 233.79 95.12 238.04 91.86 239.9"/><path class="cls-5" d="M75.67,231.59l10.49,5.91a4.21,4.21,0,0,0,1.17.65c.38,0,.84-.35,1.15-.52l6.1-3.4,5-2.76c.42-.23,0-.88-.38-.64L89,236.51c-.36.2-1.42.55-1.64.91-.06.09.32.19.19,0s-.52-.3-.67-.38l-5.91-3.34-4.87-2.74a.38.38,0,0,0-.38.65Z"/><path class="cls-5" d="M87.8,251.05V237.78a.38.38,0,0,0-.75,0v13.27a.38.38,0,0,0,.75,0Z"/><path class="cls-6" d="M96.2,245l2.29-1.31a.48.48,0,0,0,.25-.43v-1a.31.31,0,0,0-.46-.26l-2.22,1.31a.64.64,0,0,0-.32.56v.87A.31.31,0,0,0,96.2,245Z"/><path class="cls-6" d="M76.49,234.11c0,.63,0,1.67,0,2.24a.71.71,0,0,0,.33.59l2.72,1.64a.3.3,0,0,0,.46-.25l0-2.24a.71.71,0,0,0-.35-.62L77,233.85A.31.31,0,0,0,76.49,234.11Z"/><g class="cls-22"><path class="cls-5" d="M137.16,272.64a1.89,1.89,0,0,0,.76,1.72l1.5.87c.49.28.18-.34.92-.77a6,6,0,0,0,2.71-4.68c0-.84.78-.85.3-1.13l-1.59-.89a2,2,0,0,0-1.89.21A6,6,0,0,0,137.16,272.64Z"/><path class="cls-4" d="M138.73,273.53c0,1.72,1.21,2.41,2.71,1.55a6,6,0,0,0,2.71-4.67c0-1.72-1.22-2.41-2.71-1.55A6,6,0,0,0,138.73,273.53Z"/><path class="cls-13" d="M141.46,270.1a3.84,3.84,0,0,0-1.75,3c0,1.1.78,1.55,1.75,1a3.86,3.86,0,0,0,1.75-3C143.21,270,142.42,269.54,141.46,270.1Z"/><path class="cls-5" d="M157.93,259.93a1.92,1.92,0,0,0,.76,1.72s1.48.86,1.5.86c.49.28.17-.34.92-.77a6,6,0,0,0,2.71-4.67c0-.85.78-.86.3-1.14l-1.59-.88a1.92,1.92,0,0,0-1.89.2A6,6,0,0,0,157.93,259.93Z"/><path class="cls-4" d="M159.5,260.82c0,1.71,1.21,2.4,2.7,1.54a5.94,5.94,0,0,0,2.71-4.67c0-1.72-1.21-2.41-2.71-1.55A6,6,0,0,0,159.5,260.82Z"/><path class="cls-13" d="M162.23,257.38a3.85,3.85,0,0,0-1.75,3c0,1.11.78,1.55,1.75,1a3.89,3.89,0,0,0,1.75-3C164,257.27,163.19,256.82,162.23,257.38Z"/><polygon class="cls-5" points="129.07 274.45 129.07 277.27 117.78 269.3 117.78 268 129.07 274.45"/><path class="cls-5" d="M158.25,244.39l-40.81,23.69,11.2,6.4h0v2.8L168.94,254a1,1,0,0,0,.51-.88v-1.55a1.3,1.3,0,0,0-.65-1.12Z"/><path class="cls-4" d="M168.15,238.41a.91.91,0,0,0-.46-.79l-.78-.45-38,23L119,254l-.39.23a.76.76,0,0,0-.37.65v12.82l10.42,5.93v.09h.43L168.15,251Z"/><path class="cls-14" d="M118.85,254.85l9.15,5.23a1.8,1.8,0,0,0,1.81,0l37.49-21.76a.46.46,0,0,0,0-.79l-9-5.14a2.07,2.07,0,0,0-2.06,0l-37.38,21.7A.44.44,0,0,0,118.85,254.85Z"/><path class="cls-21" d="M128.2,265.61l-8.62-5a3.13,3.13,0,0,0-2.93-.11l-4.47,2.16a8,8,0,0,0-4.09,4.91l-.6,2.09a22.27,22.27,0,0,0-.56,4.52v4.59l10.8,6.12,0,0v-4.38a15.09,15.09,0,0,1,.71-4.57l1.29-4.11a3.77,3.77,0,0,1,1.72-2.12l6.7-3.91Z"/><path class="cls-21" d="M117.35,280.63V285l5.71-3.28.44-2.52,4.7-2.8v-11l-7,4.1a3.84,3.84,0,0,0-1.78,2.21L118,276.11A15.06,15.06,0,0,0,117.35,280.63Z"/><path class="cls-5" d="M116.06,277.6h0c0,2.16-2.28,3.19-4.17,2.12l-.14-.07a5.47,5.47,0,0,1-3.09-4.79v-.69a.69.69,0,0,1,1-.58l6,3.43A.67.67,0,0,1,116.06,277.6Z"/><path class="cls-4" d="M124.74,274l-.6.36a.68.68,0,0,0-.28.38v0a.27.27,0,0,0,.36.17l.55-.32c.13-.07.21-.21,0-.36v-.12C125,274,124.85,273.93,124.74,274Z"/><path class="cls-5" d="M120.53,284.79l.22-.84a7.25,7.25,0,0,1,1-3.64h0a7.35,7.35,0,0,1,2.66-2.65l1.07-.62-1.72-.83-1,.51a7.35,7.35,0,0,0-2.66,2.65h0a7.25,7.25,0,0,0-1,3.64v1.05Z"/><path class="cls-5" d="M106.49,278l10.34,6.13a1.62,1.62,0,0,0,1.62,0l1.94-1.08v1.76l-2,1.1a1.68,1.68,0,0,1-1.64,0L107,280.24a1.07,1.07,0,0,1-.54-.93Z"/><path class="cls-5" d="M106.3,277.61a.37.37,0,0,0,0,.63l10.29,5.87a1.67,1.67,0,0,0,1.65,0l2-1.1-.53-.3-1.42.8a1.69,1.69,0,0,1-1.66,0l-9.66-5.58v-.71Z"/><path class="cls-5" d="M128.7,260.46v13.46a.38.38,0,0,0,.75,0V260.46a.38.38,0,0,0-.75,0Z"/><path class="cls-5" d="M118.06,284.11a28.72,28.72,0,0,1,.51-7.05,29.36,29.36,0,0,1,.78-3.07,11.65,11.65,0,0,1,1.17-2.95,10,10,0,0,1,3.24-2.5,49,49,0,0,1,4.51-2.43c.44-.21.06-.86-.38-.65a47.23,47.23,0,0,0-4.84,2.64,9.67,9.67,0,0,0-3.18,2.56,18.72,18.72,0,0,0-2,6,30.4,30.4,0,0,0-.57,7.43c0,.48.77.48.75,0Z"/><path class="cls-8" d="M124.72,272.23c0-.53,0-1.46,0-2.17a.57.57,0,0,0-.71-.55,9.73,9.73,0,0,0-1.21.61,3.62,3.62,0,0,0-1.27.9,3.22,3.22,0,0,0-.45,1.12c-.25.91-.5,1.81-.74,2.72a.44.44,0,0,0,0,.32.3.3,0,0,0,.32.14.85.85,0,0,0,.34-.14l3.27-1.93a1.12,1.12,0,0,0,.43-.37A1.1,1.1,0,0,0,124.72,272.23Z"/><path class="cls-8" d="M118.92,271.07a1.87,1.87,0,0,0-1-1c-2.33-1.3-5.15-2.76-7.56-4.09a.67.67,0,0,0-.95.37c-.49,1.37-1.35,3.5-1.07,4.29a2.79,2.79,0,0,0,1.07.95c2,1.24,3.91,2.22,5.75,3.29a5.53,5.53,0,0,0,.91.53,1.36,1.36,0,0,0,1,0,1.91,1.91,0,0,0,.82-1,13.17,13.17,0,0,0,1-2.49A1.86,1.86,0,0,0,118.92,271.07Z"/><path class="cls-21" d="M108.38,274.35l6.56,3.74.93.52a.37.37,0,0,0,.38-.64l-6.57-3.74-.93-.53a.37.37,0,0,0-.37.65Z"/><path class="cls-21" d="M108.38,275.58l6.56,3.74.93.53a.38.38,0,0,0,.38-.65l-6.57-3.74-.93-.52a.37.37,0,0,0-.37.64Z"/><path class="cls-21" d="M108.32,276.94l6.57,3.74.93.53a.38.38,0,0,0,.38-.65l-6.57-3.74-.93-.52a.37.37,0,0,0-.38.64Z"/><path class="cls-3" d="M116.23,280.91a.35.35,0,0,0-.39,0,.53.53,0,0,0-.23.24.57.57,0,0,0-.08.38.48.48,0,0,0,.45.39.52.52,0,0,0,.48-.35A.67.67,0,0,0,116.23,280.91Z"/><path class="cls-3" d="M108.16,276.7a.35.35,0,0,0-.39,0,.49.49,0,0,0-.23.24.63.63,0,0,0-.08.38.48.48,0,0,0,.45.38.49.49,0,0,0,.48-.35A.61.61,0,0,0,108.16,276.7Z"/><path class="cls-5" d="M129,276.65a2.52,2.52,0,0,1-.31-1.09,3.5,3.5,0,0,1-2.07.84,8.52,8.52,0,0,1-1.21-.29,3.33,3.33,0,0,0-2.73.61l.26,1.42a2.7,2.7,0,0,1,2-.15,2.75,2.75,0,0,1,1.54,1.3l2.09-1.19a1.24,1.24,0,0,0,.44-.35A1.16,1.16,0,0,0,129,276.65Z"/><path class="cls-5" d="M120,282.47a1.9,1.9,0,0,0,.76,1.72l1.5.87c.49.27.18-.35.92-.78a5.94,5.94,0,0,0,2.71-4.67c0-.85.79-.85.31-1.14l-1.6-.88a2,2,0,0,0-1.89.21A6,6,0,0,0,120,282.47Z"/><path class="cls-4" d="M121.59,283.36c0,1.72,1.22,2.41,2.71,1.55a6,6,0,0,0,2.71-4.68c0-1.71-1.21-2.4-2.71-1.54A6,6,0,0,0,121.59,283.36Z"/><path class="cls-13" d="M124.32,279.92a3.89,3.89,0,0,0-1.75,3c0,1.11.79,1.56,1.75,1a3.85,3.85,0,0,0,1.75-3C126.07,279.82,125.29,279.37,124.32,279.92Z"/><path class="cls-4" d="M129.48,277.15l13.4-7.69,21.26-12.19,4.94-2.84a.38.38,0,0,0-.38-.65l-13.4,7.69L134,273.67l-4.94,2.83a.38.38,0,0,0,.38.65Z"/></g><path class="cls-4" d="M386.84,104.77a1.46,1.46,0,0,0-1.46,0L341.1,131c-7,3.75-8.05,9.47-4.15,12.24,0,0,0,0,0,0a22.49,22.49,0,0,0,6.95,3.17,25.46,25.46,0,0,0,11.51-.57,32.9,32.9,0,0,0,8-3.41l35.75-21.2a1.36,1.36,0,0,0,.67-1l1.34-6.32a1.46,1.46,0,0,0-.72-1.58Z"/><path class="cls-13" d="M386.19,108.78l-38.69,22c-6.22,3.14-11.37,6-10.9,9.5l.58,1a1.37,1.37,0,0,0,.52.49l.34.37c3.39,1.91,11.84-.39,16.48-2.7l26.34-14.81,15.92-10Z"/><path class="cls-13" d="M379.22,112.59,379.08,101l16.62,1.83.15,11.64c0,.13-.26.44-.41.53L390,118.22a1.33,1.33,0,0,1-1.18,0L379.51,113A.46.46,0,0,1,379.22,112.59Z"/><path class="cls-13" d="M389.84,105.56l5.66-3.4c.3-.18.25-.48-.1-.67l-9.31-5.21a1.3,1.3,0,0,0-1.17,0l-5.66,3.39c-.3.18-.26.48.09.68l9.31,5.2A1.33,1.33,0,0,0,389.84,105.56Z"/><path class="cls-13" d="M379.06,99.85a.54.54,0,0,0,.29.34l9.31,5.2a1.28,1.28,0,0,0,1.17,0l5.67-3.4a.36.36,0,0,0,.19-.24l0,1.36a.34.34,0,0,1-.19.35l-5.67,3.39a1.3,1.3,0,0,1-1.17,0l-9.31-5.21a.46.46,0,0,1-.29-.4l0-1.4Z"/><path class="cls-5" d="M379,109.61q-8.67,5-17.31,10.1c-7.42,4.36-15.06,8.55-22.17,13.4a8.55,8.55,0,0,0-3.55,4.3,4.41,4.41,0,0,0,3.84,5.59c4.65.65,9.58-.91,13.79-2.82,9.22-4.18,18-9.49,26.69-14.61,6.6-3.89,13.32-7.69,19.73-11.89l.32-.2a.38.38,0,0,0-.38-.65c-5.16,3.2-10.35,6.33-15.57,9.44-8.82,5.25-17.69,10.5-26.85,15.17a46.23,46.23,0,0,1-11.17,4.37c-2.45.53-6.75,1.43-8.79-.61-2.35-2.37-.25-5.62,1.95-7.19,2.5-1.78,5.2-3.32,7.82-4.91,4.14-2.5,8.31-5,12.47-7.42,6.39-3.76,12.93-7.32,19.22-11.23l.34-.19a.38.38,0,0,0-.38-.65Z"/><path class="cls-5" d="M378.87,100.18l6.74,3.72c.8.44,1.59.93,2.42,1.32,1.56.74,2.8-.11,4.09-.88l3.76-2.24a.38.38,0,0,0-.38-.65l-3,1.77c-1.25.74-2.73,2-4.25,1.3-2.16-1.06-4.24-2.34-6.35-3.5l-2.69-1.49c-.42-.23-.8.41-.38.65Z"/><path class="cls-5" d="M389.17,105.14q.09,6.94.17,13.89a.38.38,0,0,0,.75,0q-.07-6.94-.17-13.89a.38.38,0,0,0-.75,0Z"/><path class="cls-14" d="M378.72,108.19l-2.88,1.74a.79.79,0,0,0-.39.68l.06,4.45a.8.8,0,0,0,.4.67l9,5.13a.77.77,0,0,0,.79,0l2.88-1.72a.79.79,0,0,0,.38-.69l-.05-4.51a.79.79,0,0,0-.4-.67l-9.05-5.08A.82.82,0,0,0,378.72,108.19Z"/><path class="cls-5" d="M375.61,110.68c-.23,0-.31-.09-.19,0a1.67,1.67,0,0,0,.23.12l.72.42,2.32,1.36,5.12,3,1.2.72-.19-.33L385,121c0,.49.77.49.75,0l-.13-3.59a8.63,8.63,0,0,0-.05-1.34c-.05-.3-.28-.38-.52-.53-2.38-1.41-4.76-2.83-7.15-4.23-.55-.32-1.1-.65-1.65-1-.24-.14-.55-.4-.84-.35-.48.08-.28.81.2.72Z"/><path class="cls-5" d="M385.09,115.67l.09,0,.36.63c-.12.12,0,0,0,0l.27-.17.87-.55,1.94-1.22.45-.28c.4-.26,0-.9-.38-.65-1.07.67-2.14,1.34-3.2,2a2.9,2.9,0,0,0-.52.34.37.37,0,0,0-.05.45.38.38,0,0,0,.42.17l.09,0a.37.37,0,1,0-.38-.64Z"/><path class="cls-21" d="M374.2,111l-2.89,1.73a.79.79,0,0,0-.38.69l.05,4.45a.82.82,0,0,0,.4.67l9.06,5.13a.77.77,0,0,0,.79,0L384.1,122a.79.79,0,0,0,.39-.68l-.06-4.51a.82.82,0,0,0-.4-.68L375,111A.78.78,0,0,0,374.2,111Z"/><path class="cls-5" d="M371.08,113.51c-.23,0-.31-.1-.19,0a1,1,0,0,0,.23.13l.73.42,2.31,1.36,5.12,3,1.2.71-.18-.32.18,4.93a.38.38,0,0,0,.75,0l-.14-3.59a8.54,8.54,0,0,0,0-1.34c-.06-.3-.29-.39-.53-.53q-3.57-2.13-7.15-4.23l-1.65-1c-.23-.13-.55-.39-.84-.34-.48.08-.27.8.2.72Z"/><path class="cls-5" d="M380.56,118.49l.09,0,.37.62c-.13.13,0,0,0,0l.27-.17.87-.55,1.94-1.22.45-.28c.4-.26,0-.91-.38-.65l-3.2,2a3,3,0,0,0-.51.34.38.38,0,0,0-.06.46.4.4,0,0,0,.42.17l.09,0a.39.39,0,0,0,.14-.51.4.4,0,0,0-.52-.14Z"/><path class="cls-4" d="M369.46,113.66l-2.89,1.73a.78.78,0,0,0-.38.68l.06,4.45a.76.76,0,0,0,.4.67l9.05,5.14a.82.82,0,0,0,.79,0l2.88-1.73a.76.76,0,0,0,.38-.68l-.06-4.52a.75.75,0,0,0-.4-.67l-9-5.07A.77.77,0,0,0,369.46,113.66Z"/><path class="cls-5" d="M366.34,116.14c-.22,0-.3-.09-.18,0a1.71,1.71,0,0,0,.23.13q.36.19.72.42l2.31,1.35,5.13,3,1.2.72-.19-.33.18,4.94c0,.48.77.48.75,0l-.13-3.59a8.54,8.54,0,0,0-.05-1.34c-.05-.31-.28-.39-.53-.54-2.38-1.41-4.76-2.83-7.14-4.23-.55-.32-1.1-.65-1.65-1-.24-.14-.55-.4-.84-.35-.48.09-.28.81.19.72Z"/><path class="cls-5" d="M375.83,121.13l.09,0,.36.63c-.12.12,0,0,0,0l.28-.18.87-.55,1.94-1.22.44-.28c.41-.25,0-.9-.37-.65-1.07.67-2.14,1.34-3.2,2a2.59,2.59,0,0,0-.52.34.4.4,0,0,0-.06.45.38.38,0,0,0,.43.17l.09,0a.38.38,0,0,0-.38-.65Z"/><path class="cls-3" d="M365.24,116.23,362.35,118a.76.76,0,0,0-.38.68l0,4.45a.79.79,0,0,0,.4.67l9.06,5.14a.8.8,0,0,0,.79,0l2.88-1.73a.8.8,0,0,0,.38-.68l-.06-4.52a.8.8,0,0,0-.4-.67L366,116.22A.75.75,0,0,0,365.24,116.23Z"/><path class="cls-5" d="M362.12,118.72c-.23,0-.31-.1-.19,0a1.71,1.71,0,0,0,.23.13l.73.42,2.31,1.36q2.57,1.52,5.12,3l1.2.71-.18-.32.18,4.93a.38.38,0,0,0,.75,0l-.13-3.59a10,10,0,0,0-.05-1.34c-.06-.31-.29-.39-.53-.53l-7.15-4.24-1.65-1c-.23-.14-.55-.4-.84-.35-.48.09-.27.81.2.73Z"/><path class="cls-5" d="M371.6,123.7l.09,0,.37.63c-.13.13,0,0,0,0l.27-.17.87-.56,1.94-1.21.45-.29c.41-.25,0-.9-.38-.64l-3.2,2a2.52,2.52,0,0,0-.51.34.37.37,0,0,0-.06.45.39.39,0,0,0,.42.18l.09,0a.38.38,0,1,0-.38-.65Z"/><path class="cls-14" d="M373.84,105.66,371,107.4a.76.76,0,0,0-.38.68l.05,4.45a.8.8,0,0,0,.4.67l9.06,5.13a.77.77,0,0,0,.79,0l2.87-1.72a.82.82,0,0,0,.39-.69l-.06-4.51a.82.82,0,0,0-.4-.68l-9.05-5.07A.78.78,0,0,0,373.84,105.66Z"/><path class="cls-5" d="M370.72,108.15c-.23,0-.31-.09-.19,0a1,1,0,0,0,.23.13l.73.42,2.31,1.36q2.56,1.52,5.12,3l1.2.71-.18-.32.18,4.93a.38.38,0,0,0,.75,0l-.13-3.59a10,10,0,0,0-.05-1.34c-.06-.3-.29-.38-.53-.53-2.38-1.41-4.76-2.83-7.15-4.23l-1.65-1c-.23-.13-.55-.39-.84-.34-.48.08-.27.81.2.72Z"/><path class="cls-5" d="M380.2,113.13l.09,0,.37.62c-.13.13,0,0,0,0l.27-.17.87-.55,1.94-1.22.45-.28c.4-.26,0-.91-.38-.65l-3.2,2a3,3,0,0,0-.51.34.38.38,0,0,0-.06.46.4.4,0,0,0,.42.17l.09,0a.39.39,0,0,0,.14-.51.4.4,0,0,0-.52-.14Z"/><path class="cls-14" d="M357.55,120.29,354.66,122a.76.76,0,0,0-.38.68l.05,4.45a.79.79,0,0,0,.4.67l9.06,5.14a.8.8,0,0,0,.79,0l2.88-1.73a.8.8,0,0,0,.38-.68l-.06-4.52a.78.78,0,0,0-.4-.67l-9.05-5.07A.75.75,0,0,0,357.55,120.29Z"/><path class="cls-5" d="M354.43,122.78c-.23,0-.31-.1-.19,0a1.71,1.71,0,0,0,.23.13l.73.42,2.31,1.36q2.57,1.51,5.12,3l1.2.71-.18-.32.18,4.93a.38.38,0,0,0,.75,0l-.13-3.59a10,10,0,0,0-.05-1.34c-.06-.31-.29-.39-.53-.53l-7.15-4.24-1.65-1c-.23-.14-.55-.4-.84-.35-.47.09-.27.81.2.73Z"/><path class="cls-5" d="M363.91,127.76l.09,0,.37.63c-.13.13,0,0,0,0l.27-.17.87-.56,1.94-1.21.45-.29c.41-.25,0-.9-.38-.64l-3.2,2a2.52,2.52,0,0,0-.51.34.37.37,0,0,0-.06.45.39.39,0,0,0,.42.18l.09,0a.39.39,0,0,0,.14-.52.39.39,0,0,0-.52-.13Z"/><path class="cls-21" d="M352.73,123.25,349.84,125a.79.79,0,0,0-.38.69l.05,4.44a.82.82,0,0,0,.4.68l9.06,5.13a.77.77,0,0,0,.79,0l2.87-1.73a.76.76,0,0,0,.38-.68L363,129a.82.82,0,0,0-.4-.68l-9.05-5.07A.78.78,0,0,0,352.73,123.25Z"/><path class="cls-5" d="M349.61,125.74c-.23,0-.31-.1-.19,0a1.71,1.71,0,0,0,.23.13l.73.42,2.31,1.36,5.12,3,1.2.71-.18-.32L359,136a.38.38,0,0,0,.75,0l-.14-3.59a8.54,8.54,0,0,0,0-1.34c-.06-.3-.29-.39-.53-.53l-7.15-4.24-1.65-1c-.23-.14-.55-.4-.84-.34-.48.08-.28.8.2.72Z"/><path class="cls-5" d="M359.09,130.72l.09,0,.37.63c-.13.13,0,0,0,0l.27-.17.87-.55,1.94-1.22.45-.28c.4-.26,0-.91-.38-.65l-3.2,2a2.52,2.52,0,0,0-.51.34.38.38,0,0,0-.06.46.4.4,0,0,0,.42.17l.09,0a.38.38,0,1,0-.38-.65Z"/><path class="cls-3" d="M345.19,127.68l-2.81,1.69a.77.77,0,0,0-.37.66l.06,4.32a.78.78,0,0,0,.38.66l8.8,5a.76.76,0,0,0,.77,0l2.8-1.68a.79.79,0,0,0,.37-.67l-.06-4.38a.75.75,0,0,0-.39-.66L346,127.67A.76.76,0,0,0,345.19,127.68Z"/><path class="cls-5" d="M342.16,130.11c-.21,0-.31-.09-.19,0a1.71,1.71,0,0,0,.23.13l.7.41,2.25,1.32,5,3,1.16.69-.18-.32.17,4.79c0,.48.77.49.75,0l-.12-3.49a11.3,11.3,0,0,0-.05-1.3c-.06-.3-.28-.38-.52-.52-2.31-1.38-4.63-2.76-6.95-4.12-.53-.31-1.06-.63-1.6-.93-.23-.14-.54-.39-.83-.34-.47.08-.27.81.2.72Z"/><path class="cls-5" d="M351.37,134.93l.09,0,.37.62c-.13.13,0,0,0,0l.27-.16.85-.54,1.88-1.18.43-.28c.41-.25,0-.9-.37-.64l-3.11,1.95a2.89,2.89,0,0,0-.5.33.38.38,0,0,0-.06.46.4.4,0,0,0,.42.17l.09,0a.39.39,0,0,0,.14-.51.4.4,0,0,0-.52-.14Z"/><path class="cls-21" d="M368.21,109.09l-2.89,1.73a.79.79,0,0,0-.38.69L365,116a.82.82,0,0,0,.4.67l9.06,5.13a.77.77,0,0,0,.79,0l2.88-1.73a.78.78,0,0,0,.38-.68l-.06-4.51a.8.8,0,0,0-.4-.68L369,109.08A.78.78,0,0,0,368.21,109.09Z"/><path class="cls-5" d="M365.09,111.58c-.23,0-.31-.1-.19,0a1,1,0,0,0,.23.13l.73.42,2.31,1.36q2.56,1.52,5.12,3l1.2.71-.18-.32.18,4.93a.38.38,0,0,0,.75,0l-.13-3.59a10,10,0,0,0-.05-1.34c-.06-.3-.29-.39-.53-.53l-7.15-4.24-1.64-1c-.24-.14-.56-.4-.85-.34-.47.08-.27.8.2.72Z"/><path class="cls-5" d="M374.57,116.56l.09,0,.37.62c-.13.13,0,0,0,0l.27-.17.87-.55,1.94-1.22.45-.28c.41-.26,0-.91-.38-.65l-3.2,2a3,3,0,0,0-.51.34.38.38,0,0,0-.06.46.41.41,0,0,0,.42.17l.09,0a.38.38,0,0,0,.14-.51.4.4,0,0,0-.52-.14Z"/><polygon class="cls-6" points="379.68 104.81 388.35 109.53 388.33 107.55 379.65 102.81 379.68 104.81"/><polygon class="cls-6" points="390.35 107.5 390.37 109.09 395.75 105.77 395.72 104.29 390.35 107.5"/><path class="cls-3" d="M354.84,116.49,352,118.22a.8.8,0,0,0-.38.68l.06,4.45a.78.78,0,0,0,.4.67l9.05,5.13a.77.77,0,0,0,.79,0l2.88-1.72a.78.78,0,0,0,.38-.68l-.06-4.52a.75.75,0,0,0-.4-.67l-9-5.08A.8.8,0,0,0,354.84,116.49Z"/><path class="cls-5" d="M351.73,119c-.23,0-.31-.09-.19,0a1.71,1.71,0,0,0,.23.13l.72.41,2.31,1.36,5.13,3,1.2.72-.19-.33.18,4.93c0,.49.77.49.75,0l-.13-3.59a8.45,8.45,0,0,0-.05-1.33c-.05-.31-.28-.39-.53-.54-2.38-1.41-4.76-2.83-7.14-4.23-.55-.32-1.1-.65-1.65-1-.24-.14-.55-.4-.84-.35-.48.08-.28.81.2.72Z"/><path class="cls-5" d="M361.21,124l.09,0,.36.63c-.12.12,0,0,0,0l.27-.17.87-.55,1.94-1.22.44-.28c.41-.25,0-.9-.37-.65-1.07.67-2.14,1.34-3.2,2a2.9,2.9,0,0,0-.52.34.4.4,0,0,0-.06.45.39.39,0,0,0,.43.17l.09,0a.37.37,0,0,0,.13-.51.37.37,0,0,0-.51-.13Z"/><path class="cls-5" d="M338.89,144.83c11.66,1.12,22-5.47,31.49-11.27,7.95-4.84,16-9.49,24-14.26l6.67-4a.38.38,0,0,0-.38-.65l-16.72,10q-5.81,3.45-11.63,6.88c-4.62,2.71-9.1,5.67-13.9,8.06-6.07,3-12.69,5.16-19.55,4.5-.48-.05-.47.7,0,.75Z"/><path class="cls-4" d="M365.52,186.42s-4-5.55-4.57-5.6a1.59,1.59,0,0,0-1.5,1c-.26.66.5,7.28.5,7.28l5.56-2.51"/><path class="cls-4" d="M350.61,210.29c-1.2.66-4,2.17-4.85,3.23a3.34,3.34,0,0,0-.29,3.74,3.5,3.5,0,0,0,3.53,1.23,8.52,8.52,0,0,0,3.47-1.81c1-.81,4.2-3.65,4.2-3.65"/><path class="cls-5" d="M346.33,214.68a1.77,1.77,0,0,0-.29,1.63,2.09,2.09,0,0,0,1.09,1.27,1.55,1.55,0,0,0,1.93-2.3c-.43-.66-1.86-1.39-2.73-.6"/><path class="cls-4" d="M325.87,195.81c-1.2.66-4.05,2.17-4.85,3.23a3.32,3.32,0,0,0-.29,3.73,3.45,3.45,0,0,0,3.52,1.23,8.43,8.43,0,0,0,3.47-1.8c1-.81,4.2-3.65,4.2-3.65"/><path class="cls-5" d="M321.1,201.17a2,2,0,0,0,.45,1.44,1.88,1.88,0,0,0,1.18.73.91.91,0,0,0,1-.63,1.86,1.86,0,0,0-.64-1.85c-.52-.42-1.7-.6-1.95.31"/><path class="cls-14" d="M350.08,203.87s26.23,6.83,27.19,8.87c.31.66-.29,3.64-20.24,1.72s-18.21-3.83-18.21-3.83Z"/><path class="cls-14" d="M370.24,185.44c2.14,2,.13,4.11-1.56,5.9-2,2.11-4.62,4.82-6.29,6.26-3,2.58-29.82,17.32-32.9,18.26s-7.29-.51-5.16-5.11,12.72-9.72,16.47-12.1,21.26-10.84,21.26-10.84l4.76-2.82a2.62,2.62,0,0,1,3.42.45Z"/><path class="cls-14" d="M379.31,191.44a3.33,3.33,0,0,1-2.7,2c-1.92.08-12.66-1.07-12.66-1.07l3.61-4.47Z"/><path class="cls-14" d="M340.37,200.08S325,189.27,324.08,188.7s-2.44.19-2.49.76c-.57,6.21,6.42,17.62,7.63,16.18Z"/><path class="cls-14" d="M368.8,186.39c-.62,0-7.15,4.4-7.5,4s2-10.29,3.8-14c.66-1.38,3.76-2.26,3.76-2.26Z"/><path class="cls-5" d="M374.38,214.26c-5.64,1-11.73.4-17.38-.14-6-.57-12.36-1.29-18.07-3.38-.46-.17-.65.56-.2.72,5.77,2.12,12.18,2.83,18.27,3.41,5.73.54,11.87,1.11,17.58.11.47-.08.27-.8-.2-.72Z"/><path class="cls-3" d="M368.67,180.82l-6.26,3.74,2.49-8.24s2.92-2.51,3.77-2.17Z"/><path class="cls-5" d="M325.61,208.91c3.58-3.67,8.38-6.06,12.83-8.5,4.24-2.32,8.53-4.55,12.82-6.77l6.41-3.29,2.93-1.5c.47-.24,1.13-.41,1.39-.87a10.4,10.4,0,0,0,.6-2.35c.39-1.47.79-2.93,1.21-4.39a33.3,33.3,0,0,1,1.46-4.36c.64-1.39,2.29-2,3.7-2.43l-.48-.36-.06,12.3a.38.38,0,0,0,.75,0l.06-12.3a.38.38,0,0,0-.47-.36,7.16,7.16,0,0,0-3.69,2,8.3,8.3,0,0,0-1.14,2.56c-.94,2.79-1.69,5.65-2.41,8.51a3.2,3.2,0,0,1-.24.92,11.45,11.45,0,0,1-2,1l-6.56,3.36c-4.46,2.3-8.93,4.61-13.34,7-4.93,2.67-10.33,5.27-14.29,9.33a.38.38,0,0,0,.53.53Z"/><path class="cls-5" d="M369.4,188.15a3.43,3.43,0,0,0-2.18,1.37,8.88,8.88,0,0,0-1.28,2.69c-.15.46.57.65.72.2.49-1.46,1.2-3.29,2.94-3.54a.37.37,0,0,0,.26-.46.39.39,0,0,0-.46-.26Z"/><path class="cls-5" d="M352.43,203.28l-13.79,7.5c-.43.23-.05.87.38.64l13.79-7.49c.42-.23.05-.88-.38-.65Z"/><path class="cls-6" d="M352.22,201.29c-4.59,2.5-12.89,7.16-17.49,9.66l.33-1.61,17.27-9.6Z"/><path class="cls-6" d="M325,209.62s-.76,2.23,1.27,2.94c1.38.48,4.3-.34,6.7-2.2l-.29,1.6s-3.11,2.17-5.84,2a3.16,3.16,0,0,1-2.38-1.24,1.93,1.93,0,0,1-.4-1.32,5.24,5.24,0,0,1,.94-1.77"/><rect class="cls-1" width="351" height="250"/></g></g></svg>