<svg xmlns="http://www.w3.org/2000/svg" viewBox="0 0 30 39.44"><defs><style>.cls-1{fill:#fbfbfa;}.cls-2{fill:#26292b;}</style></defs><title>icon_click</title><g id="Layer_2" data-name="Layer 2"><g id="Layer_1-2" data-name="Layer 1"><path class="cls-1" d="M7.67,16.1a1.48,1.48,0,0,0,0-.21c0-.73,0-1.47,0-2.2V11.93c0-2.76,0-5.52,0-8.28a3.05,3.05,0,0,1,.68-2A3.64,3.64,0,0,1,10.28.25a5.36,5.36,0,0,1,3.36,0,3.82,3.82,0,0,1,1.47.89,3.22,3.22,0,0,1,1,1.91,3.64,3.64,0,0,1,0,.57c0,.57,0,1.14,0,1.71,0,1.41,0,2.82,0,4.24,0,.14,0,.14.14.14h1.79a1.31,1.31,0,0,1,.44.07,3.83,3.83,0,0,1,1.84,1.36l.12.18a.1.1,0,0,0,.1.06h2.2a1.05,1.05,0,0,1,.43.07A4.13,4.13,0,0,1,25.11,13l.12.21a.11.11,0,0,0,.11.07h.16c.65,0,1.29,0,1.94.06a2.69,2.69,0,0,1,.4,0,1.71,1.71,0,0,1,.68.29,3.52,3.52,0,0,1,.79.75,3,3,0,0,1,.63,1.85c0,1.15,0,2.3,0,3.45l0,4c0,.42,0,.84,0,1.26a4.24,4.24,0,0,1-.33,1.76c-.32.8-.65,1.61-1,2.41q-1.41,3.49-2.84,7c-.26.62-.51,1.25-.77,1.87a1.93,1.93,0,0,1-.29.47,2.83,2.83,0,0,1-.91.74,2,2,0,0,1-1,.23l-2.52,0-5,0-4.78,0a3.27,3.27,0,0,1-.62-.07A3.11,3.11,0,0,1,9,39a1.88,1.88,0,0,1-.24-.14,2.71,2.71,0,0,1-.95-1.62,4.25,4.25,0,0,1-.06-.71c0-.81,0-1.61,0-2.42,0-.27,0-.54,0-.81a.41.41,0,0,0,0-.18l-1-1.7L4.5,27.55C3.74,26.24,3,24.94,2.23,23.63L.59,20.77A4.24,4.24,0,0,1,0,19.16a3.43,3.43,0,0,1,.61-2.45,5.32,5.32,0,0,1,1.6-1.46,4.37,4.37,0,0,1,1.42-.61,3.7,3.7,0,0,1,2.74.43,4.68,4.68,0,0,1,1.19,1A.12.12,0,0,0,7.67,16.1Zm.67,2.32a.14.14,0,0,1-.08-.09c-.38-.58-.76-1.17-1.13-1.76a3,3,0,0,0-4.24-.94l-.68.44a3.68,3.68,0,0,0-.73.57,3.1,3.1,0,0,0-.43,3.73c.22.39.44.77.67,1.15L5.08,27.3c1,1.82,2.11,3.63,3.17,5.45a1.06,1.06,0,0,1,.15.55c0,.78,0,1.57,0,2.35,0,.21,0,.42,0,.62a2.47,2.47,0,0,0,0,.61,2.26,2.26,0,0,0,2.23,1.91h9.77l2.22,0a2.2,2.2,0,0,0,1.73-.83.59.59,0,0,0,.1-.17q1.11-2.73,2.23-5.46l1.86-4.55.57-1.41a2.41,2.41,0,0,0,.2-.92V23.94c0-.81,0-1.61,0-2.42,0-1.43,0-2.85,0-4.28v-1a2.32,2.32,0,0,0-.06-.59,2.23,2.23,0,0,0-2.15-1.78c-.73,0-1.45,0-2.18,0-.17,0-.17,0-.22-.16v0a2.26,2.26,0,0,0-2.15-1.62H20.16c-.1,0-.09,0-.11-.08a2.37,2.37,0,0,0-.6-1,2.16,2.16,0,0,0-1.32-.63,8.85,8.85,0,0,0-1,0H15.64c-.05,0-.12,0-.16,0s0-.11,0-.17a.11.11,0,0,1,0-.05v-2c0-.9,0-1.79,0-2.69V4.05a5.3,5.3,0,0,0,0-.69,3,3,0,0,0-1.19-2.12A2.89,2.89,0,0,0,12.51.62H11.16a1.24,1.24,0,0,0-.27,0,3,3,0,0,0-1.63.78,3,3,0,0,0-1,2.23c0,.56,0,1.12,0,1.69,0,.73,0,1.45,0,2.18,0,1,0,2,0,3,0,.68,0,1.37,0,2.06,0,1.22,0,2.44,0,3.66,0,.63,0,1.26,0,1.89Z"/><path class="cls-2" d="M8.34,18.42v-.3c0-.63,0-1.26,0-1.89,0-1.22,0-2.44,0-3.66,0-.69,0-1.38,0-2.06,0-1,0-2,0-3,0-.73,0-1.45,0-2.18,0-.57,0-1.13,0-1.69a3,3,0,0,1,1-2.23A3,3,0,0,1,10.89.66a1.24,1.24,0,0,1,.27,0h1.35a2.89,2.89,0,0,1,1.72.62,3,3,0,0,1,1.19,2.12,5.3,5.3,0,0,1,0,.69V5.48c0,.9,0,1.79,0,2.69v2a.11.11,0,0,0,0,.05c0,.06,0,.13,0,.17s.11,0,.16,0H17.1a8.85,8.85,0,0,1,1,0,2.16,2.16,0,0,1,1.32.63,2.37,2.37,0,0,1,.6,1c0,.08,0,.08.11.08h2.41a2.26,2.26,0,0,1,2.15,1.62v0c.05.16.05.16.22.16.73,0,1.45,0,2.18,0a2.23,2.23,0,0,1,2.15,1.78,2.32,2.32,0,0,1,.06.59v1c0,1.43,0,2.85,0,4.28,0,.81,0,1.61,0,2.42V25.4a2.41,2.41,0,0,1-.2.92l-.57,1.41-1.86,4.55Q25.61,35,24.5,37.74a.59.59,0,0,1-.1.17,2.2,2.2,0,0,1-1.73.83l-2.22,0H10.68a2.26,2.26,0,0,1-2.23-1.91,2.47,2.47,0,0,1,0-.61c0-.2,0-.41,0-.62,0-.78,0-1.57,0-2.35a1.06,1.06,0,0,0-.15-.55c-1.06-1.82-2.12-3.63-3.17-5.45L1.72,21.52c-.23-.38-.45-.76-.67-1.15a3.1,3.1,0,0,1,.43-3.73,3.68,3.68,0,0,1,.73-.57l.68-.44a3,3,0,0,1,4.24.94c.37.59.75,1.18,1.13,1.76A.14.14,0,0,0,8.34,18.42Zm1.82-5.68h0v1.93c0,.64,0,1.29,0,1.93s0,1.36,0,2,0,1.61,0,2.41v.76a.81.81,0,0,1-.32.67,1,1,0,0,1-.84.18.81.81,0,0,1-.48-.32c-.08-.11-.15-.23-.22-.35l-2-3.21c-.25-.41-.5-.81-.76-1.21a1.18,1.18,0,0,0-1.65-.36l-.84.55a1.21,1.21,0,0,0-.44.46,1.16,1.16,0,0,0,0,1.18l.14.22c.13.24.28.48.41.72L3.6,21l.35.58.36.63.63,1.06q1.47,2.52,3,5l1.36,2.31c.26.46.53.92.81,1.37a1.25,1.25,0,0,1,.19.68v.89c0,.85,0,1.71,0,2.56,0,.12,0,.25,0,.37a.36.36,0,0,0,.33.38,1.51,1.51,0,0,0,.3,0c.68,0,1.36,0,2,0h9.68a.37.37,0,0,0,.38-.25l2.67-6.55,1.6-3.91a2.42,2.42,0,0,0,.22-1c0-.69,0-1.37,0-2.06V21.05c0-1.15,0-2.3,0-3.45V17c0-.27,0-.53,0-.79a.37.37,0,0,0-.29-.37.55.55,0,0,0-.18,0H24.87s-.05,0-.05.06v.05c0,.94,0,1.88,0,2.82a3,3,0,0,1,0,.52.89.89,0,0,1-.62.76.87.87,0,0,1-.94-.21A1,1,0,0,1,23,19c0-.59,0-1.18,0-1.78V15.8c0-.47,0-.94,0-1.41a.39.39,0,0,0-.21-.36.35.35,0,0,0-.22,0H20.24c-.09,0-.09,0-.09.09v.3c0,1.15,0,2.3,0,3.45,0,.2,0,.41,0,.61a.89.89,0,0,1-.57.77.84.84,0,0,1-.93-.13,1,1,0,0,1-.36-.77v-.95c0-.28,0-.56,0-.84,0-1.26,0-2.52,0-3.78a.49.49,0,0,0,0-.12A.39.39,0,0,0,18,12.3H15.55c-.08,0-.08,0-.08.08V13c0,.88,0,1.77,0,2.65v2.13a.92.92,0,0,1-1.29.84.94.94,0,0,1-.57-.92c0-1.24,0-2.47,0-3.7,0-.74,0-1.47,0-2.21,0-1.32,0-2.65,0-4,0-.52,0-1,0-1.56V4.14a4.28,4.28,0,0,0,0-.62,1.19,1.19,0,0,0-1.15-1H11.3a1.1,1.1,0,0,0-.31,0,1.24,1.24,0,0,0-.86,1.19c0,.84,0,1.69,0,2.53,0,.39,0,.78,0,1.16,0,1,0,2,0,3Z"/><path class="cls-1" d="M10.16,12.74V10.38c0-1,0-2,0-3,0-.38,0-.77,0-1.16,0-.84,0-1.69,0-2.53A1.24,1.24,0,0,1,11,2.55a1.1,1.1,0,0,1,.31,0h1.11a1.19,1.19,0,0,1,1.15,1,4.28,4.28,0,0,1,0,.62V6.21c0,.52,0,1,0,1.56,0,1.32,0,2.65,0,4,0,.74,0,1.47,0,2.21,0,1.23,0,2.46,0,3.7a.94.94,0,0,0,.57.92.92.92,0,0,0,1.29-.84V15.6c0-.88,0-1.77,0-2.65v-.57c0-.08,0-.08.08-.08H18a.39.39,0,0,1,.31.32.49.49,0,0,1,0,.12c0,1.26,0,2.52,0,3.78,0,.28,0,.56,0,.84v.95a1,1,0,0,0,.36.77.84.84,0,0,0,.93.13.89.89,0,0,0,.57-.77c0-.2,0-.41,0-.61,0-1.15,0-2.3,0-3.45v-.3c0-.08,0-.09.09-.09h2.28a.35.35,0,0,1,.22,0,.39.39,0,0,1,.21.36c0,.47,0,.94,0,1.41v1.43c0,.6,0,1.19,0,1.78a1,1,0,0,0,.29.78.87.87,0,0,0,.94.21.89.89,0,0,0,.62-.76,3,3,0,0,0,0-.52c0-.94,0-1.88,0-2.82v-.05s0-.06.05-.06H27a.55.55,0,0,1,.18,0,.37.37,0,0,1,.29.37c0,.26,0,.52,0,.79v.63c0,1.15,0,2.3,0,3.45v2.06c0,.69,0,1.37,0,2.06a2.42,2.42,0,0,1-.22,1l-1.6,3.91L23,36.62a.37.37,0,0,1-.38.25H13c-.68,0-1.36,0-2,0a1.51,1.51,0,0,1-.3,0,.36.36,0,0,1-.33-.38c0-.12,0-.25,0-.37,0-.85,0-1.71,0-2.56V32.7a1.25,1.25,0,0,0-.19-.68c-.28-.45-.55-.91-.81-1.37L7.9,28.34q-1.49-2.52-3-5l-.63-1.06L4,21.61,3.6,21l-.41-.69c-.13-.24-.28-.48-.41-.72l-.14-.22a1.16,1.16,0,0,1,0-1.18,1.21,1.21,0,0,1,.44-.46l.84-.55a1.18,1.18,0,0,1,1.65.36c.26.4.51.8.76,1.21l2,3.21c.07.12.14.24.22.35a.81.81,0,0,0,.48.32,1,1,0,0,0,.84-.18.81.81,0,0,0,.32-.67v-.76c0-.8,0-1.61,0-2.41s0-1.36,0-2,0-1.29,0-1.93V12.74Z"/></g></g></svg>