<svg xmlns="http://www.w3.org/2000/svg" viewBox="0 0 57 57"><defs><style>.cls-1{fill:none;}.cls-2{fill:#b68963;}.cls-3{fill:#d19f6f;}.cls-4{fill:#90633f;}.cls-5{fill:#aca094;}.cls-6{fill:#2ca8df;}.cls-7{fill:#b0855c;}.cls-8{fill:#f8eadd;}</style></defs><title>logo-57x57</title><g id="Layer_2" data-name="Layer 2"><g id="Layer_1-2" data-name="Layer 1"><rect class="cls-1" width="57" height="57"/><path class="cls-2" d="M51.57,12.52,29.78,4.68a.66.66,0,0,0-.44,0L7.55,12.52a.63.63,0,0,0-.43.6.65.65,0,0,0,.43.61l21.79,7.84a.63.63,0,0,0,.44,0l21.79-7.84a.65.65,0,0,0,.43-.61A.63.63,0,0,0,51.57,12.52Z"/><path class="cls-3" d="M29.78,20.36,8,12.52a.65.65,0,0,0-.59.08.63.63,0,0,0-.27.52V41a.65.65,0,0,0,.39.6l21.8,9.24a.7.7,0,0,0,.25,0,.63.63,0,0,0,.35-.11.65.65,0,0,0,.29-.54V21A.64.64,0,0,0,29.78,20.36Z"/><path class="cls-4" d="M51.73,12.6a.65.65,0,0,0-.59-.08l-21.8,7.84a.64.64,0,0,0-.42.6V50.28a.65.65,0,0,0,.29.54.66.66,0,0,0,.35.11.58.58,0,0,0,.26-.06l21.8-9.78A.66.66,0,0,0,52,40.5V13.12A.63.63,0,0,0,51.73,12.6Z"/><path class="cls-5" d="M36.06,6.94,14.64,15.56v10.7a.74.74,0,0,0,.47.68l6.05,2.3a.75.75,0,0,0,.26.05.76.76,0,0,0,.41-.13.73.73,0,0,0,.32-.6V18.34L44.58,10Z"/><path class="cls-6" d="M33.12,44l8.16-3.68Z"/><path class="cls-7" d="M33.12,44.69a.64.64,0,0,1-.26-1.23L41,39.78A.64.64,0,1,1,41.54,41l-8.15,3.68A.66.66,0,0,1,33.12,44.69Z"/><path class="cls-7" d="M32.78,39.15a.64.64,0,0,1-.41-.14.66.66,0,0,1-.09-.91l1.81-2.19A.64.64,0,0,1,35,35.8l1.44,1a.64.64,0,0,1,.16.89.65.65,0,0,1-.9.16l-.95-.67-1.42,1.73A.66.66,0,0,1,32.78,39.15Z"/><path class="cls-7" d="M34.58,43.94a.64.64,0,0,1-.64-.64v-7a.65.65,0,0,1,1.29,0v7A.65.65,0,0,1,34.58,43.94Z"/><path class="cls-7" d="M37.65,37.06a.63.63,0,0,1-.41-.15.65.65,0,0,1-.09-.9L39,33.82a.65.65,0,0,1,.87-.12l1.44,1a.64.64,0,0,1,.15.9.63.63,0,0,1-.89.15l-1-.66-1.42,1.73A.67.67,0,0,1,37.65,37.06Z"/><path class="cls-7" d="M39.45,41.85a.64.64,0,0,1-.64-.65v-7a.64.64,0,1,1,1.28,0v7A.64.64,0,0,1,39.45,41.85Z"/><path class="cls-8" d="M21.5,18.06l-6.21-2.23-.61-.22a.78.78,0,0,0,0,.22V26.26a.74.74,0,0,0,.47.68l6.05,2.3a.75.75,0,0,0,.26.05.76.76,0,0,0,.41-.13.73.73,0,0,0,.32-.6V18.3Z"/></g></g></svg>